<svg xmlns="http://www.w3.org/2000/svg" width="312" height="151" viewBox="0 0 122.55 59.26" shape-rendering="geometricPrecision" image-rendering="optimizeQuality" fill-rule="evenodd"><path d="M14.26 0h43.17l-2.12 7.15h-6.8L33.07 59.26h-9.96L38.55 7.15h-7.82L15.29 59.26H5.24l8.6-29.03h-.65c-.21.06-.34.09-.4.09-4.97 0-8.55-1.45-10.76-4.37S-.58 19.22.81 14.5C2.94 7.32 7.42 2.49 14.26 0z" fill="#eceff111"/><path d="M27.39 28.28c0 1.21-.1 1.93-.24 2.17-.15.29-.58.44-1.3.44h-9.62c-.78 0-1.26.05-1.45.19-.2.15-.29.53-.29 1.16 0 2.13.43 3.87 1.35 5.17.92 1.31 2.08 1.98 3.58 1.98.92 0 1.79-.29 2.51-.91.73-.63 1.26-1.41 1.5-2.37l.43-1.65c.25-.91.78-1.35 1.69-1.35 1.02 0 1.55.58 1.55 1.74 0 2.08-.77 3.92-2.32 5.51-1.59 1.6-3.38 2.37-5.46 2.37-2.56 0-4.59-1.11-6.09-3.34-1.5-2.17-2.27-5.17-2.27-8.89s.82-6.76 2.42-9.13c1.59-2.37 3.72-3.53 6.28-3.53 2.27 0 4.16.97 5.61 2.9 1.4 1.98 2.12 4.49 2.12 7.54zm-12.66-1.45c0 .58.43.87 1.26.87h6.09c.77 0 1.25-.05 1.45-.19.19-.15.29-.44.29-.97 0-1.55-.44-2.85-1.26-3.87-.82-1.01-1.89-1.54-3.09-1.54-1.89 0-3.29 1.06-4.11 3.19-.34.82-.53 1.49-.58 2.07-.05.15-.05.29-.05.44zm17.78-9.28l.05-.58v-3.82c0-1.4.53-2.12 1.65-2.12 1.11 0 1.64.72 1.64 2.12v3.87c0 .53.05.87.19 1.01.1.15.39.24.82.24l1.5-.04 1.6-.1c1.3 0 1.93.58 1.93 1.74 0 1.21-.63 1.84-1.93 1.84-.34 0-.87-.05-1.6-.2l-1.64-.14c-.39 0-.63.09-.73.24-.09.19-.14.63-.14 1.26v9.71l.1 3.91c.24 1.79.91 2.66 2.03 2.66 1.45 0 2.17-1.69 2.17-5.07v-.48c0-1.07.05-1.74.14-2.03.2-.73.68-1.12 1.41-1.12 1.11 0 1.64.97 1.64 2.9 0 .73-.05 1.74-.19 3.1-.39 4.1-2.18 6.18-5.42 6.18-2.51 0-4.1-1.16-4.73-3.43-.29-1.01-.44-2.71-.44-5.07V22.62c0-.72-.19-1.06-.58-1.06-.05 0-.19.05-.53.1h-.24c-.15.05-.24.05-.29.05-.97 0-1.45-.63-1.45-1.84 0-1.11.48-1.69 1.45-1.69.14 0 .29 0 .53.05.24.04.39.04.53.04.34 0 .49-.24.53-.72zm18.8 2.08l-.04.87c1.88-1.79 3.67-2.66 5.46-2.66 2.32 0 4.15 1.06 5.55 3.24 1.41 2.17 2.08 5.12 2.08 8.84 0 3.82-.77 6.91-2.27 9.28s-3.53 3.53-5.99 3.53c-1.69 0-3.29-.73-4.69-2.13v1.74l.19 3.87c.1.43.39.67.92.67h.44l.53-.09c.87 0 1.3.58 1.3 1.69s-.48 1.64-1.5 1.64c-.28 0-.82-.09-1.59-.24l-1.84-.24c-.72 0-1.4.1-2.12.24l-1.4.24c-1.02 0-1.5-.53-1.5-1.64s.43-1.69 1.3-1.69c.1 0 .29.05.53.09h.44c.53 0 .82-.24.97-.67.09-.48.14-1.79.14-3.87V26.06l-.19-3.87c-.15-.53-.44-.82-.97-.82h-.1c-.04.05-.09.05-.14.05h-.44c-.14.04-.29.04-.33.04-.83 0-1.26-.53-1.26-1.54 0-1.16.48-1.74 1.45-1.74.24 0 .63.05 1.06.14a6.39 6.39 0 0 0 1.4.15c.25 0 .78-.1 1.5-.24.15-.05.29-.05.44-.05.43 0 .67.48.67 1.45zM56 39.44c1.5 0 2.71-.87 3.58-2.56s1.3-4.01 1.3-6.96c0-2.75-.43-4.88-1.25-6.38-.83-1.5-1.99-2.27-3.48-2.27-1.5 0-2.66.77-3.48 2.37-.82 1.59-1.26 3.87-1.26 6.81 0 2.85.39 5.03 1.21 6.62.82 1.6 1.93 2.37 3.38 2.37zm21.02-21.6c.29 0 .73.05 1.36.15.29-2.95 1.69-4.4 4.15-4.4a3.99 3.99 0 0 1 3 1.3c.82.87 1.21 1.94 1.21 3.14 0 1.69-.68 2.56-1.98 2.56-.54 0-.97-.19-1.31-.53a1.77 1.77 0 0 1-.53-1.3c0-.49.19-1.02.63-1.6-.24-.43-.53-.67-.87-.67-.44 0-.78.19-1.07.63a2.3 2.3 0 0 0-.48 1.45c0 .24 0 .48.05.67 1.69 1.45 2.56 3.53 2.56 6.19 0 2.27-.63 4.15-1.93 5.65-1.31 1.5-2.9 2.27-4.88 2.27-1.31 0-2.71-.38-4.21-1.2-.24-.15-.43-.2-.63-.2-.62 0-.96.58-.96 1.69 0 1.4 1.06 2.13 3.14 2.13l4.35.19c1.69.2 3.04.63 4.06 1.36 1.98 1.3 2.95 3.23 2.95 5.7 0 2.32-.83 4.2-2.52 5.6-1.69 1.41-3.96 2.08-6.71 2.08-2.76 0-4.93-.63-6.63-1.93-1.69-1.31-2.51-3-2.51-5.07 0-2.52 1.16-4.35 3.43-5.56-1.88-1.02-2.85-2.52-2.85-4.5s.97-3.48 2.85-4.59c-.53-1.25-.82-2.46-.82-3.67 0-2.18.68-4.01 2.03-5.41 1.31-1.4 3.05-2.13 5.12-2.13zm-.33 3.19c-2.28 0-3.48 1.45-3.58 4.3l-.05.29c0 1.31.34 2.37 1.06 3.19.68.82 1.6 1.21 2.76 1.21 1.11 0 1.98-.39 2.66-1.21.62-.82.96-1.88.96-3.24 0-1.35-.34-2.46-1.06-3.28a3.51 3.51 0 0 0-2.75-1.26zm-.1 18.03c-1.79 0-3.24.38-4.25 1.11-1.07.72-1.6 1.74-1.6 2.99 0 1.31.53 2.37 1.55 3.15 1.01.72 2.37 1.11 4.15 1.11 1.84 0 3.29-.39 4.35-1.11 1.02-.73 1.55-1.79 1.55-3.1 0-1.25-.53-2.27-1.55-3.04-1.06-.73-2.46-1.11-4.2-1.11zM95.1 19.53v.63c1.3-1.55 2.85-2.32 4.59-2.32 1.69 0 3.09.58 4.16 1.79 1.06 1.21 1.59 2.8 1.59 4.69 0 1.4-.29 2.56-.82 3.48-.58.91-1.31 1.35-2.18 1.35a2.33 2.33 0 0 1-1.69-.68c-.43-.43-.67-1.01-.67-1.69 0-1.3.72-2.03 2.12-2.22.05-.24.05-.49.05-.82 0-.78-.24-1.45-.77-2.03-.53-.54-1.21-.82-1.94-.82-2.75 0-4.1 2.7-4.1 8.16v3.97l.19 5.12c.14.67.43 1.01.97 1.01.14 0 .43-.05.87-.09a4.26 4.26 0 0 1 .91-.1c.97 0 1.45.53 1.45 1.59 0 1.21-.53 1.79-1.59 1.79-.34 0-1.06-.09-2.13-.29l-2.03-.09a11.11 11.11 0 0 0-1.98.19c-.82.14-1.4.19-1.74.19-1.01 0-1.54-.53-1.54-1.64s.43-1.64 1.35-1.64c.19 0 .39 0 .53.04h.44c.53 0 .82-.24.96-.72.1-.44.15-1.74.15-3.82v-8.5c0-2.03-.05-3.34-.2-3.87-.14-.53-.48-.82-1.01-.82h-.1c-.05.05-.05.05-.09.05h-.44c-.19.04-.29.04-.34.04-.87 0-1.3-.53-1.3-1.54 0-.48.14-.92.43-1.26s.63-.48 1.07-.48c.24 0 .67.05 1.2.14.53.1.97.15 1.26.15s.77-.1 1.5-.24c.14-.05.29-.05.38-.05.29 0 .44.43.49 1.35zm23.34-5.56c0-.38.15-.82.44-1.25-.44-.49-.92-.73-1.41-.73-.82 0-1.54.44-2.07 1.26-.58.87-.87 1.98-.87 3.29 0 .87.04 1.35.19 1.49.14.15.34.24.58.24.19 0 .48-.04.92-.09l.87-.1c1.16 0 1.74.58 1.74 1.79 0 1.11-.68 1.69-2.08 1.69-.29 0-.48 0-.63-.05l-.77-.09c-.53 0-.82.58-.87 1.74l-.05 1.06v10.63c0 1.98.05 3.19.19 3.63.15.43.49.67 1.02.67h.43l.97-.09c1.01 0 1.5.53 1.5 1.59 0 1.11-.53 1.69-1.55 1.69-.24 0-.87-.09-1.84-.24-.58-.1-1.45-.14-2.61-.14-.38 0-.96.04-1.69.19-.72.14-1.3.19-1.64.19-1.02 0-1.5-.53-1.5-1.64s.44-1.64 1.35-1.64c.2 0 .39 0 .54.04h.43c.53 0 .82-.24.97-.72.09-.44.14-1.74.14-3.82V23.3c0-1.16-.19-1.74-.63-1.74-.24 0-.38 0-.53.05-.14.05-.29.05-.48.05-1.26 0-1.88-.58-1.88-1.74 0-1.26.62-1.89 1.93-1.89a2.7 2.7 0 0 1 .58.05c.24.05.43.05.58.05.43 0 .63-.24.63-.77 0-2.08.24-3.72.72-4.93.44-1.02 1.11-1.89 2.08-2.52.92-.62 1.98-.96 3.19-.96 1.4 0 2.66.43 3.67 1.3 1.02.87 1.55 1.94 1.55 3.14 0 .73-.2 1.36-.58 1.89-.44.53-.92.77-1.55.77-.53 0-1.01-.19-1.4-.63-.39-.38-.58-.87-.58-1.45z" fill="#00ccffee" fill-rule="nonzero"/></svg>