<?xml version="1.0" encoding="UTF-8"?>
<!DOCTYPE svg PUBLIC "-//W3C//DTD SVG 1.1//EN" "http://www.w3.org/Graphics/SVG/1.1/DTD/svg11.dtd">
<!-- Creator: CorelDRAW -->
<svg xmlns="http://www.w3.org/2000/svg" xml:space="preserve" width="717px" height="151px" version="1.1" style="shape-rendering:geometricPrecision; text-rendering:geometricPrecision; image-rendering:optimizeQuality; fill-rule:evenodd; clip-rule:evenodd"
viewBox="0 0 646.38 136.18"
 xmlns:xlink="http://www.w3.org/1999/xlink"
 xmlns:xodm="http://www.corel.com/coreldraw/odm/2003">
 <defs>
  <style type="text/css">
   <![CDATA[
    .fil0 {fill:#1f1f1911}
    .fil1 {fill:#00CCFFEE;fill-rule:nonzero}
    .fil2 {fill:#4a4a44EE;fill-rule:nonzero}
   ]]>
  </style>
 </defs>
 <g id="Слой_x0020_1">
  <metadata id="CorelCorpID_0Corel-Layer"/>
  <path class="fil0" d="M32.77 0l99.2 0 -4.87 16.42 -15.61 0 -35.49 119.76 -22.89 0 35.49 -119.76 -17.97 0 -35.49 119.76 -23.11 0 19.77 -66.7c-0.43,0 -0.93,0 -1.5,0 -0.47,0.14 -0.77,0.21 -0.92,0.21 -11.4,0 -19.65,-3.35 -24.72,-10.06 -5.07,-6.7 -6,-15.47 -2.79,-26.31 4.89,-16.5 15.19,-27.61 30.9,-33.32z"/>
  <path class="fil1" d="M62.95 64.99c0,2.77 -0.22,4.44 -0.56,5 -0.33,0.66 -1.33,0.99 -3,0.99l-22.1 0c-1.77,0 -2.88,0.12 -3.33,0.45 -0.44,0.33 -0.67,1.22 -0.67,2.66 0,4.89 1,8.89 3.11,11.89 2.11,3 4.78,4.55 8.22,4.55 2.11,0 4.11,-0.67 5.78,-2.11 1.66,-1.44 2.89,-3.22 3.44,-5.44l1 -3.78c0.56,-2.11 1.78,-3.11 3.89,-3.11 2.33,0 3.55,1.34 3.55,4 0,4.78 -1.78,9 -5.33,12.66 -3.66,3.67 -7.77,5.44 -12.55,5.44 -5.89,0 -10.55,-2.55 -13.99,-7.66 -3.45,-5 -5.22,-11.88 -5.22,-20.43 0,-8.56 1.89,-15.55 5.55,-20.99 3.67,-5.45 8.55,-8.11 14.44,-8.11 5.22,0 9.55,2.22 12.88,6.66 3.22,4.56 4.89,10.33 4.89,17.33zm-29.1 -3.33c0,1.33 1,1.99 2.89,1.99l13.99 0c1.78,0 2.89,-0.11 3.33,-0.44 0.45,-0.33 0.67,-1 0.67,-2.22 0,-3.55 -1,-6.55 -2.89,-8.89 -1.89,-2.33 -4.33,-3.55 -7.11,-3.55 -4.33,0 -7.55,2.44 -9.44,7.33 -0.77,1.89 -1.22,3.44 -1.33,4.78 -0.11,0.33 -0.11,0.66 -0.11,1z"/>
  <path id="_1" class="fil1" d="M74.72 40.33l0.11 -1.33 0 -8.78c0,-3.22 1.22,-4.88 3.78,-4.88 2.55,0 3.77,1.66 3.77,4.88l0 8.89c0,1.22 0.11,2 0.45,2.33 0.22,0.34 0.89,0.56 1.89,0.56 1.22,0 2.44,0 3.44,-0.11l3.66 -0.23c3,0 4.45,1.34 4.45,4 0,2.78 -1.45,4.22 -4.45,4.22 -0.77,0 -2,-0.11 -3.66,-0.44 -1.67,-0.22 -3,-0.33 -3.78,-0.33 -0.89,0 -1.44,0.22 -1.66,0.55 -0.23,0.45 -0.34,1.44 -0.34,2.89l0 22.32c0,5.11 0.11,8.11 0.23,9 0.55,4.11 2.11,6.11 4.66,6.11 3.33,0 5,-3.89 5,-11.67l0 -1.11c0,-2.44 0.11,-3.99 0.33,-4.66 0.45,-1.67 1.56,-2.55 3.22,-2.55 2.56,0 3.78,2.22 3.78,6.66 0,1.66 -0.11,4 -0.45,7.11 -0.88,9.44 -4.99,14.21 -12.43,14.21 -5.78,0 -9.45,-2.66 -10.89,-7.88 -0.67,-2.34 -1,-6.22 -1,-11.66l0 -26.44c0,-1.66 -0.44,-2.44 -1.33,-2.44 -0.11,0 -0.45,0.11 -1.22,0.22 -0.11,0 -0.23,0 -0.56,0 -0.33,0.11 -0.55,0.11 -0.67,0.11 -2.22,0 -3.33,-1.44 -3.33,-4.22 0,-2.55 1.11,-3.88 3.33,-3.88 0.34,0 0.67,0 1.23,0.11 0.55,0.11 0.88,0.11 1.22,0.11 0.78,0 1.11,-0.56 1.22,-1.67z"/>
  <path id="_2" class="fil1" d="M117.92 45.11c0,0.66 0,1.33 -0.11,2 4.33,-4.11 8.44,-6.11 12.55,-6.11 5.33,0 9.55,2.44 12.77,7.44 3.22,5 4.78,11.77 4.78,20.32 0,8.78 -1.78,15.88 -5.22,21.33 -3.44,5.44 -8.11,8.1 -13.77,8.1 -3.89,0 -7.55,-1.66 -10.78,-4.88l0 4c0,4.77 0.12,7.77 0.45,8.88 0.22,1 0.89,1.56 2.11,1.56l1 0c0.78,-0.12 1.11,-0.23 1.22,-0.23 2,0 3,1.34 3,3.89 0,2.55 -1.11,3.78 -3.44,3.78 -0.67,0 -1.89,-0.23 -3.67,-0.56 -1.78,-0.33 -3.22,-0.55 -4.22,-0.55 -1.66,0 -3.22,0.22 -4.89,0.55 -1.66,0.33 -2.77,0.56 -3.22,0.56 -2.33,0 -3.44,-1.23 -3.44,-3.78 0,-2.55 1,-3.89 3,-3.89 0.22,0 0.67,0.11 1.22,0.23l1 0c1.22,0 1.89,-0.56 2.22,-1.56 0.22,-1.11 0.34,-4.11 0.34,-8.88l0 -37.43c0,-4.67 -0.12,-7.66 -0.45,-8.89 -0.33,-1.22 -1,-1.88 -2.22,-1.88 -0.11,0 -0.11,0 -0.22,0 -0.11,0.11 -0.23,0.11 -0.34,0.11 -0.33,0 -0.66,0 -1,0 -0.33,0.11 -0.66,0.11 -0.77,0.11 -1.89,0 -2.89,-1.22 -2.89,-3.56 0,-2.66 1.11,-3.99 3.33,-3.99 0.56,0 1.44,0.11 2.44,0.33 1,0.22 2.12,0.33 3.23,0.33 0.55,0 1.77,-0.22 3.44,-0.55 0.33,-0.11 0.66,-0.11 1,-0.11 1,0 1.55,1.11 1.55,3.33zm10.78 45.53c3.44,0 6.22,-2 8.21,-5.88 2,-3.89 3,-9.22 3,-16 0,-6.33 -1,-11.21 -2.88,-14.66 -1.89,-3.44 -4.56,-5.22 -8,-5.22 -3.44,0 -6.11,1.78 -8,5.45 -1.89,3.66 -2.89,8.88 -2.89,15.66 0,6.55 0.89,11.55 2.78,15.21 1.89,3.66 4.44,5.44 7.78,5.44z"/>
  <path id="_3" class="fil1" d="M177.01 41c0.66,0 1.66,0.11 3.11,0.33 0.66,-6.77 3.88,-10.1 9.55,-10.1 2.66,0 4.99,0.99 6.88,2.99 1.89,2 2.78,4.45 2.78,7.22 0,3.89 -1.56,5.89 -4.55,5.89 -1.23,0 -2.23,-0.45 -3,-1.22 -0.78,-0.78 -1.22,-1.78 -1.22,-3 0,-1.11 0.44,-2.33 1.44,-3.67 -0.56,-1 -1.22,-1.55 -2,-1.55 -1,0 -1.78,0.44 -2.44,1.44 -0.78,1 -1.11,2.11 -1.11,3.33 0,0.56 0,1.12 0.11,1.56 3.88,3.33 5.88,8.11 5.88,14.21 0,5.22 -1.44,9.56 -4.44,13 -3,3.44 -6.66,5.22 -11.22,5.22 -2.99,0 -6.22,-0.89 -9.66,-2.78 -0.55,-0.33 -1,-0.44 -1.44,-0.44 -1.45,0 -2.22,1.33 -2.22,3.88 0,3.23 2.44,4.89 7.22,4.89 4.77,0 8.1,0.11 9.99,0.45 3.89,0.44 7,1.44 9.33,3.11 4.55,2.99 6.78,7.44 6.78,13.1 0,5.33 -1.89,9.66 -5.78,12.88 -3.89,3.22 -9.11,4.78 -15.44,4.78 -6.33,0 -11.33,-1.45 -15.21,-4.44 -3.89,-3 -5.78,-6.89 -5.78,-11.66 0,-5.78 2.67,-10 7.89,-12.78 -4.33,-2.33 -6.56,-5.77 -6.56,-10.33 0,-4.55 2.23,-7.99 6.56,-10.55 -1.22,-2.88 -1.89,-5.66 -1.89,-8.44 0,-4.99 1.55,-9.21 4.66,-12.43 3,-3.23 7,-4.89 11.78,-4.89zm-0.78 7.33c-5.22,0 -8,3.33 -8.22,9.88l-0.11 0.67c0,3 0.78,5.44 2.44,7.33 1.56,1.89 3.67,2.78 6.33,2.78 2.56,0 4.56,-0.89 6.11,-2.78 1.44,-1.89 2.22,-4.33 2.22,-7.44 0,-3.11 -0.78,-5.67 -2.44,-7.55 -1.67,-1.89 -3.78,-2.89 -6.33,-2.89zm-0.22 41.42c-4.11,0 -7.44,0.89 -9.78,2.56 -2.44,1.66 -3.66,4 -3.66,6.88 0,3 1.22,5.45 3.55,7.22 2.33,1.67 5.44,2.56 9.55,2.56 4.22,0 7.56,-0.89 10,-2.56 2.33,-1.66 3.55,-4.11 3.55,-7.11 0,-2.88 -1.22,-5.21 -3.55,-6.99 -2.44,-1.67 -5.67,-2.56 -9.66,-2.56z"/>
  <path id="_4" class="fil1" d="M218.54 44.89c0,0 0,0.44 0,1.44 3,-3.56 6.56,-5.33 10.55,-5.33 3.89,0 7.11,1.33 9.55,4.11 2.45,2.77 3.67,6.44 3.67,10.77 0,3.22 -0.67,5.89 -1.89,8 -1.33,2.11 -3,3.11 -5,3.11 -1.55,0 -2.88,-0.56 -3.88,-1.56 -1,-1 -1.56,-2.33 -1.56,-3.89 0,-2.99 1.67,-4.66 4.89,-5.1 0.11,-0.56 0.11,-1.11 0.11,-1.89 0,-1.78 -0.56,-3.33 -1.78,-4.67 -1.22,-1.22 -2.77,-1.88 -4.44,-1.88 -6.33,0 -9.44,6.21 -9.44,18.76l0 9.11c0,6.33 0.11,10.33 0.44,11.77 0.34,1.56 1,2.34 2.22,2.34 0.34,0 1.01,-0.12 2,-0.23 0.56,-0.11 1.23,-0.22 2.11,-0.22 2.23,0 3.34,1.22 3.34,3.67 0,2.77 -1.23,4.11 -3.67,4.11 -0.78,0 -2.44,-0.23 -4.88,-0.67 -1.67,-0.11 -3.23,-0.22 -4.67,-0.22 -1.11,0 -2.67,0.11 -4.55,0.44 -1.89,0.33 -3.22,0.45 -4,0.45 -2.33,0 -3.56,-1.23 -3.56,-3.78 0,-2.56 1,-3.78 3.11,-3.78 0.45,0 0.89,0 1.23,0.11l1 0c1.22,0 1.88,-0.55 2.22,-1.66 0.22,-1 0.33,-4 0.33,-8.78l0 -19.54c0,-4.67 -0.11,-7.66 -0.44,-8.89 -0.34,-1.22 -1.11,-1.88 -2.34,-1.88 -0.11,0 -0.11,0 -0.22,0 -0.11,0.11 -0.11,0.11 -0.22,0.11 -0.33,0 -0.67,0 -1,0 -0.44,0.11 -0.67,0.11 -0.78,0.11 -2,0 -3,-1.22 -3,-3.56 0,-1.11 0.34,-2.11 1,-2.88 0.67,-0.78 1.45,-1.11 2.45,-1.11 0.55,0 1.55,0.11 2.77,0.33 1.22,0.22 2.22,0.33 2.89,0.33 0.67,0 1.78,-0.22 3.44,-0.55 0.34,-0.11 0.67,-0.11 0.89,-0.11 0.67,0 1,0.99 1.11,3.11z"/>
  <path id="_5" class="fil1" d="M272.18 32.11c0,-0.88 0.34,-1.89 1,-2.88 -1,-1.12 -2.11,-1.67 -3.22,-1.67 -1.88,0 -3.55,1 -4.77,2.89 -1.33,2 -2,4.55 -2,7.55 0,2 0.11,3.11 0.44,3.44 0.34,0.34 0.78,0.56 1.34,0.56 0.44,0 1.11,-0.11 2.11,-0.22 0.88,-0.12 1.55,-0.23 1.99,-0.23 2.67,0 4,1.34 4,4.11 0,2.56 -1.55,3.89 -4.77,3.89 -0.67,0 -1.11,0 -1.45,-0.11 -1.22,-0.11 -1.77,-0.22 -1.77,-0.22 -1.22,0 -1.89,1.33 -2,3.99l-0.11 2.45 0 24.43c0,4.55 0.11,7.33 0.44,8.33 0.33,1 1.11,1.56 2.33,1.56l1 0c1.34,-0.12 2.11,-0.23 2.22,-0.23 2.34,0 3.45,1.22 3.45,3.67 0,2.55 -1.22,3.89 -3.56,3.89 -0.55,0 -2,-0.23 -4.22,-0.56 -1.33,-0.22 -3.33,-0.33 -5.99,-0.33 -0.89,0 -2.23,0.11 -3.89,0.44 -1.67,0.33 -3,0.45 -3.78,0.45 -2.33,0 -3.44,-1.23 -3.44,-3.78 0,-2.56 1,-3.78 3.11,-3.78 0.44,0 0.89,0 1.22,0.11l1 0c1.22,0 1.89,-0.55 2.22,-1.66 0.22,-1 0.33,-4 0.33,-8.78l0 -25.87c0,-2.67 -0.44,-4 -1.44,-4 -0.55,0 -0.89,0 -1.22,0.11 -0.33,0.11 -0.67,0.11 -1.11,0.11 -2.89,0 -4.33,-1.33 -4.33,-4 0,-2.88 1.44,-4.33 4.44,-4.33 0.33,0 0.78,0 1.33,0.11 0.56,0.11 1,0.11 1.33,0.11 1,0 1.45,-0.55 1.45,-1.77 0,-4.78 0.55,-8.55 1.67,-11.33 0.99,-2.33 2.55,-4.33 4.77,-5.78 2.11,-1.44 4.55,-2.22 7.33,-2.22 3.22,0 6.11,1 8.44,3 2.33,2 3.56,4.44 3.56,7.22 0,1.67 -0.45,3.11 -1.34,4.33 -1,1.22 -2.11,1.78 -3.55,1.78 -1.22,0 -2.33,-0.45 -3.22,-1.44 -0.89,-0.89 -1.34,-2 -1.34,-3.34z"/>
  <path class="fil2" d="M311.57 61.33c0,0.7 -0.05,1.12 -0.14,1.25 -0.08,0.17 -0.33,0.25 -0.75,0.25l-5.52 0c-0.44,0 -0.72,0.03 -0.83,0.12 -0.11,0.08 -0.17,0.3 -0.17,0.66 0,1.22 0.25,2.22 0.78,2.97 0.53,0.75 1.19,1.14 2.05,1.14 0.53,0 1.03,-0.17 1.45,-0.53 0.41,-0.36 0.72,-0.8 0.86,-1.36l0.25 -0.94c0.14,-0.53 0.44,-0.78 0.97,-0.78 0.58,0 0.89,0.34 0.89,1 0,1.2 -0.45,2.25 -1.34,3.17 -0.91,0.91 -1.94,1.36 -3.13,1.36 -1.47,0 -2.64,-0.64 -3.5,-1.92 -0.86,-1.25 -1.31,-2.97 -1.31,-5.11 0,-2.14 0.48,-3.88 1.39,-5.25 0.92,-1.36 2.14,-2.02 3.61,-2.02 1.31,0 2.39,0.55 3.22,1.66 0.81,1.14 1.22,2.59 1.22,4.33zm-7.27 -0.83c0,0.34 0.25,0.5 0.72,0.5l3.5 0c0.44,0 0.72,-0.03 0.83,-0.11 0.11,-0.08 0.17,-0.25 0.17,-0.55 0,-0.89 -0.25,-1.64 -0.72,-2.23 -0.47,-0.58 -1.09,-0.88 -1.78,-0.88 -1.08,0 -1.89,0.61 -2.36,1.83 -0.19,0.47 -0.3,0.86 -0.33,1.19 -0.03,0.09 -0.03,0.17 -0.03,0.25z"/>
  <path id="_1_0" class="fil2" d="M319.51 53.12c0,-0.22 0.09,-0.48 0.25,-0.73 -0.25,-0.27 -0.52,-0.41 -0.8,-0.41 -0.47,0 -0.89,0.25 -1.2,0.72 -0.33,0.5 -0.49,1.14 -0.49,1.89 0,0.5 0.02,0.78 0.11,0.86 0.08,0.08 0.19,0.14 0.33,0.14 0.11,0 0.28,-0.03 0.53,-0.06 0.22,-0.02 0.39,-0.05 0.5,-0.05 0.66,0 1,0.33 1,1.02 0,0.64 -0.39,0.98 -1.2,0.98 -0.16,0 -0.28,0 -0.36,-0.03 -0.3,-0.03 -0.44,-0.06 -0.44,-0.06 -0.31,0 -0.47,0.34 -0.5,1l-0.03 0.61 0 6.11c0,1.14 0.03,1.83 0.11,2.08 0.08,0.25 0.28,0.39 0.58,0.39l0.25 0c0.34,-0.03 0.53,-0.05 0.56,-0.05 0.58,0 0.86,0.3 0.86,0.91 0,0.64 -0.31,0.97 -0.89,0.97 -0.14,0 -0.5,-0.05 -1.05,-0.13 -0.34,-0.06 -0.84,-0.09 -1.5,-0.09 -0.22,0 -0.56,0.03 -0.97,0.11 -0.42,0.09 -0.75,0.11 -0.95,0.11 -0.58,0 -0.86,-0.3 -0.86,-0.94 0,-0.64 0.25,-0.94 0.78,-0.94 0.11,0 0.22,0 0.3,0.02l0.25 0c0.31,0 0.48,-0.13 0.56,-0.41 0.05,-0.25 0.08,-1 0.08,-2.2l0 -6.46c0,-0.67 -0.11,-1 -0.36,-1 -0.14,0 -0.22,0 -0.3,0.02 -0.09,0.03 -0.17,0.03 -0.28,0.03 -0.72,0 -1.08,-0.33 -1.08,-1 0,-0.72 0.36,-1.08 1.11,-1.08 0.08,0 0.19,0 0.33,0.03 0.14,0.03 0.25,0.03 0.33,0.03 0.25,0 0.36,-0.14 0.36,-0.45 0,-1.19 0.14,-2.14 0.42,-2.83 0.25,-0.58 0.64,-1.08 1.19,-1.44 0.53,-0.37 1.14,-0.56 1.84,-0.56 0.8,0 1.52,0.25 2.11,0.75 0.58,0.5 0.88,1.11 0.88,1.8 0,0.42 -0.11,0.78 -0.33,1.09 -0.25,0.3 -0.53,0.44 -0.89,0.44 -0.3,0 -0.58,-0.11 -0.8,-0.36 -0.23,-0.22 -0.34,-0.5 -0.34,-0.83zm8.22 0c0,-0.22 0.09,-0.48 0.25,-0.73 -0.25,-0.27 -0.53,-0.41 -0.8,-0.41 -0.47,0 -0.89,0.25 -1.2,0.72 -0.33,0.5 -0.5,1.14 -0.5,1.89 0,0.5 0.03,0.78 0.11,0.86 0.09,0.08 0.2,0.14 0.34,0.14 0.11,0 0.28,-0.03 0.52,-0.06 0.23,-0.02 0.39,-0.05 0.51,-0.05 0.66,0 0.99,0.33 0.99,1.02 0,0.64 -0.38,0.98 -1.19,0.98 -0.17,0 -0.28,0 -0.36,-0.03 -0.31,-0.03 -0.44,-0.06 -0.44,-0.06 -0.31,0 -0.48,0.34 -0.5,1l-0.03 0.61 0 6.11c0,1.14 0.03,1.83 0.11,2.08 0.08,0.25 0.28,0.39 0.58,0.39l0.25 0c0.34,-0.03 0.53,-0.05 0.56,-0.05 0.58,0 0.86,0.3 0.86,0.91 0,0.64 -0.31,0.97 -0.89,0.97 -0.14,0 -0.5,-0.05 -1.06,-0.13 -0.33,-0.06 -0.83,-0.09 -1.5,-0.09 -0.22,0 -0.55,0.03 -0.97,0.11 -0.41,0.09 -0.75,0.11 -0.94,0.11 -0.58,0 -0.86,-0.3 -0.86,-0.94 0,-0.64 0.25,-0.94 0.78,-0.94 0.11,0 0.22,0 0.3,0.02l0.25 0c0.31,0 0.47,-0.13 0.56,-0.41 0.05,-0.25 0.08,-1 0.08,-2.2l0 -6.46c0,-0.67 -0.11,-1 -0.36,-1 -0.14,0 -0.22,0 -0.31,0.02 -0.08,0.03 -0.16,0.03 -0.27,0.03 -0.73,0 -1.09,-0.33 -1.09,-1 0,-0.72 0.36,-1.08 1.11,-1.08 0.09,0 0.2,0 0.34,0.03 0.14,0.03 0.25,0.03 0.33,0.03 0.25,0 0.36,-0.14 0.36,-0.45 0,-1.19 0.14,-2.14 0.42,-2.83 0.25,-0.58 0.64,-1.08 1.19,-1.44 0.53,-0.37 1.14,-0.56 1.83,-0.56 0.81,0 1.53,0.25 2.11,0.75 0.59,0.5 0.89,1.11 0.89,1.8 0,0.42 -0.11,0.78 -0.33,1.09 -0.25,0.3 -0.53,0.44 -0.89,0.44 -0.31,0 -0.58,-0.11 -0.8,-0.36 -0.23,-0.22 -0.34,-0.5 -0.34,-0.83z"/>
  <path id="_2_1" class="fil2" d="M335.01 69.64c-1.53,0 -2.72,-0.64 -3.61,-1.95 -0.89,-1.27 -1.34,-3 -1.34,-5.19 0,-2.19 0.45,-3.91 1.34,-5.22 0.89,-1.3 2.08,-1.94 3.61,-1.94 1.52,0 2.72,0.64 3.6,1.94 0.89,1.31 1.34,3.03 1.34,5.22 0,2.19 -0.45,3.92 -1.34,5.19 -0.88,1.31 -2.08,1.95 -3.6,1.95zm0 -12.44c-0.92,0 -1.64,0.47 -2.17,1.44 -0.53,0.97 -0.8,2.28 -0.8,3.86 0,1.58 0.27,2.86 0.8,3.83 0.53,0.97 1.25,1.45 2.17,1.45 0.91,0 1.63,-0.48 2.19,-1.45 0.53,-0.97 0.8,-2.25 0.8,-3.83 0,-1.58 -0.27,-2.89 -0.8,-3.86 -0.56,-0.97 -1.28,-1.44 -2.19,-1.44z"/>
  <path id="_3_2" class="fil2" d="M345.33 56.31c0,0 0,0.11 0,0.36 0.75,-0.89 1.64,-1.33 2.64,-1.33 0.97,0 1.78,0.33 2.39,1.03 0.61,0.69 0.92,1.61 0.92,2.69 0,0.8 -0.17,1.47 -0.48,2 -0.33,0.53 -0.75,0.78 -1.25,0.78 -0.38,0 -0.72,-0.14 -0.97,-0.39 -0.25,-0.25 -0.39,-0.59 -0.39,-0.98 0,-0.74 0.42,-1.16 1.23,-1.27 0.02,-0.14 0.02,-0.28 0.02,-0.47 0,-0.45 -0.14,-0.84 -0.44,-1.17 -0.31,-0.31 -0.69,-0.47 -1.11,-0.47 -1.58,0 -2.36,1.55 -2.36,4.69l0 2.28c0,1.58 0.03,2.58 0.11,2.94 0.08,0.39 0.25,0.58 0.55,0.58 0.09,0 0.26,-0.03 0.5,-0.05 0.14,-0.03 0.31,-0.06 0.53,-0.06 0.56,0 0.84,0.31 0.84,0.92 0,0.69 -0.31,1.02 -0.92,1.02 -0.2,0 -0.61,-0.05 -1.22,-0.16 -0.42,-0.03 -0.81,-0.06 -1.17,-0.06 -0.28,0 -0.67,0.03 -1.14,0.11 -0.47,0.09 -0.8,0.11 -1,0.11 -0.58,0 -0.88,-0.3 -0.88,-0.94 0,-0.64 0.24,-0.94 0.77,-0.94 0.11,0 0.22,0 0.31,0.02l0.25 0c0.3,0 0.47,-0.13 0.55,-0.41 0.06,-0.25 0.09,-1 0.09,-2.2l0 -4.88c0,-1.17 -0.03,-1.92 -0.11,-2.22 -0.09,-0.31 -0.28,-0.48 -0.59,-0.48 -0.03,0 -0.03,0 -0.05,0 -0.03,0.03 -0.03,0.03 -0.06,0.03 -0.08,0 -0.17,0 -0.25,0 -0.11,0.03 -0.16,0.03 -0.19,0.03 -0.5,0 -0.75,-0.3 -0.75,-0.89 0,-0.28 0.08,-0.53 0.25,-0.72 0.16,-0.19 0.36,-0.28 0.61,-0.28 0.14,0 0.39,0.03 0.69,0.09 0.31,0.05 0.56,0.08 0.72,0.08 0.17,0 0.45,-0.06 0.86,-0.14 0.09,-0.03 0.17,-0.03 0.23,-0.03 0.16,0 0.25,0.25 0.27,0.78z"/>
  <path id="_4_3" class="fil2" d="M354.11 55.17l0.03 -0.33 0 -2.2c0,-0.8 0.3,-1.22 0.94,-1.22 0.64,0 0.94,0.42 0.94,1.22l0 2.23c0,0.3 0.03,0.5 0.11,0.58 0.06,0.08 0.23,0.14 0.48,0.14 0.3,0 0.61,0 0.86,-0.03l0.91 -0.05c0.75,0 1.11,0.33 1.11,0.99 0,0.7 -0.36,1.06 -1.11,1.06 -0.19,0 -0.5,-0.03 -0.91,-0.11 -0.42,-0.06 -0.75,-0.09 -0.95,-0.09 -0.22,0 -0.36,0.06 -0.41,0.14 -0.06,0.12 -0.09,0.36 -0.09,0.73l0 5.58c0,1.27 0.03,2.02 0.06,2.24 0.14,1.03 0.53,1.53 1.17,1.53 0.83,0 1.24,-0.97 1.24,-2.91l0 -0.28c0,-0.61 0.03,-1 0.09,-1.17 0.11,-0.41 0.39,-0.64 0.8,-0.64 0.64,0 0.95,0.56 0.95,1.67 0,0.42 -0.03,1 -0.11,1.78 -0.23,2.36 -1.25,3.55 -3.11,3.55 -1.45,0 -2.36,-0.67 -2.72,-1.97 -0.17,-0.58 -0.25,-1.56 -0.25,-2.92l0 -6.6c0,-0.42 -0.12,-0.61 -0.34,-0.61 -0.03,0 -0.11,0.02 -0.3,0.05 -0.03,0 -0.06,0 -0.14,0 -0.08,0.03 -0.14,0.03 -0.17,0.03 -0.55,0 -0.83,-0.36 -0.83,-1.06 0,-0.63 0.28,-0.97 0.83,-0.97 0.09,0 0.17,0 0.31,0.03 0.14,0.03 0.22,0.03 0.3,0.03 0.2,0 0.28,-0.14 0.31,-0.42z"/>
  <path id="_5_4" class="fil2" d="M365.41 56.37l0 8.57c0,1.2 0.03,1.95 0.11,2.2 0.05,0.28 0.22,0.41 0.53,0.41l0.25 0c0.08,-0.02 0.19,-0.02 0.33,-0.02 0.19,0 0.39,0.08 0.53,0.27 0.14,0.2 0.22,0.42 0.22,0.67 0,0.64 -0.31,0.94 -0.92,0.94 -0.14,0 -0.52,-0.05 -1.14,-0.13 -0.36,-0.06 -0.77,-0.09 -1.22,-0.09 -0.3,0 -0.61,0.03 -0.91,0.09 -0.48,0.08 -0.75,0.13 -0.78,0.13 -0.58,0 -0.86,-0.3 -0.86,-0.94 0,-0.64 0.25,-0.94 0.75,-0.94 0.14,0 0.22,0 0.3,0.02l0.25 0c0.28,0 0.45,-0.13 0.5,-0.38 0.06,-0.25 0.11,-0.98 0.14,-2.23l0.03 -1.19 0 -6.8c0,-0.14 0,-0.39 -0.03,-0.81 -0.03,-0.47 -0.03,-0.89 -0.03,-1.22l-0.02 -1.44c-0.03,-0.64 -0.25,-0.95 -0.67,-0.95l-0.17 0c-0.08,0.03 -0.16,0.03 -0.27,0.03 -0.56,0 -0.84,-0.3 -0.84,-0.89 0,-0.25 0.09,-0.5 0.28,-0.69 0.17,-0.19 0.36,-0.28 0.61,-0.28 0.14,0 0.36,0.06 0.67,0.14 0.19,0.06 0.36,0.08 0.55,0.08 0.17,0 0.42,-0.02 0.75,-0.11 0.31,-0.08 0.53,-0.11 0.67,-0.11 0.36,0 0.53,0.2 0.53,0.61l0 0.36c-0.03,0.17 -0.03,0.53 -0.06,1.09l-0.05 1.72 -0.03 1.89z"/>
  <path id="_6" class="fil2" d="M378.12 61.33c0,0.7 -0.05,1.12 -0.14,1.25 -0.08,0.17 -0.33,0.25 -0.75,0.25l-5.52 0c-0.44,0 -0.72,0.03 -0.83,0.12 -0.11,0.08 -0.17,0.3 -0.17,0.66 0,1.22 0.25,2.22 0.78,2.97 0.53,0.75 1.19,1.14 2.05,1.14 0.53,0 1.03,-0.17 1.45,-0.53 0.41,-0.36 0.72,-0.8 0.86,-1.36l0.25 -0.94c0.14,-0.53 0.44,-0.78 0.97,-0.78 0.58,0 0.89,0.34 0.89,1 0,1.2 -0.45,2.25 -1.34,3.17 -0.91,0.91 -1.94,1.36 -3.13,1.36 -1.47,0 -2.64,-0.64 -3.5,-1.92 -0.86,-1.25 -1.31,-2.97 -1.31,-5.11 0,-2.14 0.48,-3.88 1.39,-5.25 0.92,-1.36 2.14,-2.02 3.61,-2.02 1.31,0 2.39,0.55 3.22,1.66 0.81,1.14 1.22,2.59 1.22,4.33zm-7.27 -0.83c0,0.34 0.25,0.5 0.72,0.5l3.5 0c0.44,0 0.72,-0.03 0.83,-0.11 0.11,-0.08 0.17,-0.25 0.17,-0.55 0,-0.89 -0.25,-1.64 -0.72,-2.23 -0.47,-0.58 -1.09,-0.88 -1.78,-0.88 -1.08,0 -1.89,0.61 -2.36,1.83 -0.19,0.47 -0.3,0.86 -0.33,1.19 -0.03,0.09 -0.03,0.17 -0.03,0.25z"/>
  <path id="_7" class="fil2" d="M384.65 55.37c0.83,0 1.66,0.33 2.47,0.97 0,-0.75 0.28,-1.11 0.8,-1.11 0.59,0 0.89,0.33 0.89,1.02 0,0.09 -0.02,0.28 -0.05,0.59 -0.09,0.64 -0.11,1.14 -0.11,1.5 0,0.19 0.02,0.47 0.05,0.86 0.03,0.39 0.06,0.66 0.06,0.86 0,0.61 -0.28,0.91 -0.81,0.91 -0.64,0 -0.94,-0.44 -0.94,-1.33 0,-0.8 -0.2,-1.41 -0.61,-1.89 -0.42,-0.44 -0.97,-0.66 -1.7,-0.66 -0.63,0 -1.13,0.19 -1.52,0.58 -0.42,0.39 -0.61,0.89 -0.61,1.53 0,0.61 0.19,1.05 0.55,1.36 0.36,0.3 1.08,0.55 2.11,0.77 1.42,0.31 2.39,0.67 2.92,1.09 0.86,0.64 1.27,1.58 1.27,2.83 0,1.25 -0.39,2.28 -1.19,3.08 -0.81,0.81 -1.83,1.22 -3.08,1.22 -1.03,0 -2,-0.41 -2.92,-1.27l0 0.22c0,0.8 -0.27,1.22 -0.86,1.22 -0.58,0 -0.89,-0.36 -0.89,-1.05 0,-0.25 0.03,-0.53 0.06,-0.89 0.03,-0.2 0.03,-0.61 0.03,-1.31 0,-0.22 -0.03,-0.55 -0.06,-1.03 -0.03,-0.47 -0.05,-0.8 -0.05,-1.02 0,-0.59 0.27,-0.89 0.8,-0.89 0.58,0 0.92,0.39 0.94,1.14 0.09,2.08 1.06,3.13 2.98,3.13 0.66,0 1.22,-0.22 1.66,-0.63 0.42,-0.42 0.64,-0.92 0.64,-1.56 0,-0.64 -0.19,-1.14 -0.58,-1.47 -0.42,-0.33 -1.11,-0.58 -2.14,-0.78 -1.36,-0.25 -2.33,-0.58 -2.94,-1.02 -0.84,-0.59 -1.25,-1.53 -1.25,-2.78 0,-1.2 0.39,-2.2 1.16,-3 0.78,-0.81 1.75,-1.19 2.92,-1.19z"/>
  <path id="_8" class="fil2" d="M396.03 55.37c0.84,0 1.67,0.33 2.47,0.97 0,-0.75 0.28,-1.11 0.81,-1.11 0.58,0 0.89,0.33 0.89,1.02 0,0.09 -0.03,0.28 -0.06,0.59 -0.08,0.64 -0.11,1.14 -0.11,1.5 0,0.19 0.03,0.47 0.06,0.86 0.02,0.39 0.05,0.66 0.05,0.86 0,0.61 -0.28,0.91 -0.8,0.91 -0.64,0 -0.95,-0.44 -0.95,-1.33 0,-0.8 -0.19,-1.41 -0.61,-1.89 -0.42,-0.44 -0.97,-0.66 -1.69,-0.66 -0.64,0 -1.14,0.19 -1.53,0.58 -0.42,0.39 -0.61,0.89 -0.61,1.53 0,0.61 0.19,1.05 0.55,1.36 0.37,0.3 1.09,0.55 2.11,0.77 1.42,0.31 2.39,0.67 2.92,1.09 0.86,0.64 1.28,1.58 1.28,2.83 0,1.25 -0.39,2.28 -1.2,3.08 -0.8,0.81 -1.83,1.22 -3.08,1.22 -1.03,0 -2,-0.41 -2.91,-1.27l0 0.22c0,0.8 -0.28,1.22 -0.86,1.22 -0.59,0 -0.89,-0.36 -0.89,-1.05 0,-0.25 0.02,-0.53 0.05,-0.89 0.03,-0.2 0.03,-0.61 0.03,-1.31 0,-0.22 -0.03,-0.55 -0.06,-1.03 -0.02,-0.47 -0.05,-0.8 -0.05,-1.02 0,-0.59 0.28,-0.89 0.8,-0.89 0.59,0 0.92,0.39 0.95,1.14 0.08,2.08 1.05,3.13 2.97,3.13 0.67,0 1.22,-0.22 1.67,-0.63 0.41,-0.42 0.63,-0.92 0.63,-1.56 0,-0.64 -0.19,-1.14 -0.58,-1.47 -0.42,-0.33 -1.11,-0.58 -2.14,-0.78 -1.36,-0.25 -2.33,-0.58 -2.94,-1.02 -0.83,-0.59 -1.25,-1.53 -1.25,-2.78 0,-1.2 0.39,-2.2 1.17,-3 0.77,-0.81 1.75,-1.19 2.91,-1.19z"/>
  <path id="_9" class="fil2" d="M422.44 58.78l2.13 8.25 2.14 -8.89c0.06,-0.25 0.08,-0.39 0.08,-0.47 0,-0.25 -0.16,-0.36 -0.49,-0.36 -0.09,0 -0.14,0 -0.17,0.03 -0.11,0.02 -0.25,0.02 -0.39,0.02 -0.22,0 -0.42,-0.08 -0.58,-0.27 -0.17,-0.2 -0.25,-0.39 -0.25,-0.64 0,-0.61 0.3,-0.92 0.94,-0.92 0.25,0 0.61,0.03 1.11,0.09 0.47,0.05 0.86,0.08 1.11,0.08 0.25,0 0.58,-0.03 1.06,-0.08 0.44,-0.06 0.77,-0.09 1,-0.09 0.58,0 0.89,0.31 0.89,0.92 0,0.58 -0.31,0.89 -0.92,0.89 -0.03,0 -0.06,0 -0.14,-0.03 -0.08,0 -0.14,0 -0.17,0 -0.19,-0.03 -0.3,-0.06 -0.33,-0.06 -0.28,0 -0.5,0.28 -0.67,0.86l-0.33 1.14 -2.33 8.05c-0.81,2.73 -1.58,4.64 -2.39,5.75 -0.8,1.11 -1.83,1.67 -3.05,1.67 -0.86,0 -1.59,-0.28 -2.17,-0.86 -0.58,-0.59 -0.89,-1.31 -0.89,-2.17 0,-0.53 0.14,-0.97 0.42,-1.33 0.28,-0.36 0.64,-0.56 1.05,-0.56 0.37,0 0.67,0.14 0.92,0.39 0.22,0.25 0.33,0.59 0.33,1 0,0.5 -0.16,0.89 -0.52,1.14 0.22,0.31 0.52,0.44 0.91,0.44 0.64,0 1.25,-0.36 1.78,-1.11 0.53,-0.75 0.78,-1.61 0.78,-2.55 0,-0.22 -0.03,-0.44 -0.11,-0.69l-0.28 -0.89 -2.69 -9.05c-0.26,-0.78 -0.59,-1.17 -1.06,-1.17l-0.17 0c-0.16,0.03 -0.3,0.05 -0.41,0.05 -0.2,0 -0.39,-0.08 -0.53,-0.27 -0.17,-0.2 -0.25,-0.42 -0.25,-0.67 0,-0.58 0.3,-0.89 0.89,-0.89 0.25,0 0.61,0.06 1.08,0.14 0.47,0.08 0.86,0.14 1.11,0.14 0.25,0 0.64,-0.06 1.17,-0.14 0.5,-0.08 0.86,-0.14 1.11,-0.14 0.58,0 0.86,0.31 0.86,0.89 0,0.64 -0.28,0.97 -0.81,0.97 -0.14,0 -0.25,0 -0.36,-0.03 -0.03,-0.02 -0.11,-0.02 -0.19,-0.02 -0.28,0 -0.42,0.14 -0.42,0.39 0,0.13 0,0.22 0.03,0.3l0.17 0.75z"/>
  <path id="_10" class="fil2" d="M434.63 56.37c0,0.16 0,0.33 -0.03,0.5 1.08,-1.03 2.11,-1.53 3.13,-1.53 1.34,0 2.39,0.61 3.2,1.86 0.8,1.25 1.19,2.94 1.19,5.08 0,2.19 -0.44,3.97 -1.3,5.33 -0.86,1.36 -2.03,2.03 -3.45,2.03 -0.97,0 -1.88,-0.42 -2.69,-1.22l0 0.99c0,1.2 0.03,1.95 0.11,2.23 0.06,0.25 0.22,0.38 0.53,0.38l0.25 0c0.19,-0.02 0.28,-0.05 0.3,-0.05 0.5,0 0.75,0.33 0.75,0.97 0,0.64 -0.27,0.94 -0.86,0.94 -0.16,0 -0.47,-0.05 -0.91,-0.13 -0.45,-0.09 -0.81,-0.14 -1.06,-0.14 -0.41,0 -0.8,0.05 -1.22,0.14 -0.42,0.08 -0.69,0.13 -0.81,0.13 -0.58,0 -0.86,-0.3 -0.86,-0.94 0,-0.64 0.25,-0.97 0.75,-0.97 0.06,0 0.17,0.03 0.31,0.05l0.25 0c0.3,0 0.47,-0.13 0.55,-0.38 0.06,-0.28 0.09,-1.03 0.09,-2.23l0 -9.35c0,-1.17 -0.03,-1.92 -0.11,-2.22 -0.09,-0.31 -0.25,-0.48 -0.56,-0.48 -0.03,0 -0.03,0 -0.05,0 -0.03,0.03 -0.06,0.03 -0.09,0.03 -0.08,0 -0.16,0 -0.25,0 -0.08,0.03 -0.16,0.03 -0.19,0.03 -0.47,0 -0.72,-0.3 -0.72,-0.89 0,-0.66 0.27,-1 0.83,-1 0.14,0 0.36,0.03 0.61,0.09 0.25,0.05 0.53,0.08 0.81,0.08 0.13,0 0.44,-0.06 0.86,-0.14 0.08,-0.03 0.16,-0.03 0.25,-0.03 0.25,0 0.39,0.28 0.39,0.84zm2.69 11.38c0.86,0 1.55,-0.5 2.05,-1.47 0.5,-0.97 0.75,-2.31 0.75,-4 0,-1.58 -0.25,-2.8 -0.72,-3.67 -0.47,-0.86 -1.14,-1.3 -2,-1.3 -0.86,0 -1.53,0.44 -2,1.36 -0.47,0.92 -0.72,2.22 -0.72,3.91 0,1.64 0.22,2.89 0.69,3.81 0.48,0.91 1.11,1.36 1.95,1.36z"/>
  <path id="_11" class="fil2" d="M449.12 69.64c-1.53,0 -2.72,-0.64 -3.61,-1.95 -0.89,-1.27 -1.33,-3 -1.33,-5.19 0,-2.19 0.44,-3.91 1.33,-5.22 0.89,-1.3 2.08,-1.94 3.61,-1.94 1.53,0 2.72,0.64 3.61,1.94 0.89,1.31 1.33,3.03 1.33,5.22 0,2.19 -0.44,3.92 -1.33,5.19 -0.89,1.31 -2.08,1.95 -3.61,1.95zm0 -12.44c-0.92,0 -1.64,0.47 -2.17,1.44 -0.52,0.97 -0.8,2.28 -0.8,3.86 0,1.58 0.28,2.86 0.8,3.83 0.53,0.97 1.25,1.45 2.17,1.45 0.91,0 1.64,-0.48 2.19,-1.45 0.53,-0.97 0.81,-2.25 0.81,-3.83 0,-1.58 -0.28,-2.89 -0.81,-3.86 -0.55,-0.97 -1.28,-1.44 -2.19,-1.44z"/>
  <path id="_12" class="fil2" d="M461.33 55.34c0.17,0 0.42,0.03 0.78,0.08 0.17,-1.69 0.97,-2.52 2.39,-2.52 0.67,0 1.25,0.24 1.72,0.74 0.47,0.5 0.7,1.12 0.7,1.81 0,0.97 -0.39,1.47 -1.14,1.47 -0.31,0 -0.56,-0.11 -0.75,-0.31 -0.2,-0.19 -0.31,-0.44 -0.31,-0.74 0,-0.28 0.11,-0.59 0.36,-0.92 -0.14,-0.25 -0.3,-0.39 -0.5,-0.39 -0.25,0 -0.44,0.11 -0.61,0.36 -0.19,0.25 -0.28,0.53 -0.28,0.83 0,0.14 0,0.28 0.03,0.39 0.97,0.84 1.47,2.03 1.47,3.56 0,1.3 -0.36,2.38 -1.11,3.25 -0.75,0.86 -1.66,1.3 -2.8,1.3 -0.75,0 -1.56,-0.22 -2.42,-0.69 -0.14,-0.09 -0.25,-0.12 -0.36,-0.12 -0.36,0 -0.55,0.34 -0.55,0.98 0,0.8 0.61,1.22 1.8,1.22 1.2,0 2.03,0.03 2.5,0.11 0.97,0.11 1.75,0.36 2.33,0.78 1.14,0.75 1.7,1.86 1.7,3.27 0,1.34 -0.48,2.42 -1.45,3.22 -0.97,0.81 -2.27,1.2 -3.86,1.2 -1.58,0 -2.83,-0.36 -3.8,-1.11 -0.97,-0.75 -1.44,-1.72 -1.44,-2.92 0,-1.44 0.66,-2.5 1.97,-3.19 -1.09,-0.58 -1.64,-1.44 -1.64,-2.58 0,-1.14 0.55,-2 1.64,-2.64 -0.31,-0.72 -0.47,-1.42 -0.47,-2.11 0,-1.25 0.38,-2.31 1.16,-3.11 0.75,-0.81 1.75,-1.22 2.94,-1.22zm-0.19 1.83c-1.31,0 -2,0.83 -2.05,2.47l-0.03 0.17c0,0.75 0.19,1.36 0.61,1.83 0.39,0.47 0.91,0.7 1.58,0.7 0.64,0 1.14,-0.23 1.53,-0.7 0.36,-0.47 0.55,-1.08 0.55,-1.86 0,-0.78 -0.19,-1.42 -0.61,-1.89 -0.41,-0.47 -0.94,-0.72 -1.58,-0.72zm-0.06 10.36c-1.02,0 -1.86,0.22 -2.44,0.63 -0.61,0.42 -0.92,1.01 -0.92,1.73 0,0.75 0.31,1.36 0.89,1.8 0.59,0.42 1.36,0.64 2.39,0.64 1.06,0 1.89,-0.22 2.5,-0.64 0.58,-0.41 0.89,-1.03 0.89,-1.78 0,-0.72 -0.31,-1.3 -0.89,-1.75 -0.61,-0.41 -1.42,-0.63 -2.42,-0.63z"/>
  <path id="_13" class="fil2" d="M471.72 56.31c0,0 0,0.11 0,0.36 0.75,-0.89 1.64,-1.33 2.64,-1.33 0.97,0 1.77,0.33 2.38,1.03 0.61,0.69 0.92,1.61 0.92,2.69 0,0.8 -0.17,1.47 -0.47,2 -0.34,0.53 -0.75,0.78 -1.25,0.78 -0.39,0 -0.72,-0.14 -0.97,-0.39 -0.25,-0.25 -0.39,-0.59 -0.39,-0.98 0,-0.74 0.41,-1.16 1.22,-1.27 0.03,-0.14 0.03,-0.28 0.03,-0.47 0,-0.45 -0.14,-0.84 -0.45,-1.17 -0.3,-0.31 -0.69,-0.47 -1.11,-0.47 -1.58,0 -2.36,1.55 -2.36,4.69l0 2.28c0,1.58 0.03,2.58 0.11,2.94 0.09,0.39 0.25,0.58 0.56,0.58 0.08,0 0.25,-0.03 0.5,-0.05 0.14,-0.03 0.3,-0.06 0.53,-0.06 0.55,0 0.83,0.31 0.83,0.92 0,0.69 -0.31,1.02 -0.92,1.02 -0.19,0 -0.61,-0.05 -1.22,-0.16 -0.41,-0.03 -0.8,-0.06 -1.16,-0.06 -0.28,0 -0.67,0.03 -1.14,0.11 -0.48,0.09 -0.81,0.11 -1,0.11 -0.59,0 -0.89,-0.3 -0.89,-0.94 0,-0.64 0.25,-0.94 0.78,-0.94 0.11,0 0.22,0 0.3,0.02l0.25 0c0.31,0 0.47,-0.13 0.56,-0.41 0.05,-0.25 0.08,-1 0.08,-2.2l0 -4.88c0,-1.17 -0.03,-1.92 -0.11,-2.22 -0.08,-0.31 -0.28,-0.48 -0.58,-0.48 -0.03,0 -0.03,0 -0.06,0 -0.03,0.03 -0.03,0.03 -0.06,0.03 -0.08,0 -0.16,0 -0.24,0 -0.12,0.03 -0.17,0.03 -0.2,0.03 -0.5,0 -0.75,-0.3 -0.75,-0.89 0,-0.28 0.08,-0.53 0.25,-0.72 0.17,-0.19 0.36,-0.28 0.61,-0.28 0.14,0 0.39,0.03 0.7,0.09 0.3,0.05 0.55,0.08 0.72,0.08 0.16,0 0.44,-0.06 0.86,-0.14 0.08,-0.03 0.16,-0.03 0.22,-0.03 0.17,0 0.25,0.25 0.28,0.78z"/>
  <path id="_14" class="fil2" d="M488.04 69.64c-1.05,0 -1.72,-0.56 -2.02,-1.67 -0.81,1.11 -1.86,1.67 -3.2,1.67 -1.08,0 -1.94,-0.39 -2.63,-1.14 -0.7,-0.75 -1.06,-1.72 -1.06,-2.92 0,-1.52 0.47,-2.58 1.42,-3.22 0.66,-0.44 1.69,-0.75 3.08,-0.94 0.8,-0.11 1.33,-0.33 1.64,-0.64 0.3,-0.31 0.44,-0.81 0.44,-1.53 0,-1.5 -0.64,-2.25 -1.91,-2.25 -0.34,0 -0.73,0.09 -1.14,0.28 -0.48,0.22 -0.72,0.5 -0.72,0.81 0,0.08 0.05,0.22 0.16,0.41 0.22,0.36 0.34,0.7 0.34,1 0,0.81 -0.42,1.2 -1.25,1.2 -0.98,0 -1.45,-0.61 -1.45,-1.81 0,-1.03 0.39,-1.86 1.17,-2.55 0.75,-0.67 1.72,-1 2.89,-1 0.77,0 1.47,0.17 2.11,0.47 0.69,0.36 1.19,0.89 1.44,1.55 0.19,0.56 0.3,1.5 0.3,2.81l0.03 6.8c0.03,0.53 0.17,0.81 0.47,0.81 0.42,0 0.62,-0.67 0.62,-1.97 0,-0.25 0,-0.42 -0.03,-0.53l0 -0.28c0,-0.81 0.27,-1.19 0.8,-1.19 0.61,0 0.92,0.52 0.92,1.58 0,1.61 -0.17,2.72 -0.53,3.33 -0.36,0.61 -0.97,0.92 -1.89,0.92zm-2.36 -4.5c0.09,-0.42 0.11,-1.25 0.14,-2.5 -0.52,0.22 -1.03,0.39 -1.53,0.47l-1.24 0.22c-1.36,0.25 -2.03,1 -2.03,2.31 0,0.67 0.19,1.19 0.58,1.61 0.36,0.42 0.86,0.61 1.47,0.61 0.64,0 1.22,-0.25 1.7,-0.75 0.47,-0.5 0.77,-1.17 0.91,-1.97z"/>
  <path id="_15" class="fil2" d="M494.26 56.37c0,0.16 0,0.33 -0.02,0.5 1.08,-1.03 2.11,-1.53 3.13,-1.53 1.33,0 2.39,0.61 3.2,1.86 0.8,1.25 1.19,2.94 1.19,5.08 0,2.19 -0.45,3.97 -1.31,5.33 -0.86,1.36 -2.02,2.03 -3.44,2.03 -0.97,0 -1.89,-0.42 -2.69,-1.22l0 0.99c0,1.2 0.03,1.95 0.11,2.23 0.05,0.25 0.22,0.38 0.53,0.38l0.25 0c0.19,-0.02 0.27,-0.05 0.3,-0.05 0.5,0 0.75,0.33 0.75,0.97 0,0.64 -0.28,0.94 -0.86,0.94 -0.17,0 -0.47,-0.05 -0.92,-0.13 -0.44,-0.09 -0.8,-0.14 -1.05,-0.14 -0.42,0 -0.81,0.05 -1.22,0.14 -0.42,0.08 -0.7,0.13 -0.81,0.13 -0.58,0 -0.86,-0.3 -0.86,-0.94 0,-0.64 0.25,-0.97 0.75,-0.97 0.06,0 0.17,0.03 0.31,0.05l0.25 0c0.3,0 0.47,-0.13 0.55,-0.38 0.06,-0.28 0.09,-1.03 0.09,-2.23l0 -9.35c0,-1.17 -0.03,-1.92 -0.12,-2.22 -0.08,-0.31 -0.24,-0.48 -0.55,-0.48 -0.03,0 -0.03,0 -0.06,0 -0.02,0.03 -0.05,0.03 -0.08,0.03 -0.08,0 -0.17,0 -0.25,0 -0.08,0.03 -0.17,0.03 -0.19,0.03 -0.48,0 -0.73,-0.3 -0.73,-0.89 0,-0.66 0.28,-1 0.84,-1 0.14,0 0.36,0.03 0.61,0.09 0.25,0.05 0.53,0.08 0.8,0.08 0.14,0 0.45,-0.06 0.86,-0.14 0.09,-0.03 0.17,-0.03 0.25,-0.03 0.25,0 0.39,0.28 0.39,0.84zm2.7 11.38c0.86,0 1.55,-0.5 2.05,-1.47 0.5,-0.97 0.75,-2.31 0.75,-4 0,-1.58 -0.25,-2.8 -0.72,-3.67 -0.47,-0.86 -1.14,-1.3 -2,-1.3 -0.86,0 -1.53,0.44 -2,1.36 -0.47,0.92 -0.72,2.22 -0.72,3.91 0,1.64 0.22,2.89 0.69,3.81 0.47,0.91 1.11,1.36 1.95,1.36z"/>
  <path id="_16" class="fil2" d="M507.03 51.45l-0.05 5.47c0.97,-1.05 2.08,-1.58 3.27,-1.58 1.48,0 2.59,0.58 3.28,1.72 0.47,0.75 0.72,1.89 0.72,3.44l0 4.44c0,1.2 0.03,1.95 0.11,2.2 0.06,0.28 0.23,0.41 0.53,0.41l0.25 0c0.08,-0.02 0.2,-0.02 0.31,-0.02 0.5,0 0.75,0.3 0.75,0.94 0,0.64 -0.31,0.94 -0.89,0.94 -0.22,0 -0.53,-0.02 -0.92,-0.11 -0.47,-0.08 -0.97,-0.13 -1.44,-0.13 -0.08,0 -0.39,0.02 -0.89,0.08 -0.47,0.11 -0.72,0.16 -0.81,0.16 -0.58,0 -0.86,-0.3 -0.86,-0.94 0,-0.64 0.25,-0.94 0.75,-0.94 0.14,0 0.23,0 0.31,0.02l0.25 0c0.3,0 0.47,-0.13 0.55,-0.41 0.06,-0.25 0.09,-1 0.09,-2.2l0 -4.05c0,-2.44 -0.81,-3.66 -2.39,-3.66 -1.19,0 -1.97,0.52 -2.39,1.61 -0.36,0.91 -0.53,1.94 -0.53,3.05l0 0.39 0.03 1.47 0 1.19c0,1.2 0.03,1.95 0.11,2.2 0.06,0.28 0.23,0.41 0.53,0.41l0.25 0c0.08,-0.02 0.17,-0.02 0.31,-0.02 0.5,0 0.75,0.3 0.75,0.94 0,0.64 -0.31,0.94 -0.89,0.94 -0.14,0 -0.47,-0.05 -0.97,-0.16 -0.37,-0.03 -0.7,-0.06 -0.95,-0.06 -0.25,0 -0.58,0.03 -1.05,0.11 -0.48,0.09 -0.84,0.11 -1.09,0.11 -0.58,0 -0.88,-0.3 -0.88,-0.94 0,-0.64 0.24,-0.94 0.75,-0.94 0.13,0 0.22,0 0.3,0.02l0.25 0c0.28,0 0.44,-0.13 0.5,-0.38 0.06,-0.25 0.11,-0.98 0.14,-2.23l0.03 -1.19 0 -6.8c0,-0.14 0,-0.39 -0.03,-0.81 -0.03,-0.47 -0.03,-0.89 -0.03,-1.22l-0.03 -1.44c-0.02,-0.64 -0.25,-0.95 -0.66,-0.95l-0.17 0c-0.08,0.03 -0.17,0.03 -0.28,0.03 -0.55,0 -0.83,-0.3 -0.83,-0.89 0,-0.25 0.08,-0.5 0.28,-0.69 0.16,-0.19 0.36,-0.28 0.61,-0.28 0.14,0 0.36,0.03 0.64,0.09 0.27,0.08 0.5,0.11 0.64,0.11 0.27,0 0.52,-0.03 0.75,-0.11 0.22,-0.06 0.41,-0.09 0.55,-0.09 0.31,0 0.44,0.22 0.44,0.7l0 0.05z"/>
  <path id="_17" class="fil2" d="M521.03 58.78l2.14 8.25 2.13 -8.89c0.06,-0.25 0.09,-0.39 0.09,-0.47 0,-0.25 -0.17,-0.36 -0.5,-0.36 -0.09,0 -0.14,0 -0.17,0.03 -0.11,0.02 -0.25,0.02 -0.39,0.02 -0.22,0 -0.41,-0.08 -0.58,-0.27 -0.17,-0.2 -0.25,-0.39 -0.25,-0.64 0,-0.61 0.3,-0.92 0.94,-0.92 0.25,0 0.61,0.03 1.11,0.09 0.47,0.05 0.86,0.08 1.11,0.08 0.25,0 0.59,-0.03 1.06,-0.08 0.44,-0.06 0.78,-0.09 1,-0.09 0.58,0 0.89,0.31 0.89,0.92 0,0.58 -0.31,0.89 -0.92,0.89 -0.03,0 -0.05,0 -0.14,-0.03 -0.08,0 -0.14,0 -0.16,0 -0.2,-0.03 -0.31,-0.06 -0.34,-0.06 -0.27,0 -0.5,0.28 -0.66,0.86l-0.34 1.14 -2.33 8.05c-0.8,2.73 -1.58,4.64 -2.39,5.75 -0.8,1.11 -1.83,1.67 -3.05,1.67 -0.86,0 -1.58,-0.28 -2.17,-0.86 -0.58,-0.59 -0.88,-1.31 -0.88,-2.17 0,-0.53 0.13,-0.97 0.41,-1.33 0.28,-0.36 0.64,-0.56 1.06,-0.56 0.36,0 0.66,0.14 0.91,0.39 0.22,0.25 0.34,0.59 0.34,1 0,0.5 -0.17,0.89 -0.53,1.14 0.22,0.31 0.53,0.44 0.91,0.44 0.64,0 1.25,-0.36 1.78,-1.11 0.53,-0.75 0.78,-1.61 0.78,-2.55 0,-0.22 -0.03,-0.44 -0.11,-0.69l-0.28 -0.89 -2.69 -9.05c-0.25,-0.78 -0.59,-1.17 -1.06,-1.17l-0.16 0c-0.17,0.03 -0.31,0.05 -0.42,0.05 -0.2,0 -0.39,-0.08 -0.53,-0.27 -0.17,-0.2 -0.25,-0.42 -0.25,-0.67 0,-0.58 0.31,-0.89 0.89,-0.89 0.25,0 0.61,0.06 1.08,0.14 0.47,0.08 0.86,0.14 1.11,0.14 0.25,0 0.64,-0.06 1.17,-0.14 0.5,-0.08 0.86,-0.14 1.11,-0.14 0.58,0 0.86,0.31 0.86,0.89 0,0.64 -0.28,0.97 -0.8,0.97 -0.14,0 -0.25,0 -0.37,-0.03 -0.02,-0.02 -0.11,-0.02 -0.19,-0.02 -0.28,0 -0.42,0.14 -0.42,0.39 0,0.13 0,0.22 0.03,0.3l0.17 0.75z"/>
  <path id="_18" class="fil2" d="M410.77 55.17l0.03 -0.33 0 -2.2c0,-0.8 0.31,-1.22 0.95,-1.22 0.63,0 0.94,0.42 0.94,1.22l0 2.23c0,0.3 0.03,0.5 0.11,0.58 0.06,0.08 0.22,0.14 0.47,0.14 0.31,0 0.61,0 0.86,-0.03l0.92 -0.05c0.75,0 1.11,0.33 1.11,0.99 0,0.7 -0.36,1.06 -1.11,1.06 -0.19,0 -0.5,-0.03 -0.92,-0.11 -0.41,-0.06 -0.74,-0.09 -0.94,-0.09 -0.22,0 -0.36,0.06 -0.42,0.14 -0.05,0.12 -0.08,0.36 -0.08,0.73l0 5.58c0,1.27 0.03,2.02 0.06,2.24 0.13,1.03 0.52,1.53 1.16,1.53 0.84,0 1.25,-0.97 1.25,-2.91l0 -0.28c0,-0.61 0.03,-1 0.08,-1.17 0.12,-0.41 0.39,-0.64 0.81,-0.64 0.64,0 0.94,0.56 0.94,1.67 0,0.42 -0.02,1 -0.11,1.78 -0.22,2.36 -1.25,3.55 -3.11,3.55 -1.44,0 -2.36,-0.67 -2.72,-1.97 -0.16,-0.58 -0.25,-1.56 -0.25,-2.92l0 -6.6c0,-0.42 -0.11,-0.61 -0.33,-0.61 -0.03,0 -0.11,0.02 -0.31,0.05 -0.02,0 -0.05,0 -0.13,0 -0.09,0.03 -0.14,0.03 -0.17,0.03 -0.56,0 -0.83,-0.36 -0.83,-1.06 0,-0.63 0.27,-0.97 0.83,-0.97 0.08,0 0.17,0 0.3,0.03 0.14,0.03 0.23,0.03 0.31,0.03 0.19,0 0.28,-0.14 0.3,-0.42z"/>
  <path id="_19" class="fil2" d="M543.32 53.12c0,-0.22 0.09,-0.48 0.25,-0.73 -0.25,-0.27 -0.52,-0.41 -0.8,-0.41 -0.47,0 -0.89,0.25 -1.2,0.72 -0.33,0.5 -0.5,1.14 -0.5,1.89 0,0.5 0.03,0.78 0.11,0.86 0.09,0.08 0.2,0.14 0.34,0.14 0.11,0 0.28,-0.03 0.53,-0.06 0.22,-0.02 0.38,-0.05 0.49,-0.05 0.67,0 1.01,0.33 1.01,1.02 0,0.64 -0.39,0.98 -1.2,0.98 -0.17,0 -0.28,0 -0.36,-0.03 -0.31,-0.03 -0.44,-0.06 -0.44,-0.06 -0.31,0 -0.48,0.34 -0.5,1l-0.03 0.61 0 6.11c0,1.14 0.03,1.83 0.11,2.08 0.08,0.25 0.28,0.39 0.58,0.39l0.25 0c0.34,-0.03 0.53,-0.05 0.56,-0.05 0.58,0 0.86,0.3 0.86,0.91 0,0.64 -0.31,0.97 -0.89,0.97 -0.14,0 -0.5,-0.05 -1.05,-0.13 -0.34,-0.06 -0.84,-0.09 -1.5,-0.09 -0.23,0 -0.56,0.03 -0.98,0.11 -0.41,0.09 -0.75,0.11 -0.94,0.11 -0.58,0 -0.86,-0.3 -0.86,-0.94 0,-0.64 0.25,-0.94 0.78,-0.94 0.11,0 0.22,0 0.3,0.02l0.25 0c0.31,0 0.47,-0.13 0.56,-0.41 0.05,-0.25 0.08,-1 0.08,-2.2l0 -6.46c0,-0.67 -0.11,-1 -0.36,-1 -0.14,0 -0.22,0 -0.31,0.02 -0.08,0.03 -0.16,0.03 -0.27,0.03 -0.73,0 -1.09,-0.33 -1.09,-1 0,-0.72 0.36,-1.08 1.11,-1.08 0.09,0 0.2,0 0.34,0.03 0.14,0.03 0.25,0.03 0.33,0.03 0.25,0 0.36,-0.14 0.36,-0.45 0,-1.19 0.14,-2.14 0.42,-2.83 0.25,-0.58 0.64,-1.08 1.19,-1.44 0.53,-0.37 1.14,-0.56 1.83,-0.56 0.81,0 1.53,0.25 2.11,0.75 0.59,0.5 0.89,1.11 0.89,1.8 0,0.42 -0.11,0.78 -0.33,1.09 -0.25,0.3 -0.53,0.44 -0.89,0.44 -0.3,0 -0.58,-0.11 -0.8,-0.36 -0.23,-0.22 -0.34,-0.5 -0.34,-0.83z"/>
  <path id="_20" class="fil2" d="M549.85 69.64c-1.53,0 -2.72,-0.64 -3.61,-1.95 -0.89,-1.27 -1.34,-3 -1.34,-5.19 0,-2.19 0.45,-3.91 1.34,-5.22 0.89,-1.3 2.08,-1.94 3.61,-1.94 1.52,0 2.72,0.64 3.61,1.94 0.89,1.31 1.33,3.03 1.33,5.22 0,2.19 -0.44,3.92 -1.33,5.19 -0.89,1.31 -2.09,1.95 -3.61,1.95zm0 -12.44c-0.92,0 -1.64,0.47 -2.17,1.44 -0.53,0.97 -0.8,2.28 -0.8,3.86 0,1.58 0.27,2.86 0.8,3.83 0.53,0.97 1.25,1.45 2.17,1.45 0.91,0 1.64,-0.48 2.19,-1.45 0.53,-0.97 0.81,-2.25 0.81,-3.83 0,-1.58 -0.28,-2.89 -0.81,-3.86 -0.55,-0.97 -1.28,-1.44 -2.19,-1.44z"/>
  <path id="_21" class="fil2" d="M560.17 56.31c0,0 0,0.11 0,0.36 0.75,-0.89 1.64,-1.33 2.64,-1.33 0.97,0 1.78,0.33 2.39,1.03 0.61,0.69 0.92,1.61 0.92,2.69 0,0.8 -0.17,1.47 -0.48,2 -0.33,0.53 -0.75,0.78 -1.24,0.78 -0.39,0 -0.73,-0.14 -0.98,-0.39 -0.25,-0.25 -0.39,-0.59 -0.39,-0.98 0,-0.74 0.42,-1.16 1.23,-1.27 0.02,-0.14 0.02,-0.28 0.02,-0.47 0,-0.45 -0.14,-0.84 -0.44,-1.17 -0.31,-0.31 -0.69,-0.47 -1.11,-0.47 -1.58,0 -2.36,1.55 -2.36,4.69l0 2.28c0,1.58 0.03,2.58 0.11,2.94 0.08,0.39 0.25,0.58 0.56,0.58 0.08,0 0.25,-0.03 0.5,-0.05 0.13,-0.03 0.3,-0.06 0.52,-0.06 0.56,0 0.84,0.31 0.84,0.92 0,0.69 -0.31,1.02 -0.92,1.02 -0.19,0 -0.61,-0.05 -1.22,-0.16 -0.42,-0.03 -0.81,-0.06 -1.17,-0.06 -0.28,0 -0.66,0.03 -1.14,0.11 -0.47,0.09 -0.8,0.11 -1,0.11 -0.58,0 -0.88,-0.3 -0.88,-0.94 0,-0.64 0.25,-0.94 0.77,-0.94 0.11,0 0.23,0 0.31,0.02l0.25 0c0.3,0 0.47,-0.13 0.55,-0.41 0.06,-0.25 0.09,-1 0.09,-2.2l0 -4.88c0,-1.17 -0.03,-1.92 -0.11,-2.22 -0.09,-0.31 -0.28,-0.48 -0.59,-0.48 -0.02,0 -0.02,0 -0.05,0 -0.03,0.03 -0.03,0.03 -0.06,0.03 -0.08,0 -0.16,0 -0.25,0 -0.11,0.03 -0.16,0.03 -0.19,0.03 -0.5,0 -0.75,-0.3 -0.75,-0.89 0,-0.28 0.08,-0.53 0.25,-0.72 0.16,-0.19 0.36,-0.28 0.61,-0.28 0.14,0 0.39,0.03 0.69,0.09 0.31,0.05 0.56,0.08 0.72,0.08 0.17,0 0.45,-0.06 0.87,-0.14 0.08,-0.03 0.16,-0.03 0.22,-0.03 0.16,0 0.25,0.25 0.27,0.78z"/>
  <path id="_22" class="fil2" d="M577.78 59l1.58 7.86 1.69 -9.86c0.17,-0.97 0.61,-1.47 1.36,-1.47 0.42,0 0.73,0.11 0.92,0.31 0.19,0.19 0.33,0.58 0.44,1.16l1.95 9.86 1.33 -7.66c0.08,-0.53 0.14,-0.95 0.14,-1.22 0,-0.42 -0.2,-0.62 -0.58,-0.62l-0.06 0c-0.08,0 -0.19,0 -0.39,0.03 -0.47,0 -0.72,-0.3 -0.72,-0.91 0,-0.64 0.25,-0.95 0.78,-0.95 0.25,0 0.58,0.06 1.05,0.14 0.47,0.08 0.84,0.14 1.09,0.14 0.24,0 0.61,-0.06 1.05,-0.14 0.44,-0.08 0.78,-0.14 1,-0.14 0.53,0 0.78,0.31 0.78,0.92 0,0.58 -0.34,0.89 -1.03,0.89 -0.36,0 -0.61,0.19 -0.81,0.58 -0.19,0.39 -0.41,1.14 -0.63,2.28l-1.53 7.91c-0.2,1.03 -0.7,1.53 -1.47,1.53 -0.75,0 -1.22,-0.59 -1.47,-1.78l-1.84 -8.86 -1.75 9.11c-0.19,1.03 -0.66,1.53 -1.38,1.53 -0.7,0 -1.14,-0.5 -1.39,-1.53l-2.22 -9.38c-0.14,-0.53 -0.23,-0.84 -0.28,-0.92 -0.14,-0.31 -0.39,-0.47 -0.69,-0.47l-0.09 0 -0.39 0.02c-0.19,0.03 -0.36,-0.08 -0.5,-0.3 -0.14,-0.19 -0.22,-0.42 -0.22,-0.61 0,-0.61 0.31,-0.92 0.89,-0.92 0.11,0 0.42,0.06 0.94,0.14 0.28,0.08 0.61,0.11 1,0.11 0.25,0 0.64,-0.05 1.14,-0.14 0.47,-0.08 0.86,-0.11 1.11,-0.11 0.53,0 0.81,0.31 0.81,0.89 0,0.64 -0.28,0.94 -0.84,0.94l-0.36 0c-0.36,0 -0.55,0.2 -0.55,0.62 0,0.22 0.05,0.55 0.14,1.02z"/>
  <path id="_23" class="fil2" d="M601.54 61.33c0,0.7 -0.05,1.12 -0.14,1.25 -0.08,0.17 -0.33,0.25 -0.75,0.25l-5.52 0c-0.44,0 -0.72,0.03 -0.83,0.12 -0.11,0.08 -0.17,0.3 -0.17,0.66 0,1.22 0.25,2.22 0.78,2.97 0.52,0.75 1.19,1.14 2.05,1.14 0.53,0 1.03,-0.17 1.45,-0.53 0.41,-0.36 0.72,-0.8 0.86,-1.36l0.25 -0.94c0.14,-0.53 0.44,-0.78 0.97,-0.78 0.58,0 0.89,0.34 0.89,1 0,1.2 -0.45,2.25 -1.34,3.17 -0.91,0.91 -1.94,1.36 -3.13,1.36 -1.48,0 -2.64,-0.64 -3.5,-1.92 -0.86,-1.25 -1.31,-2.97 -1.31,-5.11 0,-2.14 0.48,-3.88 1.39,-5.25 0.92,-1.36 2.14,-2.02 3.61,-2.02 1.31,0 2.39,0.55 3.22,1.66 0.81,1.14 1.22,2.59 1.22,4.33zm-7.27 -0.83c0,0.34 0.25,0.5 0.72,0.5l3.5 0c0.44,0 0.72,-0.03 0.83,-0.11 0.11,-0.08 0.17,-0.25 0.17,-0.55 0,-0.89 -0.25,-1.64 -0.72,-2.23 -0.48,-0.58 -1.09,-0.88 -1.78,-0.88 -1.08,0 -1.89,0.61 -2.36,1.83 -0.19,0.47 -0.3,0.86 -0.33,1.19 -0.03,0.09 -0.03,0.17 -0.03,0.25z"/>
  <path id="_24" class="fil2" d="M606.43 51.84l-0.11 4.86c0.78,-0.92 1.72,-1.36 2.8,-1.36 1.39,0 2.5,0.64 3.33,1.94 0.81,1.31 1.23,3.03 1.23,5.22 0,2.11 -0.45,3.83 -1.31,5.14 -0.86,1.33 -2,2 -3.36,2 -1.08,0 -1.94,-0.5 -2.64,-1.48l0 0.42c0,0.7 -0.3,1.06 -0.91,1.06 -0.64,0 -0.95,-0.36 -0.95,-1.09 0,-0.47 0,-0.69 0,-0.69l0.03 -0.78 -0.08 -13.38c-0.03,-0.53 -0.08,-0.83 -0.14,-0.97 -0.08,-0.14 -0.22,-0.2 -0.47,-0.2l-0.2 0c-0.44,0 -0.66,-0.27 -0.66,-0.83 0,-0.67 0.28,-1 0.83,-1 0.17,0 0.33,0.03 0.5,0.09 0.42,0.08 0.61,0.11 0.64,0.11 0.05,0 0.25,-0.03 0.58,-0.11 0.17,-0.06 0.31,-0.09 0.45,-0.09 0.3,0 0.47,0.22 0.47,0.64 0,0.03 0,0.11 0,0.22 -0.03,0.11 -0.03,0.2 -0.03,0.28zm2.55 5.39c-1.74,0 -2.63,1.72 -2.63,5.13 0,3.58 0.86,5.36 2.55,5.36 0.86,0 1.53,-0.47 2.06,-1.44 0.52,-0.97 0.77,-2.22 0.77,-3.78 0,-1.61 -0.25,-2.89 -0.72,-3.86 -0.5,-0.94 -1.17,-1.41 -2.03,-1.41z"/>
  <path id="_25" class="fil2" d="M396.17 97.26c-0.25,0 -0.53,0 -0.83,0.03 -0.31,0.03 -0.59,0.08 -0.83,0.11 -0.28,0.03 -0.53,0.03 -0.75,0.06 -0.23,0.02 -0.39,0.02 -0.5,0.02 -0.31,0 -0.53,-0.08 -0.62,-0.25 -0.11,-0.16 -0.16,-0.41 -0.16,-0.72 0,-0.61 0.25,-0.91 0.78,-0.91 0.08,0 0.25,0 0.44,0.02 0.19,0.03 0.36,0.03 0.56,0.03 0.33,0 0.58,-0.14 0.72,-0.39 0.14,-0.25 0.19,-0.72 0.19,-1.36l0 -7.19c0,-0.33 -0.03,-0.61 -0.05,-0.8 -0.03,-0.2 -0.11,-0.37 -0.2,-0.48 -0.08,-0.08 -0.22,-0.16 -0.41,-0.19 -0.2,-0.03 -0.45,-0.03 -0.75,-0.03 -0.25,0 -0.45,0 -0.59,0.03 -0.16,0.03 -0.27,0.11 -0.36,0.19 -0.08,0.11 -0.14,0.28 -0.17,0.48 -0.02,0.19 -0.05,0.47 -0.05,0.8 0,0.08 0,0.22 0.03,0.36 0,0.17 0,0.34 0.02,0.5 0,0.2 0,0.36 0.03,0.53 0,0.17 0,0.28 0,0.36 0,0.31 -0.08,0.56 -0.25,0.72 -0.16,0.17 -0.39,0.25 -0.64,0.25 -0.19,0 -0.38,-0.08 -0.55,-0.25 -0.19,-0.14 -0.28,-0.39 -0.28,-0.72 0,-0.19 0,-0.47 0.03,-0.81 0.03,-0.3 0.03,-0.58 0.03,-0.77 0,-0.53 -0.03,-1 -0.09,-1.36 -0.05,-0.36 -0.08,-0.67 -0.08,-0.95 0,-0.63 0.31,-0.94 0.89,-0.94 0.11,0 0.22,0 0.36,0.03 0.14,0.02 0.33,0.05 0.64,0.08 0.28,0.03 0.66,0.06 1.19,0.08 0.5,0.03 1.17,0.03 2.03,0.03l0.33 0c0.86,0 1.53,0 2.06,-0.03 0.5,-0.02 0.89,-0.05 1.19,-0.08 0.28,-0.03 0.47,-0.06 0.61,-0.08 0.14,-0.03 0.25,-0.03 0.36,-0.03 0.59,0 0.89,0.31 0.89,0.94 0,0.28 -0.03,0.59 -0.08,0.95 -0.06,0.36 -0.09,0.83 -0.09,1.36 0,0.19 0,0.47 0.03,0.77 0.03,0.34 0.03,0.62 0.03,0.81 0,0.33 -0.08,0.58 -0.25,0.72 -0.19,0.17 -0.39,0.25 -0.58,0.25 -0.25,0 -0.47,-0.08 -0.64,-0.25 -0.17,-0.16 -0.25,-0.41 -0.25,-0.72 0,-0.08 0,-0.19 0.03,-0.36 0,-0.17 0,-0.33 0.02,-0.53 0,-0.16 0,-0.33 0.03,-0.5 0,-0.14 0,-0.28 0,-0.36 0,-0.33 0,-0.61 -0.03,-0.8 -0.02,-0.2 -0.08,-0.37 -0.16,-0.48 -0.09,-0.08 -0.22,-0.16 -0.36,-0.19 -0.17,-0.03 -0.36,-0.03 -0.61,-0.03 -0.31,0 -0.56,0 -0.75,0.03 -0.2,0.03 -0.34,0.11 -0.42,0.19 -0.08,0.11 -0.17,0.28 -0.19,0.48 -0.03,0.19 -0.06,0.47 -0.06,0.8l0 7.19c0,0.64 0.08,1.11 0.22,1.36 0.14,0.25 0.36,0.39 0.7,0.39 0.19,0 0.38,0 0.58,-0.03 0.19,-0.02 0.33,-0.02 0.42,-0.02 0.52,0 0.77,0.3 0.77,0.91 0,0.31 -0.05,0.56 -0.14,0.72 -0.11,0.17 -0.33,0.25 -0.63,0.25 -0.09,0 -0.23,0 -0.42,-0.02 -0.2,-0.03 -0.39,-0.03 -0.64,-0.06 -0.25,-0.03 -0.5,-0.06 -0.75,-0.08 -0.25,-0.03 -0.5,-0.03 -0.75,-0.06l-0.25 0z"/>
  <path id="_26" class="fil2" d="M311.57 89.4c0,0.7 -0.05,1.11 -0.14,1.25 -0.08,0.17 -0.33,0.25 -0.75,0.25l-5.52 0c-0.44,0 -0.72,0.03 -0.83,0.11 -0.11,0.09 -0.17,0.31 -0.17,0.67 0,1.22 0.25,2.22 0.78,2.97 0.53,0.75 1.19,1.14 2.05,1.14 0.53,0 1.03,-0.17 1.45,-0.53 0.41,-0.36 0.72,-0.8 0.86,-1.36l0.25 -0.94c0.14,-0.53 0.44,-0.78 0.97,-0.78 0.58,0 0.89,0.33 0.89,1 0,1.19 -0.45,2.25 -1.34,3.17 -0.91,0.91 -1.94,1.36 -3.13,1.36 -1.47,0 -2.64,-0.64 -3.5,-1.92 -0.86,-1.25 -1.31,-2.97 -1.31,-5.11 0,-2.14 0.48,-3.89 1.39,-5.25 0.92,-1.36 2.14,-2.02 3.61,-2.02 1.31,0 2.39,0.55 3.22,1.66 0.81,1.14 1.22,2.58 1.22,4.33zm-7.27 -0.83c0,0.33 0.25,0.5 0.72,0.5l3.5 0c0.44,0 0.72,-0.03 0.83,-0.11 0.11,-0.08 0.17,-0.25 0.17,-0.56 0,-0.88 -0.25,-1.63 -0.72,-2.22 -0.47,-0.58 -1.09,-0.88 -1.78,-0.88 -1.08,0 -1.89,0.61 -2.36,1.83 -0.19,0.47 -0.3,0.86 -0.33,1.19 -0.03,0.08 -0.03,0.17 -0.03,0.25z"/>
  <path id="_27" class="fil2" d="M324.87 93.01c0,0.59 0,1.09 0.03,1.45 0,0.36 0.03,0.66 0.08,0.86 0.03,0.19 0.11,0.33 0.2,0.41 0.08,0.09 0.22,0.11 0.39,0.11 0.22,0 0.39,-0.02 0.5,-0.05 0.08,-0.03 0.22,-0.06 0.41,-0.06 0.36,0 0.64,0.09 0.84,0.28 0.19,0.2 0.27,0.47 0.27,0.78 0,0.08 0,0.25 -0.02,0.44 -0.03,0.2 -0.03,0.42 -0.06,0.67 -0.03,0.22 -0.06,0.44 -0.08,0.64 -0.03,0.19 -0.03,0.36 -0.03,0.44 0,0.22 0.03,0.47 0.05,0.75 0.03,0.28 0.03,0.56 0.03,0.84 0,0.25 -0.08,0.47 -0.22,0.61 -0.17,0.13 -0.36,0.22 -0.61,0.22 -0.58,0 -0.86,-0.31 -0.86,-0.95 0,-0.16 0.03,-0.41 0.08,-0.74 0.03,-0.34 0.06,-0.59 0.06,-0.73 0,-0.66 -0.09,-1.11 -0.25,-1.36 -0.2,-0.25 -0.64,-0.36 -1.36,-0.36l-8.44 0c-0.72,0 -1.17,0.11 -1.34,0.36 -0.19,0.25 -0.27,0.7 -0.27,1.36 0,0.14 0.02,0.39 0.08,0.73 0.03,0.33 0.06,0.58 0.06,0.74 0,0.64 -0.28,0.95 -0.87,0.95 -0.24,0 -0.44,-0.09 -0.58,-0.22 -0.17,-0.14 -0.25,-0.36 -0.25,-0.61 0,-0.28 0.03,-0.56 0.06,-0.84 0.02,-0.28 0.02,-0.53 0.02,-0.75 0,-0.08 0,-0.25 -0.02,-0.44 -0.03,-0.2 -0.03,-0.42 -0.06,-0.64 -0.03,-0.25 -0.05,-0.47 -0.08,-0.67 -0.03,-0.19 -0.03,-0.36 -0.03,-0.44 0,-0.31 0.08,-0.58 0.28,-0.78 0.19,-0.19 0.47,-0.28 0.83,-0.28 0.2,0 0.33,0.03 0.45,0.06 0.08,0.03 0.25,0.05 0.47,0.05 0.36,0 0.66,-0.13 0.91,-0.44 0.23,-0.3 0.42,-0.58 0.56,-0.89 0.22,-0.41 0.42,-0.86 0.55,-1.33 0.14,-0.47 0.25,-1.05 0.34,-1.72 0.08,-0.67 0.16,-1.47 0.19,-2.39 0.03,-0.92 0.06,-2 0.06,-3.28 0,-0.13 -0.06,-0.25 -0.17,-0.27 -0.11,-0.03 -0.25,-0.06 -0.39,-0.06 -0.08,0 -0.19,0 -0.3,0 -0.11,0.03 -0.2,0.03 -0.25,0.03 -0.53,0 -0.78,-0.31 -0.78,-0.94 0,-0.64 0.28,-0.95 0.86,-0.95 0.03,0 0.25,0.03 0.61,0.11 0.36,0.09 0.83,0.11 1.36,0.11l5.83 0c0.53,0 1,-0.02 1.36,-0.11 0.36,-0.08 0.59,-0.11 0.61,-0.11 0.59,0 0.86,0.31 0.86,0.95 0,0.63 -0.25,0.94 -0.77,0.94 -0.06,0 -0.14,0 -0.25,-0.03 -0.11,0 -0.23,0 -0.31,0 -0.14,0 -0.25,0.03 -0.33,0.06 -0.09,0.05 -0.17,0.16 -0.2,0.33 -0.05,0.2 -0.08,0.44 -0.08,0.81 -0.03,0.36 -0.03,0.83 -0.03,1.41l0 4.94zm-2.47 2.5c0.31,0 0.47,-0.16 0.53,-0.5 0.05,-0.33 0.08,-1 0.08,-2l0 -4.94c0,-1 -0.03,-1.66 -0.08,-2 -0.06,-0.33 -0.22,-0.5 -0.53,-0.5l-2.86 0c-0.22,0 -0.33,0.14 -0.33,0.42 0,1.75 -0.06,3.41 -0.2,5.02 -0.13,1.61 -0.47,3 -0.94,4.17 0,0.14 0.06,0.25 0.14,0.28 0.08,0.02 0.17,0.05 0.25,0.05l3.94 0z"/>
  <path id="_28" class="fil2" d="M336.87 85.46c-0.09,0 -0.2,0 -0.31,0 -0.11,0.03 -0.19,0.03 -0.25,0.03 -0.53,0 -0.78,-0.31 -0.78,-0.94 0,-0.64 0.28,-0.95 0.87,-0.95 0.02,0 0.24,0.03 0.61,0.11 0.36,0.09 0.83,0.11 1.36,0.11 0.19,0 0.38,0 0.63,-0.02 0.23,-0.03 0.45,-0.06 0.64,-0.09 0.2,-0.03 0.39,-0.05 0.53,-0.08 0.14,-0.03 0.25,-0.03 0.28,-0.03 0.58,0 0.86,0.31 0.86,0.95 0,0.63 -0.25,0.94 -0.75,0.94 -0.08,0 -0.17,0 -0.25,-0.03 -0.11,0 -0.22,0 -0.31,0 -0.13,0 -0.27,0.03 -0.36,0.06 -0.08,0.05 -0.16,0.16 -0.19,0.33 -0.03,0.17 -0.06,0.42 -0.06,0.78 -0.02,0.36 -0.02,0.83 -0.02,1.44l0 4.94c0,0.61 0,1.09 0.02,1.45 0,0.36 0.03,0.61 0.06,0.77 0.03,0.17 0.11,0.28 0.19,0.31 0.09,0.06 0.23,0.08 0.36,0.08 0.09,0 0.2,0 0.31,-0.02 0.08,0 0.17,0 0.25,0 0.5,0 0.75,0.3 0.75,0.94 0,0.64 -0.28,0.94 -0.86,0.94 -0.03,0 -0.14,0 -0.28,-0.02 -0.14,-0.03 -0.33,-0.03 -0.53,-0.06 -0.19,-0.03 -0.41,-0.08 -0.64,-0.11 -0.25,-0.03 -0.44,-0.03 -0.63,-0.03 -0.53,0 -1,0.03 -1.36,0.11 -0.37,0.09 -0.59,0.11 -0.61,0.11 -0.59,0 -0.87,-0.3 -0.87,-0.94 0,-0.64 0.25,-0.94 0.78,-0.94 0.06,0 0.14,0 0.25,0 0.11,0.02 0.22,0.02 0.31,0.02 0.14,0 0.27,-0.02 0.36,-0.08 0.08,-0.03 0.14,-0.14 0.19,-0.33 0.03,-0.17 0.06,-0.42 0.09,-0.78 0,-0.36 0,-0.83 0,-1.42l0 -4.24 -5.03 5.88c-0.14,0.2 -0.22,0.36 -0.22,0.53 0,0.3 0.16,0.44 0.53,0.44 0.08,0 0.19,0 0.3,-0.02 0.08,0 0.17,0 0.25,0 0.5,0 0.75,0.3 0.75,0.94 0,0.64 -0.28,0.94 -0.86,0.94 -0.03,0 -0.14,0 -0.28,-0.02 -0.14,-0.03 -0.33,-0.03 -0.53,-0.06 -0.19,-0.03 -0.41,-0.08 -0.63,-0.11 -0.25,-0.03 -0.45,-0.03 -0.64,-0.03 -0.53,0 -1,0.03 -1.36,0.11 -0.36,0.09 -0.59,0.11 -0.61,0.11 -0.59,0 -0.86,-0.3 -0.86,-0.94 0,-0.64 0.24,-0.94 0.77,-0.94 0.06,0 0.14,0 0.25,0 0.11,0.02 0.23,0.02 0.31,0.02 0.14,0 0.28,-0.02 0.36,-0.08 0.08,-0.03 0.14,-0.14 0.19,-0.33 0.03,-0.17 0.06,-0.42 0.09,-0.78 0,-0.36 0,-0.83 0,-1.42l0 -4.94c0,-0.58 0,-1.05 0,-1.41 -0.03,-0.37 -0.06,-0.61 -0.09,-0.81 -0.05,-0.17 -0.11,-0.28 -0.19,-0.33 -0.08,-0.03 -0.22,-0.06 -0.36,-0.06 -0.08,0 -0.2,0 -0.31,0 -0.11,0.03 -0.19,0.03 -0.25,0.03 -0.53,0 -0.77,-0.31 -0.77,-0.94 0,-0.64 0.27,-0.95 0.86,-0.95 0.02,0 0.25,0.03 0.61,0.11 0.36,0.09 0.83,0.11 1.36,0.11 0.19,0 0.39,0 0.64,-0.02 0.22,-0.03 0.44,-0.06 0.63,-0.09 0.2,-0.03 0.39,-0.05 0.53,-0.08 0.14,-0.03 0.25,-0.03 0.28,-0.03 0.58,0 0.86,0.31 0.86,0.95 0,0.63 -0.25,0.94 -0.75,0.94 -0.08,0 -0.17,0 -0.25,-0.03 -0.11,0 -0.22,0 -0.3,0 -0.14,0 -0.28,0.03 -0.37,0.06 -0.08,0.05 -0.16,0.16 -0.19,0.33 -0.03,0.17 -0.06,0.42 -0.06,0.78 -0.02,0.36 -0.02,0.83 -0.02,1.44l0 4.3 5.05 -5.91c0.14,-0.19 0.22,-0.36 0.22,-0.53 0,-0.14 -0.05,-0.25 -0.14,-0.33 -0.08,-0.08 -0.22,-0.14 -0.41,-0.14z"/>
  <path id="_29" class="fil2" d="M352 91.9c0,-0.19 -0.06,-0.33 -0.17,-0.41 -0.11,-0.09 -0.3,-0.11 -0.61,-0.11l-4.02 0c-0.2,0 -0.34,0.05 -0.42,0.19 -0.08,0.14 -0.14,0.39 -0.14,0.75l0 0.69c0,0.59 0,1.06 0.03,1.42 0,0.36 0.03,0.61 0.08,0.78 0.03,0.19 0.11,0.3 0.19,0.33 0.09,0.06 0.2,0.08 0.34,0.08 0.08,0 0.19,0 0.3,-0.02 0.11,0 0.2,0 0.25,0 0.53,0 0.78,0.3 0.78,0.94 0,0.64 -0.28,0.94 -0.86,0.94 -0.03,0 -0.25,-0.02 -0.61,-0.11 -0.36,-0.08 -0.83,-0.11 -1.36,-0.11 -0.2,0 -0.42,0 -0.64,0.03 -0.22,0.03 -0.44,0.08 -0.64,0.11 -0.19,0.03 -0.39,0.03 -0.53,0.06 -0.13,0.02 -0.25,0.02 -0.27,0.02 -0.59,0 -0.86,-0.3 -0.86,-0.94 0,-0.64 0.25,-0.94 0.75,-0.94 0.08,0 0.16,0 0.27,0 0.09,0.02 0.2,0.02 0.28,0.02 0.14,0 0.28,-0.02 0.36,-0.08 0.09,-0.03 0.14,-0.14 0.2,-0.31 0.02,-0.16 0.05,-0.41 0.08,-0.77 0,-0.36 0,-0.84 0,-1.45l0 -4.94c0,-0.58 0,-1.05 0,-1.41 -0.03,-0.37 -0.06,-0.61 -0.08,-0.81 -0.06,-0.17 -0.11,-0.28 -0.2,-0.33 -0.08,-0.03 -0.22,-0.06 -0.36,-0.06 -0.08,0 -0.19,0 -0.3,0 -0.12,0.03 -0.2,0.03 -0.25,0.03 -0.53,0 -0.78,-0.31 -0.78,-0.94 0,-0.64 0.28,-0.95 0.86,-0.95 0.03,0 0.25,0.03 0.61,0.11 0.36,0.09 0.83,0.11 1.36,0.11 0.19,0 0.39,0 0.64,-0.02 0.22,-0.03 0.44,-0.06 0.64,-0.09 0.19,-0.03 0.39,-0.05 0.53,-0.08 0.13,-0.03 0.24,-0.03 0.27,-0.03 0.59,0 0.86,0.31 0.86,0.95 0,0.63 -0.25,0.94 -0.75,0.94 -0.08,0 -0.16,0 -0.25,-0.03 -0.11,0 -0.22,0 -0.3,0 -0.14,0 -0.28,0.03 -0.36,0.06 -0.09,0.05 -0.17,0.16 -0.2,0.33 -0.02,0.17 -0.05,0.42 -0.05,0.78 -0.03,0.36 -0.03,0.83 -0.03,1.44l0 0.45c0,0.47 0.06,0.77 0.19,0.91 0.11,0.14 0.37,0.2 0.78,0.2l3.64 0c0.25,0 0.41,-0.06 0.55,-0.14 0.11,-0.09 0.17,-0.34 0.2,-0.7l0 -0.72c0,-0.61 0,-1.08 0,-1.44 -0.03,-0.36 -0.06,-0.61 -0.09,-0.78 -0.05,-0.17 -0.11,-0.28 -0.19,-0.33 -0.08,-0.03 -0.22,-0.06 -0.36,-0.06 -0.08,0 -0.19,0 -0.28,0 -0.11,0.03 -0.19,0.03 -0.28,0.03 -0.5,0 -0.74,-0.31 -0.74,-0.94 0,-0.64 0.27,-0.95 0.86,-0.95 0.02,0 0.13,0 0.27,0.03 0.14,0.03 0.34,0.05 0.53,0.08 0.19,0.03 0.42,0.06 0.64,0.09 0.22,0.02 0.44,0.02 0.64,0.02 0.53,0 1,-0.02 1.36,-0.11 0.36,-0.08 0.58,-0.11 0.61,-0.11 0.58,0 0.86,0.31 0.86,0.95 0,0.63 -0.25,0.94 -0.78,0.94 -0.05,0 -0.14,0 -0.25,-0.03 -0.11,0 -0.22,0 -0.3,0 -0.14,0 -0.25,0.03 -0.34,0.06 -0.08,0.05 -0.16,0.16 -0.19,0.33 -0.06,0.2 -0.08,0.44 -0.08,0.81 -0.03,0.36 -0.03,0.83 -0.03,1.41l0 4.94c0,0.61 0,1.09 0.03,1.45 0,0.36 0.02,0.61 0.05,0.77 0.03,0.17 0.11,0.28 0.2,0.31 0.08,0.06 0.22,0.08 0.36,0.08 0.08,0 0.19,0 0.3,-0.02 0.09,0 0.17,0 0.25,0 0.5,0 0.75,0.3 0.75,0.94 0,0.64 -0.28,0.94 -0.86,0.94 -0.03,0 -0.14,0 -0.28,-0.02 -0.14,-0.03 -0.33,-0.03 -0.52,-0.06 -0.2,-0.03 -0.42,-0.08 -0.64,-0.11 -0.25,-0.03 -0.45,-0.03 -0.64,-0.03 -0.53,0 -1,0.03 -1.36,0.11 -0.36,0.09 -0.58,0.11 -0.61,0.11 -0.59,0 -0.86,-0.3 -0.86,-0.94 0,-0.64 0.25,-0.94 0.77,-0.94 0.06,0 0.14,0 0.25,0 0.12,0.02 0.23,0.02 0.31,0.02 0.14,0 0.28,-0.02 0.36,-0.08 0.08,-0.03 0.14,-0.14 0.19,-0.33 0.03,-0.17 0.06,-0.42 0.09,-0.78 0,-0.36 0,-0.83 0,-1.42l0 -1.11z"/>
  <path id="_30" class="fil2" d="M366.38 97.71c-1.05,0 -1.72,-0.56 -2.03,-1.67 -0.8,1.11 -1.86,1.67 -3.19,1.67 -1.08,0 -1.94,-0.39 -2.64,-1.14 -0.69,-0.75 -1.05,-1.72 -1.05,-2.92 0,-1.52 0.47,-2.58 1.41,-3.22 0.67,-0.44 1.7,-0.75 3.09,-0.94 0.8,-0.11 1.33,-0.34 1.63,-0.64 0.31,-0.31 0.45,-0.81 0.45,-1.53 0,-1.5 -0.64,-2.25 -1.92,-2.25 -0.33,0 -0.72,0.09 -1.14,0.28 -0.47,0.22 -0.72,0.5 -0.72,0.81 0,0.08 0.06,0.22 0.17,0.41 0.22,0.36 0.33,0.7 0.33,1 0,0.81 -0.41,1.2 -1.25,1.2 -0.97,0 -1.44,-0.62 -1.44,-1.81 0,-1.03 0.39,-1.86 1.16,-2.55 0.75,-0.67 1.73,-1 2.89,-1 0.78,0 1.47,0.16 2.11,0.47 0.7,0.36 1.2,0.89 1.45,1.55 0.19,0.56 0.3,1.5 0.3,2.81l0.03 6.8c0.03,0.53 0.17,0.8 0.47,0.8 0.42,0 0.61,-0.66 0.61,-1.97 0,-0.25 0,-0.41 -0.03,-0.52l0 -0.28c0,-0.81 0.28,-1.2 0.81,-1.2 0.61,0 0.92,0.53 0.92,1.59 0,1.61 -0.17,2.72 -0.53,3.33 -0.36,0.61 -0.97,0.92 -1.89,0.92zm-2.36 -4.5c0.08,-0.42 0.11,-1.25 0.14,-2.5 -0.53,0.22 -1.03,0.39 -1.53,0.47l-1.25 0.22c-1.36,0.25 -2.02,1 -2.02,2.31 0,0.66 0.19,1.19 0.58,1.61 0.36,0.41 0.86,0.61 1.47,0.61 0.64,0 1.22,-0.25 1.69,-0.75 0.48,-0.5 0.78,-1.17 0.92,-1.97z"/>
  <path id="_31" class="fil2" d="M377.76 95.62c0.14,0 0.28,-0.02 0.37,-0.08 0.08,-0.03 0.13,-0.14 0.19,-0.31 0.03,-0.16 0.05,-0.41 0.08,-0.77 0,-0.36 0,-0.84 0,-1.45l0 -0.77c0,-0.42 -0.08,-0.73 -0.25,-0.92 -0.19,-0.17 -0.47,-0.25 -0.89,-0.25l-1.52 0c-1.2,0.11 -1.78,0.89 -1.78,2.33l0 1.39c0,0.58 -0.06,1.08 -0.17,1.44 -0.11,0.39 -0.25,0.7 -0.44,0.89 -0.2,0.22 -0.39,0.39 -0.64,0.48 -0.25,0.08 -0.53,0.11 -0.78,0.11 -0.44,0 -0.83,-0.06 -1.13,-0.2 -0.31,-0.14 -0.56,-0.39 -0.75,-0.72 -0.2,-0.33 -0.31,-0.78 -0.39,-1.31 -0.09,-0.52 -0.14,-1.22 -0.14,-2.02 0,-1.06 0.3,-1.59 0.91,-1.59 0.53,0 0.81,0.39 0.81,1.2 0,0.14 0,0.25 0,0.39 -0.03,0.14 -0.03,0.28 -0.03,0.41 0,1.31 0.2,1.97 0.58,1.97 0.2,0 0.34,-0.13 0.42,-0.44 0.08,-0.28 0.11,-0.61 0.11,-1l0 -0.91c0,-0.7 0.09,-1.31 0.25,-1.78 0.17,-0.47 0.42,-0.83 0.72,-1.11 -0.69,-0.31 -1.19,-0.78 -1.44,-1.36 -0.28,-0.59 -0.42,-1.25 -0.42,-2 0,-1.22 0.36,-2.17 1.06,-2.81 0.69,-0.63 1.64,-0.97 2.89,-0.97 0.8,0 1.52,0.03 2.22,0.09 0.69,0.08 1.22,0.11 1.61,0.11 0.36,0 0.72,-0.03 1.08,-0.11 0.33,-0.06 0.69,-0.09 1.11,-0.09 0.28,0 0.5,0.11 0.64,0.31 0.14,0.22 0.19,0.5 0.19,0.86 0,0.19 -0.05,0.39 -0.13,0.58 -0.09,0.2 -0.26,0.28 -0.45,0.28 -0.14,0 -0.22,0 -0.28,-0.03 -0.05,0 -0.11,0 -0.14,0 -0.05,0 -0.11,0 -0.13,-0.03 -0.06,0 -0.14,0 -0.25,0 -0.12,0 -0.2,0.03 -0.28,0.06 -0.09,0.03 -0.14,0.14 -0.17,0.33 -0.05,0.2 -0.08,0.47 -0.11,0.84 -0.03,0.36 -0.03,0.88 -0.03,1.55l0 4.8c0,0.59 0,1.06 0.03,1.42 0,0.36 0.03,0.61 0.08,0.78 0.03,0.19 0.11,0.3 0.2,0.33 0.08,0.06 0.19,0.08 0.33,0.08 0.08,0 0.2,0 0.31,-0.02 0.11,0 0.19,0 0.25,0 0.52,0 0.77,0.3 0.77,0.94 0,0.64 -0.27,0.94 -0.86,0.94 -0.02,0 -0.25,-0.02 -0.61,-0.11 -0.36,-0.08 -0.83,-0.11 -1.36,-0.11 -0.19,0 -0.41,0 -0.64,0.03 -0.22,0.03 -0.44,0.08 -0.63,0.11 -0.2,0.03 -0.39,0.03 -0.53,0.06 -0.14,0.02 -0.25,0.02 -0.28,0.02 -0.58,0 -0.86,-0.3 -0.86,-0.94 0,-0.64 0.25,-0.94 0.75,-0.94 0.08,0 0.17,0 0.28,0 0.08,0.02 0.19,0.02 0.27,0.02zm0.64 -8.99c0,-0.31 -0.03,-0.53 -0.08,-0.72 -0.08,-0.2 -0.19,-0.34 -0.39,-0.45 -0.19,-0.11 -0.47,-0.19 -0.83,-0.25 -0.36,-0.03 -0.81,-0.05 -1.39,-0.05 -0.83,0 -1.39,0.19 -1.67,0.55 -0.3,0.39 -0.44,0.92 -0.44,1.58 0,0.64 0.19,1.17 0.58,1.53 0.36,0.39 1.06,0.58 2.06,0.58l1.11 0c0.47,0 0.75,-0.08 0.89,-0.27 0.11,-0.2 0.16,-0.59 0.16,-1.17l0 -1.33z"/>
  <path id="_32" class="fil2" d="M411.61 85.46c-0.08,0 -0.2,0 -0.31,0 -0.11,0.03 -0.19,0.03 -0.25,0.03 -0.52,0 -0.77,-0.31 -0.77,-0.94 0,-0.64 0.27,-0.95 0.86,-0.95 0.02,0 0.25,0.03 0.61,0.11 0.36,0.09 0.83,0.11 1.36,0.11 0.19,0 0.39,0 0.64,-0.02 0.22,-0.03 0.44,-0.06 0.63,-0.09 0.2,-0.03 0.39,-0.05 0.53,-0.08 0.14,-0.03 0.25,-0.03 0.28,-0.03 0.58,0 0.86,0.31 0.86,0.95 0,0.63 -0.25,0.94 -0.75,0.94 -0.08,0 -0.17,0 -0.25,-0.03 -0.11,0 -0.22,0 -0.3,0 -0.14,0 -0.28,0.03 -0.37,0.06 -0.08,0.05 -0.16,0.16 -0.19,0.33 -0.03,0.17 -0.06,0.42 -0.06,0.78 -0.02,0.36 -0.02,0.83 -0.02,1.44l0 4.94c0,0.61 0,1.09 0.02,1.45 0,0.36 0.03,0.61 0.06,0.77 0.03,0.17 0.11,0.28 0.19,0.31 0.09,0.06 0.23,0.08 0.37,0.08 0.08,0 0.19,0 0.3,-0.02 0.08,0 0.17,0 0.25,0 0.5,0 0.75,0.3 0.75,0.94 0,0.64 -0.28,0.94 -0.86,0.94 -0.03,0 -0.14,0 -0.28,-0.02 -0.14,-0.03 -0.33,-0.03 -0.53,-0.06 -0.19,-0.03 -0.41,-0.08 -0.63,-0.11 -0.25,-0.03 -0.45,-0.03 -0.64,-0.03 -0.53,0 -1,0.03 -1.36,0.11 -0.36,0.09 -0.59,0.11 -0.61,0.11 -0.59,0 -0.86,-0.3 -0.86,-0.94 0,-0.64 0.25,-0.94 0.77,-0.94 0.06,0 0.14,0 0.25,0 0.11,0.02 0.23,0.02 0.31,0.02 0.14,0 0.28,-0.02 0.36,-0.08 0.08,-0.03 0.14,-0.14 0.19,-0.33 0.03,-0.17 0.06,-0.42 0.09,-0.78 0,-0.36 0,-0.83 0,-1.42l0 -4.24 -5.03 5.88c-0.14,0.2 -0.22,0.36 -0.22,0.53 0,0.3 0.17,0.44 0.53,0.44 0.08,0 0.19,0 0.3,-0.02 0.09,0 0.17,0 0.25,0 0.5,0 0.75,0.3 0.75,0.94 0,0.64 -0.28,0.94 -0.86,0.94 -0.03,0 -0.14,0 -0.28,-0.02 -0.14,-0.03 -0.33,-0.03 -0.52,-0.06 -0.2,-0.03 -0.42,-0.08 -0.64,-0.11 -0.25,-0.03 -0.45,-0.03 -0.64,-0.03 -0.53,0 -1,0.03 -1.36,0.11 -0.36,0.09 -0.58,0.11 -0.61,0.11 -0.59,0 -0.86,-0.3 -0.86,-0.94 0,-0.64 0.25,-0.94 0.77,-0.94 0.06,0 0.14,0 0.25,0 0.11,0.02 0.23,0.02 0.31,0.02 0.14,0 0.28,-0.02 0.36,-0.08 0.08,-0.03 0.14,-0.14 0.19,-0.33 0.03,-0.17 0.06,-0.42 0.09,-0.78 0,-0.36 0,-0.83 0,-1.42l0 -4.94c0,-0.58 0,-1.05 0,-1.41 -0.03,-0.37 -0.06,-0.61 -0.09,-0.81 -0.05,-0.17 -0.11,-0.28 -0.19,-0.33 -0.08,-0.03 -0.22,-0.06 -0.36,-0.06 -0.08,0 -0.2,0 -0.31,0 -0.11,0.03 -0.19,0.03 -0.25,0.03 -0.52,0 -0.77,-0.31 -0.77,-0.94 0,-0.64 0.27,-0.95 0.86,-0.95 0.03,0 0.25,0.03 0.61,0.11 0.36,0.09 0.83,0.11 1.36,0.11 0.19,0 0.39,0 0.64,-0.02 0.22,-0.03 0.44,-0.06 0.64,-0.09 0.19,-0.03 0.38,-0.05 0.52,-0.08 0.14,-0.03 0.25,-0.03 0.28,-0.03 0.58,0 0.86,0.31 0.86,0.95 0,0.63 -0.25,0.94 -0.75,0.94 -0.08,0 -0.16,0 -0.25,-0.03 -0.11,0 -0.22,0 -0.3,0 -0.14,0 -0.28,0.03 -0.36,0.06 -0.09,0.05 -0.17,0.16 -0.2,0.33 -0.03,0.17 -0.05,0.42 -0.05,0.78 -0.03,0.36 -0.03,0.83 -0.03,1.44l0 4.3 5.05 -5.91c0.14,-0.19 0.22,-0.36 0.22,-0.53 0,-0.14 -0.05,-0.25 -0.14,-0.33 -0.08,-0.08 -0.22,-0.14 -0.41,-0.14z"/>
  <path id="_33" class="fil2" d="M426.74 88.07c0,-1 -0.03,-1.66 -0.08,-2 -0.06,-0.33 -0.23,-0.5 -0.53,-0.5l-4.53 0c-0.11,0.11 -0.16,0.34 -0.19,0.7 -0.03,0.36 -0.03,0.94 -0.03,1.8l0 4.94c0,0.59 0,1.06 0.03,1.42 0,0.36 0.03,0.61 0.08,0.78 0.03,0.19 0.11,0.3 0.2,0.33 0.08,0.06 0.19,0.08 0.33,0.08 0.08,0 0.19,0 0.31,-0.02 0.11,0 0.19,0 0.25,0 0.52,0 0.77,0.3 0.77,0.94 0,0.64 -0.27,0.94 -0.86,0.94 -0.03,0 -0.25,-0.02 -0.61,-0.11 -0.36,-0.08 -0.83,-0.11 -1.36,-0.11 -0.19,0 -0.42,0 -0.64,0.03 -0.22,0.03 -0.44,0.08 -0.64,0.11 -0.19,0.03 -0.39,0.03 -0.52,0.06 -0.14,0.02 -0.25,0.02 -0.28,0.02 -0.59,0 -0.86,-0.3 -0.86,-0.94 0,-0.64 0.25,-0.94 0.75,-0.94 0.08,0 0.16,0 0.27,0 0.09,0.02 0.2,0.02 0.28,0.02 0.14,0 0.28,-0.02 0.36,-0.08 0.09,-0.03 0.14,-0.14 0.2,-0.31 0.03,-0.16 0.05,-0.41 0.08,-0.77 0,-0.36 0,-0.84 0,-1.45l0 -4.94c0,-0.58 0,-1.05 0,-1.41 -0.03,-0.37 -0.05,-0.61 -0.08,-0.81 -0.06,-0.17 -0.11,-0.28 -0.2,-0.33 -0.08,-0.03 -0.22,-0.06 -0.36,-0.06 -0.08,0 -0.19,0 -0.3,0 -0.11,0.03 -0.2,0.03 -0.25,0.03 -0.53,0 -0.78,-0.31 -0.78,-0.94 0,-0.64 0.28,-0.95 0.86,-0.95 0.03,0 0.25,0.03 0.61,0.11 0.36,0.09 0.83,0.11 1.36,0.11l7.36 0c0.53,0 1,-0.02 1.36,-0.11 0.36,-0.08 0.58,-0.11 0.61,-0.11 0.58,0 0.86,0.31 0.86,0.95 0,0.63 -0.25,0.94 -0.78,0.94 -0.05,0 -0.14,0 -0.25,-0.03 -0.11,0 -0.22,0 -0.3,0 -0.14,0 -0.25,0.03 -0.34,0.06 -0.08,0.05 -0.16,0.16 -0.19,0.33 -0.05,0.2 -0.08,0.44 -0.08,0.81 -0.03,0.36 -0.03,0.83 -0.03,1.41l0 4.94c0,0.61 0,1.09 0.03,1.45 0,0.36 0.03,0.61 0.05,0.77 0.03,0.17 0.11,0.28 0.2,0.31 0.08,0.06 0.22,0.08 0.36,0.08 0.08,0 0.19,0 0.3,-0.02 0.09,0 0.17,0 0.25,0 0.5,0 0.75,0.3 0.75,0.94 0,0.64 -0.27,0.94 -0.86,0.94 -0.03,0 -0.14,0 -0.27,-0.02 -0.14,-0.03 -0.34,-0.03 -0.53,-0.06 -0.2,-0.03 -0.42,-0.08 -0.64,-0.11 -0.25,-0.03 -0.44,-0.03 -0.64,-0.03 -0.53,0 -1,0.03 -1.36,0.11 -0.36,0.09 -0.58,0.11 -0.61,0.11 -0.58,0 -0.86,-0.3 -0.86,-0.94 0,-0.64 0.25,-0.94 0.78,-0.94 0.05,0 0.13,0 0.25,0 0.11,0.02 0.22,0.02 0.3,0.02 0.14,0 0.28,-0.02 0.36,-0.08 0.09,-0.03 0.14,-0.14 0.2,-0.33 0.02,-0.17 0.05,-0.42 0.08,-0.78 0,-0.36 0,-0.83 0,-1.42l0 -4.94z"/>
  <path id="_34" class="fil2" d="M437.26 97.71c-1.53,0 -2.72,-0.64 -3.61,-1.95 -0.89,-1.28 -1.33,-3 -1.33,-5.19 0,-2.19 0.44,-3.91 1.33,-5.22 0.89,-1.3 2.08,-1.94 3.61,-1.94 1.53,0 2.72,0.64 3.61,1.94 0.89,1.31 1.33,3.03 1.33,5.22 0,2.19 -0.44,3.91 -1.33,5.19 -0.89,1.31 -2.08,1.95 -3.61,1.95zm0 -12.44c-0.91,0 -1.64,0.47 -2.16,1.44 -0.53,0.97 -0.81,2.28 -0.81,3.86 0,1.58 0.28,2.86 0.81,3.83 0.52,0.97 1.25,1.44 2.16,1.44 0.92,0 1.64,-0.47 2.2,-1.44 0.52,-0.97 0.8,-2.25 0.8,-3.83 0,-1.58 -0.28,-2.89 -0.8,-3.86 -0.56,-0.97 -1.28,-1.44 -2.2,-1.44z"/>
  <path id="_35" class="fil2" d="M445.92 86.66c0,-0.84 -0.22,-1.25 -0.69,-1.25 -0.11,0 -0.19,0.02 -0.28,0.05 -0.08,0.03 -0.19,0.06 -0.3,0.06 -0.47,0 -0.7,-0.31 -0.7,-0.95 0,-0.25 0.09,-0.5 0.23,-0.69 0.14,-0.2 0.33,-0.28 0.61,-0.28 0.44,0 0.94,0.03 1.47,0.11 0.53,0.09 1.22,0.14 2.08,0.14 0.53,0 1.03,0 1.53,-0.03 0.5,-0.02 0.94,-0.05 1.36,-0.08 0.41,-0.03 0.75,-0.06 1.03,-0.08 0.27,-0.03 0.47,-0.03 0.58,-0.03 0.58,0 0.89,0.31 0.89,0.94 0,0.28 -0.03,0.59 -0.09,0.95 -0.05,0.36 -0.08,0.83 -0.08,1.36 0,0.19 0,0.47 0.03,0.77 0.03,0.34 0.03,0.62 0.03,0.81 0,0.33 -0.09,0.58 -0.25,0.72 -0.2,0.17 -0.39,0.25 -0.59,0.25 -0.25,0 -0.47,-0.08 -0.64,-0.25 -0.16,-0.16 -0.25,-0.41 -0.25,-0.72 0,-0.08 0,-0.19 0.03,-0.36 0,-0.17 0,-0.33 0.03,-0.53 0,-0.16 0,-0.33 0.03,-0.5 0,-0.14 0,-0.28 0,-0.36 0,-0.33 -0.03,-0.61 -0.06,-0.8 -0.03,-0.2 -0.11,-0.37 -0.22,-0.48 -0.14,-0.08 -0.31,-0.16 -0.53,-0.19 -0.22,-0.03 -0.53,-0.03 -0.91,-0.03 -0.5,0 -0.92,0 -1.23,0.03 -0.33,0.03 -0.58,0.11 -0.74,0.19 -0.2,0.11 -0.31,0.28 -0.37,0.48 -0.08,0.19 -0.11,0.47 -0.11,0.8l0 7.19c0,0.64 0.09,1.11 0.22,1.36 0.14,0.25 0.37,0.39 0.7,0.39 0.19,0 0.39,0 0.58,-0.03 0.2,-0.02 0.34,-0.02 0.42,-0.02 0.53,0 0.78,0.3 0.78,0.91 0,0.31 -0.06,0.56 -0.14,0.72 -0.11,0.17 -0.34,0.25 -0.64,0.25 -0.11,0 -0.28,0 -0.5,-0.02 -0.22,-0.03 -0.47,-0.03 -0.72,-0.06 -0.28,-0.03 -0.56,-0.08 -0.86,-0.11 -0.31,-0.03 -0.59,-0.03 -0.84,-0.03 -0.41,0 -0.77,0.03 -1.11,0.11 -0.33,0.09 -0.66,0.11 -0.97,0.11 -0.5,0 -0.75,-0.3 -0.75,-0.94 0,-0.31 0.06,-0.56 0.2,-0.72 0.11,-0.14 0.25,-0.22 0.44,-0.22 0.08,0 0.19,0 0.33,0.02 0.14,0.03 0.25,0.03 0.36,0.03 0.2,0 0.34,-0.11 0.45,-0.36 0.11,-0.25 0.16,-0.64 0.16,-1.22l0 -7.41z"/>
  <path id="_36" class="fil2" d="M458.09 84.43c0,0.17 0,0.34 -0.03,0.5 1.08,-1.02 2.11,-1.52 3.14,-1.52 1.33,0 2.38,0.61 3.19,1.86 0.8,1.25 1.19,2.94 1.19,5.08 0,2.19 -0.44,3.97 -1.3,5.33 -0.86,1.36 -2.03,2.03 -3.45,2.03 -0.97,0 -1.88,-0.42 -2.69,-1.23l0 1c0,1.2 0.03,1.95 0.11,2.23 0.06,0.24 0.22,0.38 0.53,0.38l0.25 0c0.19,-0.02 0.28,-0.05 0.31,-0.05 0.49,0 0.74,0.33 0.74,0.97 0,0.64 -0.27,0.94 -0.86,0.94 -0.16,0 -0.47,-0.05 -0.91,-0.14 -0.45,-0.08 -0.81,-0.13 -1.06,-0.13 -0.41,0 -0.8,0.05 -1.22,0.13 -0.42,0.09 -0.69,0.14 -0.8,0.14 -0.59,0 -0.86,-0.3 -0.86,-0.94 0,-0.64 0.25,-0.97 0.75,-0.97 0.05,0 0.16,0.03 0.3,0.05l0.25 0c0.31,0 0.47,-0.14 0.55,-0.38 0.06,-0.28 0.09,-1.03 0.09,-2.23l0 -9.35c0,-1.17 -0.03,-1.92 -0.11,-2.22 -0.09,-0.31 -0.25,-0.48 -0.56,-0.48 -0.03,0 -0.03,0 -0.05,0 -0.03,0.03 -0.06,0.03 -0.09,0.03 -0.08,0 -0.16,0 -0.25,0 -0.08,0.03 -0.16,0.03 -0.19,0.03 -0.47,0 -0.72,-0.31 -0.72,-0.89 0,-0.66 0.28,-1 0.83,-1 0.14,0 0.36,0.03 0.61,0.08 0.25,0.06 0.53,0.09 0.81,0.09 0.14,0 0.44,-0.06 0.86,-0.14 0.08,-0.03 0.16,-0.03 0.25,-0.03 0.25,0 0.39,0.28 0.39,0.83zm2.69 11.39c0.86,0 1.55,-0.5 2.05,-1.47 0.5,-0.98 0.75,-2.31 0.75,-4 0,-1.58 -0.25,-2.81 -0.72,-3.67 -0.47,-0.86 -1.14,-1.3 -2,-1.3 -0.86,0 -1.52,0.44 -2,1.36 -0.47,0.91 -0.72,2.22 -0.72,3.91 0,1.64 0.22,2.89 0.7,3.81 0.47,0.91 1.11,1.36 1.94,1.36z"/>
  <path id="_37" class="fil2" d="M476.44 97.71c-1.06,0 -1.72,-0.56 -2.03,-1.67 -0.8,1.11 -1.86,1.67 -3.19,1.67 -1.08,0 -1.95,-0.39 -2.64,-1.14 -0.69,-0.75 -1.05,-1.72 -1.05,-2.92 0,-1.52 0.47,-2.58 1.41,-3.22 0.67,-0.44 1.69,-0.75 3.08,-0.94 0.81,-0.11 1.34,-0.34 1.64,-0.64 0.31,-0.31 0.45,-0.81 0.45,-1.53 0,-1.5 -0.64,-2.25 -1.92,-2.25 -0.33,0 -0.72,0.09 -1.14,0.28 -0.47,0.22 -0.72,0.5 -0.72,0.81 0,0.08 0.06,0.22 0.17,0.41 0.22,0.36 0.33,0.7 0.33,1 0,0.81 -0.42,1.2 -1.25,1.2 -0.97,0 -1.44,-0.62 -1.44,-1.81 0,-1.03 0.38,-1.86 1.16,-2.55 0.75,-0.67 1.72,-1 2.89,-1 0.78,0 1.47,0.16 2.11,0.47 0.69,0.36 1.19,0.89 1.44,1.55 0.2,0.56 0.31,1.5 0.31,2.81l0.03 6.8c0.02,0.53 0.16,0.8 0.47,0.8 0.42,0 0.61,-0.66 0.61,-1.97 0,-0.25 0,-0.41 -0.03,-0.52l0 -0.28c0,-0.81 0.28,-1.2 0.81,-1.2 0.61,0 0.91,0.53 0.91,1.59 0,1.61 -0.16,2.72 -0.52,3.33 -0.36,0.61 -0.98,0.92 -1.89,0.92zm-2.36 -4.5c0.08,-0.42 0.11,-1.25 0.14,-2.5 -0.53,0.22 -1.03,0.39 -1.53,0.47l-1.25 0.22c-1.36,0.25 -2.03,1 -2.03,2.31 0,0.66 0.2,1.19 0.59,1.61 0.36,0.41 0.86,0.61 1.47,0.61 0.64,0 1.22,-0.25 1.69,-0.75 0.47,-0.5 0.78,-1.17 0.92,-1.97z"/>
  <path id="_38" class="fil2" d="M491.87 95.82c0.89,0 1.59,-0.47 2.09,-1.45 0.47,-0.97 0.72,-2.3 0.72,-4.02 0,-1.58 -0.25,-2.81 -0.72,-3.67 -0.47,-0.86 -1.14,-1.3 -2,-1.3 -0.89,0 -1.56,0.44 -2.03,1.36 -0.47,0.91 -0.69,2.22 -0.69,3.91 0,1.64 0.22,2.89 0.69,3.81 0.47,0.91 1.11,1.36 1.94,1.36zm-7.13 -10.44c-0.83,0 -1.5,0.44 -2,1.36 -0.5,0.91 -0.75,2.11 -0.75,3.61l0 0.22c0,1.64 0.25,2.89 0.72,3.78 0.48,0.91 1.11,1.36 1.97,1.36 0.87,0 1.53,-0.45 2,-1.34 0.47,-0.88 0.73,-2.13 0.73,-3.74 0,-1.89 -0.23,-3.25 -0.7,-4.06 -0.47,-0.8 -1.14,-1.19 -1.97,-1.19zm0.03 -1.97c0.97,0 1.86,0.41 2.61,1.22l0 -1.64c0,-0.53 0,-0.94 -0.03,-1.25 -0.03,-0.3 -0.08,-0.55 -0.14,-0.72 -0.06,-0.17 -0.14,-0.28 -0.22,-0.33 -0.08,-0.06 -0.2,-0.09 -0.33,-0.09 -0.06,0 -0.12,0 -0.2,0 -0.08,0.03 -0.17,0.03 -0.25,0.03 -0.53,0 -0.8,-0.3 -0.8,-0.89 0,-0.25 0.08,-0.5 0.27,-0.69 0.17,-0.2 0.37,-0.28 0.61,-0.28 0.14,0 0.37,0.03 0.67,0.08 0.28,0.09 0.5,0.11 0.64,0.11 0.22,0 0.44,-0.02 0.67,-0.11 0.19,-0.05 0.44,-0.08 0.69,-0.08 0.31,0 0.44,0.19 0.44,0.58 0,0.23 0,0.45 0,0.7 0,0.25 0,0.5 -0.02,0.8 -0.03,0.36 -0.03,0.7 -0.03,0.95 0,0.27 0,0.52 0,0.72l0 2.19c0.53,-0.47 1.03,-0.83 1.5,-1.03 0.47,-0.19 0.97,-0.27 1.44,-0.27 0.67,0 1.28,0.16 1.81,0.47 0.52,0.33 1,0.8 1.38,1.39 0.39,0.61 0.7,1.33 0.89,2.19 0.2,0.86 0.31,1.83 0.31,2.89 0,2.19 -0.45,3.97 -1.31,5.33 -0.86,1.36 -2,2.03 -3.44,2.03 -0.97,0 -1.86,-0.39 -2.66,-1.2l0 0.08 -0.03 0 0 0.89c0,1.22 0.03,1.95 0.08,2.2 0.08,0.27 0.25,0.41 0.56,0.41l0.25 0c0.08,-0.02 0.16,-0.02 0.22,-0.02 0.03,-0.03 0.05,-0.03 0.08,-0.03 0.5,0 0.75,0.33 0.75,0.97 0,0.64 -0.28,0.94 -0.86,0.94 -0.08,0 -0.22,0 -0.36,-0.02 -0.14,-0.03 -0.33,-0.09 -0.56,-0.12 -0.22,-0.02 -0.41,-0.05 -0.58,-0.08 -0.19,-0.03 -0.33,-0.05 -0.47,-0.05 -0.42,0 -0.81,0.05 -1.22,0.13 -0.42,0.09 -0.7,0.14 -0.81,0.14 -0.58,0 -0.86,-0.3 -0.86,-0.94 0,-0.64 0.25,-0.97 0.75,-0.97 0.03,0 0.11,0.03 0.31,0.05l0.25 0c0.3,0 0.47,-0.14 0.52,-0.41 0.09,-0.23 0.12,-0.95 0.12,-2.2l0 -0.89 -0.03 0c0,-0.05 0,-0.11 0,-0.16 0,-0.06 0,-0.14 0.03,-0.22 -0.89,1 -1.84,1.5 -2.86,1.5 -1.36,0 -2.48,-0.64 -3.34,-1.95 -0.86,-1.3 -1.27,-2.97 -1.27,-5.02 0,-2.14 0.44,-3.92 1.33,-5.28 0.92,-1.36 2.08,-2.05 3.5,-2.05z"/>
  <path id="_39" class="fil2" d="M507.01 85.46c-0.09,0 -0.2,0 -0.31,0 -0.11,0.03 -0.19,0.03 -0.25,0.03 -0.53,0 -0.78,-0.31 -0.78,-0.94 0,-0.64 0.28,-0.95 0.87,-0.95 0.02,0 0.24,0.03 0.61,0.11 0.36,0.09 0.83,0.11 1.36,0.11 0.19,0 0.38,0 0.63,-0.02 0.23,-0.03 0.45,-0.06 0.64,-0.09 0.2,-0.03 0.39,-0.05 0.53,-0.08 0.14,-0.03 0.25,-0.03 0.28,-0.03 0.58,0 0.86,0.31 0.86,0.95 0,0.63 -0.25,0.94 -0.75,0.94 -0.08,0 -0.17,0 -0.25,-0.03 -0.11,0 -0.22,0 -0.31,0 -0.13,0 -0.27,0.03 -0.36,0.06 -0.08,0.05 -0.16,0.16 -0.19,0.33 -0.03,0.17 -0.06,0.42 -0.06,0.78 -0.02,0.36 -0.02,0.83 -0.02,1.44l0 4.94c0,0.61 0,1.09 0.02,1.45 0,0.36 0.03,0.61 0.06,0.77 0.03,0.17 0.11,0.28 0.19,0.31 0.09,0.06 0.23,0.08 0.36,0.08 0.09,0 0.2,0 0.31,-0.02 0.08,0 0.17,0 0.25,0 0.5,0 0.75,0.3 0.75,0.94 0,0.64 -0.28,0.94 -0.86,0.94 -0.03,0 -0.14,0 -0.28,-0.02 -0.14,-0.03 -0.33,-0.03 -0.53,-0.06 -0.19,-0.03 -0.41,-0.08 -0.64,-0.11 -0.25,-0.03 -0.44,-0.03 -0.63,-0.03 -0.53,0 -1,0.03 -1.36,0.11 -0.37,0.09 -0.59,0.11 -0.61,0.11 -0.59,0 -0.87,-0.3 -0.87,-0.94 0,-0.64 0.25,-0.94 0.78,-0.94 0.06,0 0.14,0 0.25,0 0.11,0.02 0.22,0.02 0.31,0.02 0.14,0 0.27,-0.02 0.36,-0.08 0.08,-0.03 0.14,-0.14 0.19,-0.33 0.03,-0.17 0.06,-0.42 0.09,-0.78 0,-0.36 0,-0.83 0,-1.42l0 -4.24 -5.03 5.88c-0.14,0.2 -0.22,0.36 -0.22,0.53 0,0.3 0.16,0.44 0.53,0.44 0.08,0 0.19,0 0.3,-0.02 0.08,0 0.17,0 0.25,0 0.5,0 0.75,0.3 0.75,0.94 0,0.64 -0.28,0.94 -0.86,0.94 -0.03,0 -0.14,0 -0.28,-0.02 -0.14,-0.03 -0.33,-0.03 -0.53,-0.06 -0.19,-0.03 -0.41,-0.08 -0.63,-0.11 -0.25,-0.03 -0.45,-0.03 -0.64,-0.03 -0.53,0 -1,0.03 -1.36,0.11 -0.36,0.09 -0.59,0.11 -0.61,0.11 -0.59,0 -0.86,-0.3 -0.86,-0.94 0,-0.64 0.24,-0.94 0.77,-0.94 0.06,0 0.14,0 0.25,0 0.11,0.02 0.23,0.02 0.31,0.02 0.14,0 0.28,-0.02 0.36,-0.08 0.08,-0.03 0.14,-0.14 0.19,-0.33 0.03,-0.17 0.06,-0.42 0.09,-0.78 0,-0.36 0,-0.83 0,-1.42l0 -4.94c0,-0.58 0,-1.05 0,-1.41 -0.03,-0.37 -0.06,-0.61 -0.09,-0.81 -0.05,-0.17 -0.11,-0.28 -0.19,-0.33 -0.08,-0.03 -0.22,-0.06 -0.36,-0.06 -0.08,0 -0.2,0 -0.31,0 -0.11,0.03 -0.19,0.03 -0.25,0.03 -0.53,0 -0.77,-0.31 -0.77,-0.94 0,-0.64 0.27,-0.95 0.86,-0.95 0.02,0 0.25,0.03 0.61,0.11 0.36,0.09 0.83,0.11 1.36,0.11 0.19,0 0.39,0 0.64,-0.02 0.22,-0.03 0.44,-0.06 0.63,-0.09 0.2,-0.03 0.39,-0.05 0.53,-0.08 0.14,-0.03 0.25,-0.03 0.28,-0.03 0.58,0 0.86,0.31 0.86,0.95 0,0.63 -0.25,0.94 -0.75,0.94 -0.08,0 -0.17,0 -0.25,-0.03 -0.11,0 -0.22,0 -0.3,0 -0.14,0 -0.28,0.03 -0.37,0.06 -0.08,0.05 -0.16,0.16 -0.19,0.33 -0.03,0.17 -0.06,0.42 -0.06,0.78 -0.02,0.36 -0.02,0.83 -0.02,1.44l0 4.3 5.05 -5.91c0.14,-0.19 0.22,-0.36 0.22,-0.53 0,-0.14 -0.05,-0.25 -0.14,-0.33 -0.08,-0.08 -0.22,-0.14 -0.41,-0.14z"/>
  <path id="_40" class="fil2" d="M522.72 85.04c-0.36,0 -0.58,0.26 -0.69,0.75 -0.09,0.42 -0.17,0.81 -0.2,1.17 -0.05,0.39 -0.11,0.75 -0.16,1.11 -0.09,0.36 -0.2,0.72 -0.34,1.06 -0.14,0.36 -0.36,0.69 -0.66,1 0.61,0.19 1.08,0.52 1.44,1.02 0.36,0.53 0.53,1.31 0.53,2.34l0 0.91c0,0.39 0.05,0.72 0.14,1 0.08,0.31 0.19,0.44 0.39,0.44 0.38,0 0.58,-0.66 0.58,-1.97 0,-0.13 0,-0.27 0,-0.41 -0.03,-0.14 -0.03,-0.25 -0.03,-0.39 0,-0.81 0.28,-1.2 0.81,-1.2 0.61,0 0.91,0.53 0.91,1.59 0,0.8 -0.03,1.5 -0.11,2.02 -0.08,0.53 -0.22,0.98 -0.42,1.31 -0.19,0.33 -0.44,0.58 -0.74,0.72 -0.31,0.14 -0.7,0.2 -1.14,0.2 -0.25,0 -0.5,-0.03 -0.75,-0.11 -0.25,-0.09 -0.48,-0.26 -0.67,-0.48 -0.19,-0.19 -0.33,-0.5 -0.44,-0.89 -0.11,-0.36 -0.17,-0.86 -0.17,-1.44l0 -1.39c0,-0.75 -0.14,-1.3 -0.44,-1.66 -0.31,-0.36 -0.75,-0.56 -1.34,-0.61 -0.61,0.25 -1.41,0.41 -2.44,0.52l0 1.36c0,0.61 0,1.09 0.03,1.45 0,0.36 0.03,0.61 0.05,0.77 0.03,0.17 0.11,0.28 0.2,0.31 0.08,0.06 0.22,0.08 0.36,0.08 0.08,0 0.19,0 0.3,-0.02 0.09,0 0.17,0 0.25,0 0.5,0 0.75,0.3 0.75,0.94 0,0.64 -0.27,0.94 -0.86,0.94 -0.03,0 -0.14,0 -0.27,-0.02 -0.14,-0.03 -0.34,-0.03 -0.53,-0.06 -0.2,-0.03 -0.42,-0.08 -0.64,-0.11 -0.25,-0.03 -0.45,-0.03 -0.64,-0.03 -0.53,0 -1,0.03 -1.36,0.11 -0.36,0.09 -0.58,0.11 -0.61,0.11 -0.58,0 -0.86,-0.3 -0.86,-0.94 0,-0.64 0.25,-0.94 0.78,-0.94 0.05,0 0.13,0 0.25,0 0.11,0.02 0.22,0.02 0.3,0.02 0.14,0 0.28,-0.02 0.36,-0.08 0.09,-0.03 0.14,-0.14 0.2,-0.33 0.02,-0.17 0.05,-0.42 0.08,-0.78 0,-0.36 0,-0.83 0,-1.42l0 -4.94c0,-0.58 0,-1.05 0,-1.41 -0.03,-0.37 -0.06,-0.61 -0.08,-0.81 -0.06,-0.17 -0.11,-0.28 -0.2,-0.33 -0.08,-0.03 -0.22,-0.06 -0.36,-0.06 -0.08,0 -0.19,0 -0.3,0 -0.12,0.03 -0.2,0.03 -0.25,0.03 -0.53,0 -0.78,-0.31 -0.78,-0.94 0,-0.64 0.28,-0.95 0.86,-0.95 0.03,0 0.25,0.03 0.61,0.11 0.36,0.09 0.83,0.11 1.36,0.11 0.19,0 0.39,0 0.64,-0.02 0.22,-0.03 0.44,-0.06 0.64,-0.09 0.19,-0.03 0.39,-0.05 0.53,-0.08 0.13,-0.03 0.24,-0.03 0.27,-0.03 0.59,0 0.86,0.31 0.86,0.95 0,0.63 -0.25,0.94 -0.75,0.94 -0.08,0 -0.16,0 -0.25,-0.03 -0.11,0 -0.22,0 -0.3,0 -0.14,0 -0.28,0.03 -0.36,0.06 -0.09,0.05 -0.17,0.16 -0.2,0.33 -0.02,0.17 -0.05,0.42 -0.05,0.78 -0.03,0.36 -0.03,0.83 -0.03,1.44l0 2.08c0.58,-0.05 1.03,-0.13 1.39,-0.22 0.36,-0.08 0.64,-0.19 0.86,-0.33 0.22,-0.14 0.42,-0.31 0.55,-0.5 0.14,-0.2 0.25,-0.42 0.36,-0.72 0.23,-0.53 0.37,-1.09 0.39,-1.61 0.03,-0.53 0.11,-1 0.23,-1.45 0.13,-0.58 0.38,-1.08 0.75,-1.44 0.36,-0.36 0.83,-0.53 1.47,-0.53 0.97,0 1.66,0.28 2.08,0.83 0.42,0.56 0.61,1.25 0.61,2.06 0,0.47 -0.11,0.83 -0.31,1.11 -0.22,0.28 -0.55,0.42 -0.97,0.42 -0.41,0 -0.72,-0.12 -0.97,-0.34 -0.25,-0.19 -0.36,-0.52 -0.36,-0.94 0,-0.28 0.03,-0.53 0.08,-0.72 0.06,-0.2 0.11,-0.34 0.17,-0.42 -0.08,-0.19 -0.19,-0.31 -0.39,-0.31z"/>
  <path id="_41" class="fil2" d="M535.97 97.71c-1.06,0 -1.73,-0.56 -2.03,-1.67 -0.81,1.11 -1.86,1.67 -3.19,1.67 -1.09,0 -1.95,-0.39 -2.64,-1.14 -0.7,-0.75 -1.06,-1.72 -1.06,-2.92 0,-1.52 0.47,-2.58 1.42,-3.22 0.67,-0.44 1.69,-0.75 3.08,-0.94 0.81,-0.11 1.33,-0.34 1.64,-0.64 0.3,-0.31 0.44,-0.81 0.44,-1.53 0,-1.5 -0.64,-2.25 -1.91,-2.25 -0.34,0 -0.72,0.09 -1.14,0.28 -0.47,0.22 -0.72,0.5 -0.72,0.81 0,0.08 0.05,0.22 0.16,0.41 0.23,0.36 0.34,0.7 0.34,1 0,0.81 -0.42,1.2 -1.25,1.2 -0.97,0 -1.45,-0.62 -1.45,-1.81 0,-1.03 0.39,-1.86 1.17,-2.55 0.75,-0.67 1.72,-1 2.89,-1 0.77,0 1.47,0.16 2.11,0.47 0.69,0.36 1.19,0.89 1.44,1.55 0.2,0.56 0.31,1.5 0.31,2.81l0.02 6.8c0.03,0.53 0.17,0.8 0.48,0.8 0.41,0 0.61,-0.66 0.61,-1.97 0,-0.25 0,-0.41 -0.03,-0.52l0 -0.28c0,-0.81 0.28,-1.2 0.81,-1.2 0.61,0 0.91,0.53 0.91,1.59 0,1.61 -0.17,2.72 -0.53,3.33 -0.36,0.61 -0.97,0.92 -1.88,0.92zm-2.37 -4.5c0.09,-0.42 0.12,-1.25 0.14,-2.5 -0.52,0.22 -1.02,0.39 -1.52,0.47l-1.25 0.22c-1.36,0.25 -2.03,1 -2.03,2.31 0,0.66 0.2,1.19 0.58,1.61 0.37,0.41 0.86,0.61 1.48,0.61 0.63,0 1.22,-0.25 1.69,-0.75 0.47,-0.5 0.78,-1.17 0.91,-1.97z"/>
  <path id="_42" class="fil2" d="M557.65 93.01c0,0.59 0,1.09 0.03,1.45 0,0.36 0.02,0.66 0.08,0.86 0.03,0.19 0.11,0.33 0.19,0.41 0.09,0.09 0.23,0.11 0.39,0.11 0.23,0 0.39,-0.02 0.5,-0.05 0.09,-0.03 0.23,-0.06 0.42,-0.06 0.36,0 0.64,0.09 0.83,0.28 0.2,0.2 0.28,0.47 0.28,0.78 0,0.08 0,0.25 -0.03,0.44 -0.03,0.2 -0.03,0.42 -0.05,0.67 -0.03,0.22 -0.06,0.44 -0.09,0.64 -0.02,0.19 -0.02,0.36 -0.02,0.44 0,0.22 0.02,0.47 0.05,0.75 0.03,0.28 0.03,0.56 0.03,0.84 0,0.25 -0.08,0.47 -0.22,0.61 -0.17,0.13 -0.36,0.22 -0.61,0.22 -0.59,0 -0.86,-0.31 -0.86,-0.95 0,-0.16 0.02,-0.41 0.08,-0.74 0.03,-0.34 0.05,-0.59 0.05,-0.73 0,-0.66 -0.08,-1.11 -0.25,-1.36 -0.19,-0.25 -0.63,-0.36 -1.36,-0.36l-8.44 0c-0.72,0 -1.16,0.11 -1.33,0.36 -0.19,0.25 -0.28,0.7 -0.28,1.36 0,0.14 0.03,0.39 0.09,0.73 0.02,0.33 0.05,0.58 0.05,0.74 0,0.64 -0.28,0.95 -0.86,0.95 -0.25,0 -0.44,-0.09 -0.58,-0.22 -0.17,-0.14 -0.25,-0.36 -0.25,-0.61 0,-0.28 0.03,-0.56 0.05,-0.84 0.03,-0.28 0.03,-0.53 0.03,-0.75 0,-0.08 0,-0.25 -0.03,-0.44 -0.02,-0.2 -0.02,-0.42 -0.05,-0.64 -0.03,-0.25 -0.06,-0.47 -0.08,-0.67 -0.03,-0.19 -0.03,-0.36 -0.03,-0.44 0,-0.31 0.08,-0.58 0.28,-0.78 0.19,-0.19 0.47,-0.28 0.83,-0.28 0.19,0 0.33,0.03 0.44,0.06 0.09,0.03 0.25,0.05 0.47,0.05 0.37,0 0.67,-0.13 0.92,-0.44 0.22,-0.3 0.42,-0.58 0.56,-0.89 0.22,-0.41 0.41,-0.86 0.55,-1.33 0.14,-0.47 0.25,-1.05 0.33,-1.72 0.09,-0.67 0.17,-1.47 0.2,-2.39 0.03,-0.92 0.05,-2 0.05,-3.28 0,-0.13 -0.05,-0.25 -0.16,-0.27 -0.11,-0.03 -0.25,-0.06 -0.39,-0.06 -0.09,0 -0.2,0 -0.31,0 -0.11,0.03 -0.19,0.03 -0.25,0.03 -0.52,0 -0.77,-0.31 -0.77,-0.94 0,-0.64 0.27,-0.95 0.86,-0.95 0.02,0 0.25,0.03 0.61,0.11 0.36,0.09 0.83,0.11 1.36,0.11l5.83 0c0.53,0 1,-0.02 1.36,-0.11 0.36,-0.08 0.58,-0.11 0.61,-0.11 0.58,0 0.86,0.31 0.86,0.95 0,0.63 -0.25,0.94 -0.78,0.94 -0.05,0 -0.14,0 -0.25,-0.03 -0.11,0 -0.22,0 -0.3,0 -0.14,0 -0.25,0.03 -0.34,0.06 -0.08,0.05 -0.16,0.16 -0.19,0.33 -0.06,0.2 -0.08,0.44 -0.08,0.81 -0.03,0.36 -0.03,0.83 -0.03,1.41l0 4.94zm-2.47 2.5c0.3,0 0.47,-0.16 0.53,-0.5 0.05,-0.33 0.08,-1 0.08,-2l0 -4.94c0,-1 -0.03,-1.66 -0.08,-2 -0.06,-0.33 -0.23,-0.5 -0.53,-0.5l-2.86 0c-0.22,0 -0.34,0.14 -0.34,0.42 0,1.75 -0.05,3.41 -0.19,5.02 -0.14,1.61 -0.47,3 -0.94,4.17 0,0.14 0.05,0.25 0.14,0.28 0.08,0.02 0.16,0.05 0.25,0.05l3.94 0z"/>
  <path id="_43" class="fil2" d="M572.36 88.07c0,-1 -0.02,-1.66 -0.08,-2 -0.05,-0.33 -0.22,-0.5 -0.53,-0.5l-2.86 0c-0.22,0 -0.33,0.14 -0.33,0.42 0,1.47 -0.06,2.94 -0.14,4.36 -0.08,1.41 -0.3,2.69 -0.61,3.8 -0.33,1.14 -0.8,2.03 -1.44,2.72 -0.64,0.7 -1.53,1.03 -2.61,1.03 -0.81,0 -1.5,-0.22 -2.03,-0.67 -0.55,-0.41 -0.83,-1.05 -0.83,-1.86 0,-0.52 0.14,-0.91 0.39,-1.16 0.25,-0.25 0.58,-0.36 0.94,-0.36 0.31,0 0.56,0.08 0.75,0.27 0.19,0.2 0.28,0.5 0.28,0.92 0,0.17 -0.03,0.31 -0.09,0.39 -0.05,0.08 -0.14,0.22 -0.22,0.36 0.14,0.22 0.42,0.33 0.83,0.33 0.31,0 0.62,-0.16 0.92,-0.5 0.28,-0.3 0.53,-0.69 0.75,-1.11 0.22,-0.41 0.42,-0.86 0.56,-1.33 0.14,-0.47 0.25,-1.05 0.33,-1.72 0.08,-0.67 0.17,-1.47 0.19,-2.39 0.03,-0.92 0.06,-2 0.06,-3.28 0,-0.13 -0.06,-0.25 -0.17,-0.27 -0.11,-0.03 -0.25,-0.06 -0.39,-0.06 -0.08,0 -0.19,0 -0.3,0 -0.11,0.03 -0.2,0.03 -0.25,0.03 -0.53,0 -0.78,-0.31 -0.78,-0.94 0,-0.64 0.28,-0.95 0.86,-0.95 0.03,0 0.25,0.03 0.61,0.11 0.36,0.09 0.84,0.11 1.36,0.11l5.83 0c0.53,0 1,-0.02 1.36,-0.11 0.37,-0.08 0.59,-0.11 0.61,-0.11 0.59,0 0.87,0.31 0.87,0.95 0,0.63 -0.25,0.94 -0.78,0.94 -0.06,0 -0.14,0 -0.25,-0.03 -0.11,0 -0.22,0 -0.31,0 -0.14,0 -0.25,0.03 -0.33,0.06 -0.08,0.05 -0.17,0.16 -0.19,0.33 -0.06,0.2 -0.09,0.44 -0.09,0.81 -0.03,0.36 -0.03,0.83 -0.03,1.41l0 4.94c0,0.61 0,1.09 0.03,1.45 0,0.36 0.03,0.61 0.06,0.77 0.03,0.17 0.11,0.28 0.19,0.31 0.08,0.06 0.22,0.08 0.36,0.08 0.09,0 0.2,0 0.31,-0.02 0.08,0 0.16,0 0.25,0 0.5,0 0.75,0.3 0.75,0.94 0,0.64 -0.28,0.94 -0.86,0.94 -0.03,0 -0.14,0 -0.28,-0.02 -0.14,-0.03 -0.33,-0.03 -0.53,-0.06 -0.19,-0.03 -0.41,-0.08 -0.64,-0.11 -0.25,-0.03 -0.44,-0.03 -0.64,-0.03 -0.52,0 -0.99,0.03 -1.36,0.11 -0.36,0.09 -0.58,0.11 -0.61,0.11 -0.58,0 -0.86,-0.3 -0.86,-0.94 0,-0.64 0.25,-0.94 0.78,-0.94 0.06,0 0.14,0 0.25,0 0.11,0.02 0.22,0.02 0.31,0.02 0.13,0 0.27,-0.02 0.36,-0.08 0.08,-0.03 0.14,-0.14 0.19,-0.33 0.03,-0.17 0.06,-0.42 0.08,-0.78 0,-0.36 0,-0.83 0,-1.42l0 -4.94z"/>
  <path id="_44" class="fil2" d="M585.83 95.62c0.14,0 0.28,-0.02 0.36,-0.08 0.08,-0.03 0.14,-0.14 0.2,-0.31 0.02,-0.16 0.05,-0.41 0.08,-0.77 0,-0.36 0,-0.84 0,-1.45l0 -0.77c0,-0.42 -0.08,-0.73 -0.25,-0.92 -0.2,-0.17 -0.47,-0.25 -0.89,-0.25l-1.53 0c-1.19,0.11 -1.77,0.89 -1.77,2.33l0 1.39c0,0.58 -0.06,1.08 -0.17,1.44 -0.11,0.39 -0.25,0.7 -0.44,0.89 -0.2,0.22 -0.39,0.39 -0.64,0.48 -0.25,0.08 -0.53,0.11 -0.78,0.11 -0.44,0 -0.83,-0.06 -1.14,-0.2 -0.3,-0.14 -0.55,-0.39 -0.75,-0.72 -0.19,-0.33 -0.3,-0.78 -0.39,-1.31 -0.08,-0.52 -0.14,-1.22 -0.14,-2.02 0,-1.06 0.31,-1.59 0.92,-1.59 0.53,0 0.81,0.39 0.81,1.2 0,0.14 0,0.25 0,0.39 -0.03,0.14 -0.03,0.28 -0.03,0.41 0,1.31 0.19,1.97 0.58,1.97 0.19,0 0.33,-0.13 0.42,-0.44 0.08,-0.28 0.11,-0.61 0.11,-1l0 -0.91c0,-0.7 0.08,-1.31 0.25,-1.78 0.16,-0.47 0.41,-0.83 0.72,-1.11 -0.69,-0.31 -1.19,-0.78 -1.44,-1.36 -0.28,-0.59 -0.42,-1.25 -0.42,-2 0,-1.22 0.36,-2.17 1.06,-2.81 0.69,-0.63 1.63,-0.97 2.88,-0.97 0.81,0 1.53,0.03 2.22,0.09 0.7,0.08 1.22,0.11 1.61,0.11 0.36,0 0.73,-0.03 1.09,-0.11 0.33,-0.06 0.69,-0.09 1.11,-0.09 0.27,0 0.5,0.11 0.64,0.31 0.13,0.22 0.19,0.5 0.19,0.86 0,0.19 -0.06,0.39 -0.14,0.58 -0.08,0.2 -0.25,0.28 -0.44,0.28 -0.14,0 -0.23,0 -0.28,-0.03 -0.06,0 -0.11,0 -0.14,0 -0.05,0 -0.11,0 -0.14,-0.03 -0.05,0 -0.14,0 -0.25,0 -0.11,0 -0.19,0.03 -0.28,0.06 -0.08,0.03 -0.13,0.14 -0.16,0.33 -0.06,0.2 -0.09,0.47 -0.11,0.84 -0.03,0.36 -0.03,0.88 -0.03,1.55l0 4.8c0,0.59 0,1.06 0.03,1.42 0,0.36 0.02,0.61 0.08,0.78 0.03,0.19 0.11,0.3 0.19,0.33 0.09,0.06 0.2,0.08 0.34,0.08 0.08,0 0.19,0 0.3,-0.02 0.11,0 0.2,0 0.25,0 0.53,0 0.78,0.3 0.78,0.94 0,0.64 -0.28,0.94 -0.86,0.94 -0.03,0 -0.25,-0.02 -0.61,-0.11 -0.36,-0.08 -0.83,-0.11 -1.36,-0.11 -0.2,0 -0.42,0 -0.64,0.03 -0.22,0.03 -0.44,0.08 -0.64,0.11 -0.19,0.03 -0.39,0.03 -0.53,0.06 -0.14,0.02 -0.25,0.02 -0.27,0.02 -0.59,0 -0.86,-0.3 -0.86,-0.94 0,-0.64 0.24,-0.94 0.75,-0.94 0.08,0 0.16,0 0.27,0 0.09,0.02 0.2,0.02 0.28,0.02zm0.64 -8.99c0,-0.31 -0.03,-0.53 -0.08,-0.72 -0.09,-0.2 -0.2,-0.34 -0.39,-0.45 -0.2,-0.11 -0.48,-0.19 -0.84,-0.25 -0.36,-0.03 -0.8,-0.05 -1.38,-0.05 -0.84,0 -1.39,0.19 -1.67,0.55 -0.31,0.39 -0.44,0.92 -0.44,1.58 0,0.64 0.19,1.17 0.58,1.53 0.36,0.39 1.05,0.58 2.05,0.58l1.11 0c0.48,0 0.75,-0.08 0.89,-0.27 0.11,-0.2 0.17,-0.59 0.17,-1.17l0 -1.33z"/>
  <path id="_45" class="fil2" d="M609.54 86.79c0,1.39 -0.72,2.39 -2.14,2.97 0.95,0.37 1.64,0.81 2.08,1.37 0.45,0.55 0.67,1.27 0.67,2.19 0,1.28 -0.39,2.28 -1.14,3.03 -0.75,0.74 -1.97,1.13 -3.63,1.13 -0.7,0 -1.36,-0.02 -1.98,-0.08 -0.61,-0.08 -1.22,-0.11 -1.8,-0.11 -0.39,0 -0.75,0.03 -1.08,0.11 -0.34,0.06 -0.67,0.08 -0.97,0.08 -0.53,0 -0.81,-0.3 -0.81,-0.91 0,-0.31 0.06,-0.56 0.17,-0.73 0.11,-0.16 0.3,-0.24 0.58,-0.24 0.14,0 0.22,0 0.3,0 0.06,0.02 0.12,0.02 0.17,0.02 0.2,0 0.33,-0.05 0.45,-0.14 0.08,-0.08 0.16,-0.22 0.22,-0.44 0.03,-0.22 0.05,-0.53 0.08,-0.89 0,-0.36 0,-0.83 0,-1.41l0 -4.53c0,-0.67 0,-1.19 -0.03,-1.55 -0.02,-0.37 -0.05,-0.64 -0.08,-0.84 -0.06,-0.19 -0.11,-0.3 -0.19,-0.33 -0.09,-0.03 -0.17,-0.06 -0.28,-0.06 -0.11,0 -0.2,0 -0.25,0 -0.06,0.03 -0.11,0.03 -0.14,0.03 -0.03,0 -0.08,0 -0.14,0 -0.05,0.03 -0.14,0.03 -0.28,0.03 -0.19,0 -0.36,-0.08 -0.44,-0.28 -0.08,-0.19 -0.14,-0.39 -0.14,-0.58 0,-0.36 0.08,-0.64 0.22,-0.86 0.14,-0.2 0.34,-0.31 0.61,-0.31 0.42,0 0.78,0.03 1.14,0.09 0.33,0.08 0.7,0.11 1.06,0.11 0.39,0 0.91,-0.03 1.61,-0.11 0.69,-0.06 1.41,-0.09 2.22,-0.09 1.25,0 2.22,0.28 2.91,0.86 0.7,0.59 1.03,1.42 1.03,2.47zm-6.97 7.2c0,0.36 0.03,0.63 0.11,0.86 0.06,0.22 0.2,0.38 0.39,0.52 0.2,0.14 0.45,0.23 0.78,0.25 0.3,0.06 0.75,0.09 1.28,0.09 1.08,0 1.8,-0.23 2.22,-0.64 0.41,-0.42 0.61,-1.03 0.61,-1.86 0,-0.81 -0.2,-1.39 -0.59,-1.81 -0.38,-0.41 -1.08,-0.61 -2.11,-0.61l-1.55 0c-0.42,0 -0.69,0.09 -0.86,0.25 -0.2,0.2 -0.28,0.5 -0.28,0.92l0 2.03zm0 -6.31c0,0.59 0.06,0.97 0.2,1.17 0.11,0.19 0.38,0.28 0.86,0.28l1.11 0c1,0 1.69,-0.17 2.08,-0.53 0.36,-0.33 0.55,-0.83 0.55,-1.53 0,-0.64 -0.13,-1.11 -0.41,-1.44 -0.31,-0.31 -0.86,-0.47 -1.7,-0.47 -0.58,0 -1.02,0.02 -1.38,0.05 -0.36,0.06 -0.61,0.14 -0.81,0.25 -0.19,0.11 -0.33,0.25 -0.39,0.45 -0.08,0.19 -0.11,0.41 -0.11,0.72l0 1.05z"/>
  <path id="_46" class="fil2" d="M621.17 89.4c0,0.7 -0.05,1.11 -0.14,1.25 -0.08,0.17 -0.33,0.25 -0.75,0.25l-5.52 0c-0.44,0 -0.72,0.03 -0.83,0.11 -0.11,0.09 -0.17,0.31 -0.17,0.67 0,1.22 0.25,2.22 0.78,2.97 0.53,0.75 1.19,1.14 2.05,1.14 0.53,0 1.03,-0.17 1.45,-0.53 0.41,-0.36 0.72,-0.8 0.86,-1.36l0.25 -0.94c0.14,-0.53 0.44,-0.78 0.97,-0.78 0.58,0 0.89,0.33 0.89,1 0,1.19 -0.45,2.25 -1.34,3.17 -0.91,0.91 -1.94,1.36 -3.13,1.36 -1.47,0 -2.64,-0.64 -3.5,-1.92 -0.86,-1.25 -1.31,-2.97 -1.31,-5.11 0,-2.14 0.48,-3.89 1.39,-5.25 0.92,-1.36 2.14,-2.02 3.61,-2.02 1.31,0 2.39,0.55 3.22,1.66 0.81,1.14 1.22,2.58 1.22,4.33zm-7.27 -0.83c0,0.33 0.25,0.5 0.72,0.5l3.5 0c0.44,0 0.72,-0.03 0.83,-0.11 0.11,-0.08 0.17,-0.25 0.17,-0.56 0,-0.88 -0.25,-1.63 -0.72,-2.22 -0.47,-0.58 -1.09,-0.88 -1.78,-0.88 -1.08,0 -1.89,0.61 -2.36,1.83 -0.19,0.47 -0.3,0.86 -0.33,1.19 -0.03,0.08 -0.03,0.17 -0.03,0.25z"/>
  <path id="_47" class="fil2" d="M623.23 90.57c0,-1.97 0.05,-3.58 0.19,-4.83 0.11,-1.22 0.31,-2.19 0.56,-2.94 0.25,-0.73 0.61,-1.25 1.05,-1.59 0.42,-0.33 0.95,-0.58 1.59,-0.77 0.22,-0.09 0.47,-0.14 0.77,-0.23 0.31,-0.08 0.59,-0.16 0.89,-0.25 0.28,-0.08 0.56,-0.13 0.81,-0.22 0.25,-0.08 0.47,-0.14 0.61,-0.19 0.3,-0.14 0.53,-0.28 0.64,-0.47 0.11,-0.2 0.16,-0.42 0.16,-0.73 0,-0.16 0,-0.3 -0.03,-0.38 -0.02,-0.09 -0.02,-0.2 -0.02,-0.37 0,-0.25 0.11,-0.47 0.3,-0.61 0.2,-0.14 0.42,-0.19 0.72,-0.19 0.37,0 0.64,0.11 0.78,0.3 0.14,0.23 0.22,0.5 0.22,0.81 0,0.53 -0.02,0.97 -0.08,1.33 -0.08,0.36 -0.17,0.67 -0.3,0.92 -0.14,0.25 -0.34,0.47 -0.53,0.61 -0.2,0.17 -0.45,0.3 -0.72,0.42 -0.23,0.08 -0.53,0.19 -0.89,0.3 -0.39,0.14 -0.78,0.25 -1.2,0.36 -0.41,0.11 -0.77,0.22 -1.13,0.34 -0.37,0.11 -0.64,0.22 -0.84,0.3 -0.41,0.2 -0.72,0.42 -0.97,0.7 -0.25,0.27 -0.42,0.58 -0.55,0.88 -0.14,0.34 -0.23,0.67 -0.25,1 -0.03,0.36 -0.06,0.7 -0.06,1 0.22,-0.33 0.44,-0.64 0.67,-0.89 0.22,-0.25 0.47,-0.47 0.72,-0.66 0.25,-0.17 0.55,-0.31 0.86,-0.42 0.3,-0.08 0.69,-0.14 1.11,-0.14 0.78,0 1.47,0.17 2.08,0.53 0.59,0.36 1.08,0.83 1.5,1.44 0.42,0.61 0.72,1.34 0.92,2.2 0.19,0.86 0.3,1.77 0.3,2.77 0,1 -0.11,1.92 -0.33,2.75 -0.25,0.83 -0.58,1.56 -1,2.17 -0.42,0.61 -0.94,1.08 -1.53,1.41 -0.61,0.37 -1.3,0.53 -2.05,0.53 -1.47,0 -2.67,-0.61 -3.58,-1.8 -0.92,-1.2 -1.39,-3 -1.39,-5.39zm4.94 -4.75c-0.92,0 -1.64,0.47 -2.17,1.39 -0.52,0.92 -0.8,2.14 -0.8,3.64 0,1.5 0.28,2.69 0.8,3.61 0.53,0.91 1.25,1.38 2.17,1.38 0.92,0 1.64,-0.47 2.19,-1.38 0.53,-0.92 0.81,-2.11 0.81,-3.61 0,-1.5 -0.28,-2.72 -0.81,-3.64 -0.55,-0.92 -1.27,-1.39 -2.19,-1.39z"/>
  <path id="_48" class="fil2" d="M643.97 97.71c-1.06,0 -1.72,-0.56 -2.03,-1.67 -0.8,1.11 -1.86,1.67 -3.19,1.67 -1.08,0 -1.95,-0.39 -2.64,-1.14 -0.69,-0.75 -1.05,-1.72 -1.05,-2.92 0,-1.52 0.47,-2.58 1.41,-3.22 0.67,-0.44 1.7,-0.75 3.08,-0.94 0.81,-0.11 1.34,-0.34 1.64,-0.64 0.31,-0.31 0.45,-0.81 0.45,-1.53 0,-1.5 -0.64,-2.25 -1.92,-2.25 -0.33,0 -0.72,0.09 -1.14,0.28 -0.47,0.22 -0.72,0.5 -0.72,0.81 0,0.08 0.06,0.22 0.17,0.41 0.22,0.36 0.33,0.7 0.33,1 0,0.81 -0.42,1.2 -1.25,1.2 -0.97,0 -1.44,-0.62 -1.44,-1.81 0,-1.03 0.38,-1.86 1.16,-2.55 0.75,-0.67 1.72,-1 2.89,-1 0.78,0 1.47,0.16 2.11,0.47 0.69,0.36 1.19,0.89 1.44,1.55 0.2,0.56 0.31,1.5 0.31,2.81l0.03 6.8c0.02,0.53 0.16,0.8 0.47,0.8 0.42,0 0.61,-0.66 0.61,-1.97 0,-0.25 0,-0.41 -0.03,-0.52l0 -0.28c0,-0.81 0.28,-1.2 0.81,-1.2 0.61,0 0.91,0.53 0.91,1.59 0,1.61 -0.16,2.72 -0.52,3.33 -0.36,0.61 -0.98,0.92 -1.89,0.92zm-2.36 -4.5c0.08,-0.42 0.11,-1.25 0.14,-2.5 -0.53,0.22 -1.03,0.39 -1.53,0.47l-1.25 0.22c-1.36,0.25 -2.03,1 -2.03,2.31 0,0.66 0.2,1.19 0.59,1.61 0.36,0.41 0.86,0.61 1.47,0.61 0.64,0 1.22,-0.25 1.69,-0.75 0.47,-0.5 0.78,-1.17 0.92,-1.97z"/>
 </g>
</svg>
