<svg xmlns="http://www.w3.org/2000/svg" width="717" height="151" viewBox="0 0 646.38 136.18" shape-rendering="geometricPrecision" image-rendering="optimizeQuality" fill-rule="evenodd"><style><![CDATA[.D{fill-rule:nonzero}]]></style><path d="M32.77 0h99.2l-4.87 16.42h-15.61L76 136.18H53.11L88.6 16.42H70.63L35.14 136.18H12.03l19.77-66.7h-1.5c-.47.14-.77.21-.92.21-11.4 0-19.65-3.35-24.72-10.06-5.07-6.7-6-15.47-2.79-26.31C6.76 16.82 17.06 5.71 32.77 0z" fill="#eceff111"/><path d="M62.95 64.99c0 2.77-.22 4.44-.56 5-.33.66-1.33.99-3 .99h-22.1c-1.77 0-2.88.12-3.33.45-.44.33-.67 1.22-.67 2.66 0 4.89 1 8.89 3.11 11.89s4.78 4.55 8.22 4.55c2.11 0 4.11-.67 5.78-2.11 1.66-1.44 2.89-3.22 3.44-5.44l1-3.78c.56-2.11 1.78-3.11 3.89-3.11 2.33 0 3.55 1.34 3.55 4 0 4.78-1.78 9-5.33 12.66-3.66 3.67-7.77 5.44-12.55 5.44-5.89 0-10.55-2.55-13.99-7.66-3.45-5-5.22-11.88-5.22-20.43 0-8.56 1.89-15.55 5.55-20.99C34.41 43.66 39.29 41 45.18 41c5.22 0 9.55 2.22 12.88 6.66 3.22 4.56 4.89 10.33 4.89 17.33zm-29.1-3.33c0 1.33 1 1.99 2.89 1.99h13.99c1.78 0 2.89-.11 3.33-.44.45-.33.67-1 .67-2.22 0-3.55-1-6.55-2.89-8.89-1.89-2.33-4.33-3.55-7.11-3.55-4.33 0-7.55 2.44-9.44 7.33-.77 1.89-1.22 3.44-1.33 4.78-.11.33-.11.66-.11 1zm40.87-21.33l.11-1.33v-8.78c0-3.22 1.22-4.88 3.78-4.88 2.55 0 3.77 1.66 3.77 4.88v8.89c0 1.22.11 2 .45 2.33.22.34.89.56 1.89.56l3.44-.11 3.66-.23c3 0 4.45 1.34 4.45 4 0 2.78-1.45 4.22-4.45 4.22-.77 0-2-.11-3.66-.44l-3.78-.33c-.89 0-1.44.22-1.66.55-.23.45-.34 1.44-.34 2.89v22.32l.23 9c.55 4.11 2.11 6.11 4.66 6.11 3.33 0 5-3.89 5-11.67V77.2c0-2.44.11-3.99.33-4.66.45-1.67 1.56-2.55 3.22-2.55 2.56 0 3.78 2.22 3.78 6.66 0 1.66-.11 4-.45 7.11-.88 9.44-4.99 14.21-12.43 14.21-5.78 0-9.45-2.66-10.89-7.88-.67-2.34-1-6.22-1-11.66V51.99c0-1.66-.44-2.44-1.33-2.44-.11 0-.45.11-1.22.22h-.56c-.33.11-.55.11-.67.11-2.22 0-3.33-1.44-3.33-4.22 0-2.55 1.11-3.88 3.33-3.88.34 0 .67 0 1.23.11.55.11.88.11 1.22.11.78 0 1.11-.56 1.22-1.67zm43.2 4.78c0 .66 0 1.33-.11 2C122.14 43 126.25 41 130.36 41c5.33 0 9.55 2.44 12.77 7.44s4.78 11.77 4.78 20.32c0 8.78-1.78 15.88-5.22 21.33-3.44 5.44-8.11 8.1-13.77 8.1-3.89 0-7.55-1.66-10.78-4.88v4c0 4.77.12 7.77.45 8.88.22 1 .89 1.56 2.11 1.56h1c.78-.12 1.11-.23 1.22-.23 2 0 3 1.34 3 3.89s-1.11 3.78-3.44 3.78c-.67 0-1.89-.23-3.67-.56s-3.22-.55-4.22-.55c-1.66 0-3.22.22-4.89.55-1.66.33-2.77.56-3.22.56-2.33 0-3.44-1.23-3.44-3.78s1-3.89 3-3.89c.22 0 .67.11 1.22.23h1c1.22 0 1.89-.56 2.22-1.56.22-1.11.34-4.11.34-8.88V59.88c0-4.67-.12-7.66-.45-8.89-.33-1.22-1-1.88-2.22-1.88h-.22c-.11.11-.23.11-.34.11h-1c-.33.11-.66.11-.77.11-1.89 0-2.89-1.22-2.89-3.56 0-2.66 1.11-3.99 3.33-3.99.56 0 1.44.11 2.44.33s2.12.33 3.23.33c.55 0 1.77-.22 3.44-.55.33-.11.66-.11 1-.11 1 0 1.55 1.11 1.55 3.33zm10.78 45.53c3.44 0 6.22-2 8.21-5.88 2-3.89 3-9.22 3-16 0-6.33-1-11.21-2.88-14.66-1.89-3.44-4.56-5.22-8-5.22s-6.11 1.78-8 5.45c-1.89 3.66-2.89 8.88-2.89 15.66 0 6.55.89 11.55 2.78 15.21s4.44 5.44 7.78 5.44zM177.01 41c.66 0 1.66.11 3.11.33.66-6.77 3.88-10.1 9.55-10.1 2.66 0 4.99.99 6.88 2.99s2.78 4.45 2.78 7.22c0 3.89-1.56 5.89-4.55 5.89-1.23 0-2.23-.45-3-1.22-.78-.78-1.22-1.78-1.22-3 0-1.11.44-2.33 1.44-3.67-.56-1-1.22-1.55-2-1.55-1 0-1.78.44-2.44 1.44-.78 1-1.11 2.11-1.11 3.33 0 .56 0 1.12.11 1.56 3.88 3.33 5.88 8.11 5.88 14.21 0 5.22-1.44 9.56-4.44 13s-6.66 5.22-11.22 5.22c-2.99 0-6.22-.89-9.66-2.78-.55-.33-1-.44-1.44-.44-1.45 0-2.22 1.33-2.22 3.88 0 3.23 2.44 4.89 7.22 4.89 4.77 0 8.1.11 9.99.45 3.89.44 7 1.44 9.33 3.11 4.55 2.99 6.78 7.44 6.78 13.1 0 5.33-1.89 9.66-5.78 12.88s-9.11 4.78-15.44 4.78-11.33-1.45-15.21-4.44c-3.89-3-5.78-6.89-5.78-11.66 0-5.78 2.67-10 7.89-12.78-4.33-2.33-6.56-5.77-6.56-10.33 0-4.55 2.23-7.99 6.56-10.55-1.22-2.88-1.89-5.66-1.89-8.44 0-4.99 1.55-9.21 4.66-12.43 3-3.23 7-4.89 11.78-4.89zm-.78 7.33c-5.22 0-8 3.33-8.22 9.88l-.11.67c0 3 .78 5.44 2.44 7.33 1.56 1.89 3.67 2.78 6.33 2.78 2.56 0 4.56-.89 6.11-2.78 1.44-1.89 2.22-4.33 2.22-7.44s-.78-5.67-2.44-7.55c-1.67-1.89-3.78-2.89-6.33-2.89zm-.22 41.42c-4.11 0-7.44.89-9.78 2.56-2.44 1.66-3.66 4-3.66 6.88 0 3 1.22 5.45 3.55 7.22 2.33 1.67 5.44 2.56 9.55 2.56 4.22 0 7.56-.89 10-2.56 2.33-1.66 3.55-4.11 3.55-7.11 0-2.88-1.22-5.21-3.55-6.99-2.44-1.67-5.67-2.56-9.66-2.56zm42.53-44.86v1.44c3-3.56 6.56-5.33 10.55-5.33 3.89 0 7.11 1.33 9.55 4.11 2.45 2.77 3.67 6.44 3.67 10.77 0 3.22-.67 5.89-1.89 8-1.33 2.11-3 3.11-5 3.11-1.55 0-2.88-.56-3.88-1.56s-1.56-2.33-1.56-3.89c0-2.99 1.67-4.66 4.89-5.1.11-.56.11-1.11.11-1.89 0-1.78-.56-3.33-1.78-4.67-1.22-1.22-2.77-1.88-4.44-1.88-6.33 0-9.44 6.21-9.44 18.76v9.11c0 6.33.11 10.33.44 11.77.34 1.56 1 2.34 2.22 2.34.34 0 1.01-.12 2-.23.56-.11 1.23-.22 2.11-.22 2.23 0 3.34 1.22 3.34 3.67 0 2.77-1.23 4.11-3.67 4.11-.78 0-2.44-.23-4.88-.67-1.67-.11-3.23-.22-4.67-.22-1.11 0-2.67.11-4.55.44-1.89.33-3.22.45-4 .45-2.33 0-3.56-1.23-3.56-3.78 0-2.56 1-3.78 3.11-3.78.45 0 .89 0 1.23.11h1c1.22 0 1.88-.55 2.22-1.66.22-1 .33-4 .33-8.78V59.88c0-4.67-.11-7.66-.44-8.89-.34-1.22-1.11-1.88-2.34-1.88h-.22c-.11.11-.11.11-.22.11h-1c-.44.11-.67.11-.78.11-2 0-3-1.22-3-3.56 0-1.11.34-2.11 1-2.88.67-.78 1.45-1.11 2.45-1.11.55 0 1.55.11 2.77.33s2.22.33 2.89.33 1.78-.22 3.44-.55c.34-.11.67-.11.89-.11.67 0 1 .99 1.11 3.11zm53.64-12.78c0-.88.34-1.89 1-2.88-1-1.12-2.11-1.67-3.22-1.67-1.88 0-3.55 1-4.77 2.89-1.33 2-2 4.55-2 7.55 0 2 .11 3.11.44 3.44.34.34.78.56 1.34.56.44 0 1.11-.11 2.11-.22l1.99-.23c2.67 0 4 1.34 4 4.11 0 2.56-1.55 3.89-4.77 3.89-.67 0-1.11 0-1.45-.11l-1.77-.22c-1.22 0-1.89 1.33-2 3.99l-.11 2.45v24.43c0 4.55.11 7.33.44 8.33s1.11 1.56 2.33 1.56h1l2.22-.23c2.34 0 3.45 1.22 3.45 3.67 0 2.55-1.22 3.89-3.56 3.89-.55 0-2-.23-4.22-.56-1.33-.22-3.33-.33-5.99-.33-.89 0-2.23.11-3.89.44-1.67.33-3 .45-3.78.45-2.33 0-3.44-1.23-3.44-3.78 0-2.56 1-3.78 3.11-3.78.44 0 .89 0 1.22.11h1c1.22 0 1.89-.55 2.22-1.66.22-1 .33-4 .33-8.78V53.55c0-2.67-.44-4-1.44-4-.55 0-.89 0-1.22.11s-.67.11-1.11.11c-2.89 0-4.33-1.33-4.33-4 0-2.88 1.44-4.33 4.44-4.33a6.4 6.4 0 0 1 1.33.11c.56.11 1 .11 1.33.11 1 0 1.45-.55 1.45-1.77 0-4.78.55-8.55 1.67-11.33.99-2.33 2.55-4.33 4.77-5.78 2.11-1.44 4.55-2.22 7.33-2.22 3.22 0 6.11 1 8.44 3s3.56 4.44 3.56 7.22c0 1.67-.45 3.11-1.34 4.33-1 1.22-2.11 1.78-3.55 1.78-1.22 0-2.33-.45-3.22-1.44-.89-.89-1.34-2-1.34-3.34z" fill="#00ccffee" class="D"/><g fill="#b0bec5ee" class="D"><use href="#B"/><path d="M319.51 53.12c0-.22.09-.48.25-.73-.25-.27-.52-.41-.8-.41-.47 0-.89.25-1.2.72-.33.5-.49 1.14-.49 1.89 0 .5.02.78.11.86a.46.46 0 0 0 .33.14c.11 0 .28-.03.53-.06l.5-.05c.66 0 1 .33 1 1.02 0 .64-.39.98-1.2.98-.16 0-.28 0-.36-.03l-.44-.06c-.31 0-.47.34-.5 1l-.03.61v6.11c0 1.14.03 1.83.11 2.08s.28.39.58.39h.25l.56-.05c.58 0 .86.3.86.91 0 .64-.31.97-.89.97-.14 0-.5-.05-1.05-.13-.34-.06-.84-.09-1.5-.09-.22 0-.56.03-.97.11-.42.09-.75.11-.95.11-.58 0-.86-.3-.86-.94s.25-.94.78-.94a1.37 1.37 0 0 1 .3.02h.25c.31 0 .48-.13.56-.41.05-.25.08-1 .08-2.2v-6.46c0-.67-.11-1-.36-1-.14 0-.22 0-.3.02-.09.03-.17.03-.28.03-.72 0-1.08-.33-1.08-1 0-.72.36-1.08 1.11-1.08a1.47 1.47 0 0 1 .33.03 1.47 1.47 0 0 0 .33.03c.25 0 .36-.14.36-.45 0-1.19.14-2.14.42-2.83.25-.58.64-1.08 1.19-1.44a3.13 3.13 0 0 1 1.84-.56c.8 0 1.52.25 2.11.75.58.5.88 1.11.88 1.8 0 .42-.11.78-.33 1.09-.25.3-.53.44-.89.44a1.03 1.03 0 0 1-.8-.36 1.1 1.1 0 0 1-.34-.83zm8.22 0c0-.22.09-.48.25-.73-.25-.27-.53-.41-.8-.41-.47 0-.89.25-1.2.72-.33.5-.5 1.14-.5 1.89 0 .5.03.78.11.86a.5.5 0 0 0 .34.14c.11 0 .28-.03.52-.06l.51-.05c.66 0 .99.33.99 1.02 0 .64-.38.98-1.19.98-.17 0-.28 0-.36-.03l-.44-.06c-.31 0-.48.34-.5 1l-.03.61v6.11c0 1.14.03 1.83.11 2.08s.28.39.58.39h.25l.56-.05c.58 0 .86.3.86.91 0 .64-.31.97-.89.97-.14 0-.5-.05-1.06-.13-.33-.06-.83-.09-1.5-.09-.22 0-.55.03-.97.11-.41.09-.75.11-.94.11-.58 0-.86-.3-.86-.94s.25-.94.78-.94a1.37 1.37 0 0 1 .3.02h.25c.31 0 .47-.13.56-.41.05-.25.08-1 .08-2.2v-6.46c0-.67-.11-1-.36-1-.14 0-.22 0-.31.02-.08.03-.16.03-.27.03-.73 0-1.09-.33-1.09-1 0-.72.36-1.08 1.11-1.08a1.51 1.51 0 0 1 .34.03 1.47 1.47 0 0 0 .33.03c.25 0 .36-.14.36-.45 0-1.19.14-2.14.42-2.83.25-.58.64-1.08 1.19-1.44a3.12 3.12 0 0 1 1.83-.56c.81 0 1.53.25 2.11.75.59.5.89 1.11.89 1.8 0 .42-.11.78-.33 1.09-.25.3-.53.44-.89.44-.31 0-.58-.11-.8-.36a1.1 1.1 0 0 1-.34-.83zm7.28 16.52c-1.53 0-2.72-.64-3.61-1.95-.89-1.27-1.34-3-1.34-5.19s.45-3.91 1.34-5.22c.89-1.3 2.08-1.94 3.61-1.94 1.52 0 2.72.64 3.6 1.94.89 1.31 1.34 3.03 1.34 5.22s-.45 3.92-1.34 5.19c-.88 1.31-2.08 1.95-3.6 1.95zm0-12.44c-.92 0-1.64.47-2.17 1.44s-.8 2.28-.8 3.86.27 2.86.8 3.83 1.25 1.45 2.17 1.45c.91 0 1.63-.48 2.19-1.45.53-.97.8-2.25.8-3.83s-.27-2.89-.8-3.86c-.56-.97-1.28-1.44-2.19-1.44zm10.32-.89v.36c.75-.89 1.64-1.33 2.64-1.33.97 0 1.78.33 2.39 1.03.61.69.92 1.61.92 2.69 0 .8-.17 1.47-.48 2-.33.53-.75.78-1.25.78a1.35 1.35 0 0 1-.97-.39c-.25-.25-.39-.59-.39-.98 0-.74.42-1.16 1.23-1.27.02-.14.02-.28.02-.47 0-.45-.14-.84-.44-1.17-.31-.31-.69-.47-1.11-.47-1.58 0-2.36 1.55-2.36 4.69v2.28l.11 2.94c.08.39.25.58.55.58.09 0 .26-.03.5-.05.14-.03.31-.06.53-.06.56 0 .84.31.84.92 0 .69-.31 1.02-.92 1.02-.2 0-.61-.05-1.22-.16l-1.17-.06c-.28 0-.67.03-1.14.11-.47.09-.8.11-1 .11-.58 0-.88-.3-.88-.94s.24-.94.77-.94c.11 0 .22 0 .31.02h.25c.3 0 .47-.13.55-.41.06-.25.09-1 .09-2.2v-4.88l-.11-2.22c-.09-.31-.28-.48-.59-.48h-.05c-.03.03-.03.03-.06.03h-.25c-.11.03-.16.03-.19.03-.5 0-.75-.3-.75-.89 0-.28.08-.53.25-.72.16-.19.36-.28.61-.28.14 0 .39.03.69.09l.72.08c.17 0 .45-.06.86-.14.09-.03.17-.03.23-.03.16 0 .25.25.27.78zm8.78-1.14l.03-.33v-2.2c0-.8.3-1.22.94-1.22s.94.42.94 1.22v2.23c0 .3.03.5.11.58.06.08.23.14.48.14l.86-.03.91-.05c.75 0 1.11.33 1.11.99 0 .7-.36 1.06-1.11 1.06-.19 0-.5-.03-.91-.11l-.95-.09c-.22 0-.36.06-.41.14-.06.12-.09.36-.09.73v5.58l.06 2.24c.14 1.03.53 1.53 1.17 1.53.83 0 1.24-.97 1.24-2.91v-.28c0-.61.03-1 .09-1.17.11-.41.39-.64.8-.64.64 0 .95.56.95 1.67 0 .42-.03 1-.11 1.78-.23 2.36-1.25 3.55-3.11 3.55-1.45 0-2.36-.67-2.72-1.97-.17-.58-.25-1.56-.25-2.92v-6.6c0-.42-.12-.61-.34-.61-.03 0-.11.02-.3.05h-.14c-.08.03-.14.03-.17.03-.55 0-.83-.36-.83-1.06 0-.63.28-.97.83-.97.09 0 .17 0 .31.03s.22.03.3.03c.2 0 .28-.14.31-.42zm11.3 1.2v8.57c0 1.2.03 1.95.11 2.2.05.28.22.41.53.41h.25c.08-.02.19-.02.33-.02a.65.65 0 0 1 .53.27c.14.2.22.42.22.67 0 .64-.31.94-.92.94-.14 0-.52-.05-1.14-.13-.36-.06-.77-.09-1.22-.09a4.68 4.68 0 0 0-.91.09l-.78.13c-.58 0-.86-.3-.86-.94s.25-.94.75-.94c.14 0 .22 0 .3.02h.25c.28 0 .45-.13.5-.38.06-.25.11-.98.14-2.23l.03-1.19v-6.8l-.03-.81-.03-1.22-.02-1.44c-.03-.64-.25-.95-.67-.95h-.17c-.08.03-.16.03-.27.03-.56 0-.84-.3-.84-.89 0-.25.09-.5.28-.69.17-.19.36-.28.61-.28.14 0 .36.06.67.14.19.06.36.08.55.08a2.84 2.84 0 0 0 .75-.11c.31-.08.53-.11.67-.11.36 0 .53.2.53.61v.36c-.03.17-.03.53-.06 1.09l-.05 1.72-.03 1.89z"/><use href="#B" x="66.55"/><path d="M384.65 55.37c.83 0 1.66.33 2.47.97 0-.75.28-1.11.8-1.11.59 0 .89.33.89 1.02 0 .09-.02.28-.05.59-.09.64-.11 1.14-.11 1.5 0 .19.02.47.05.86l.06.86c0 .61-.28.91-.81.91-.64 0-.94-.44-.94-1.33 0-.8-.2-1.41-.61-1.89-.42-.44-.97-.66-1.7-.66-.63 0-1.13.19-1.52.58-.42.39-.61.89-.61 1.53 0 .61.19 1.05.55 1.36.36.3 1.08.55 2.11.77 1.42.31 2.39.67 2.92 1.09.86.64 1.27 1.58 1.27 2.83s-.39 2.28-1.19 3.08c-.81.81-1.83 1.22-3.08 1.22-1.03 0-2-.41-2.92-1.27v.22c0 .8-.27 1.22-.86 1.22-.58 0-.89-.36-.89-1.05 0-.25.03-.53.06-.89.03-.2.03-.61.03-1.31 0-.22-.03-.55-.06-1.03l-.05-1.02c0-.59.27-.89.8-.89.58 0 .92.39.94 1.14.09 2.08 1.06 3.13 2.98 3.13.66 0 1.22-.22 1.66-.63.42-.42.64-.92.64-1.56s-.19-1.14-.58-1.47c-.42-.33-1.11-.58-2.14-.78-1.36-.25-2.33-.58-2.94-1.02-.84-.59-1.25-1.53-1.25-2.78 0-1.2.39-2.2 1.16-3 .78-.81 1.75-1.19 2.92-1.19zm11.38 0c.84 0 1.67.33 2.47.97 0-.75.28-1.11.81-1.11.58 0 .89.33.89 1.02 0 .09-.03.28-.06.59-.08.64-.11 1.14-.11 1.5 0 .19.03.47.06.86l.05.86c0 .61-.28.91-.8.91-.64 0-.95-.44-.95-1.33 0-.8-.19-1.41-.61-1.89-.42-.44-.97-.66-1.69-.66-.64 0-1.14.19-1.53.58-.42.39-.61.89-.61 1.53 0 .61.19 1.05.55 1.36.37.3 1.09.55 2.11.77 1.42.31 2.39.67 2.92 1.09.86.64 1.28 1.58 1.28 2.83s-.39 2.28-1.2 3.08c-.8.81-1.83 1.22-3.08 1.22-1.03 0-2-.41-2.91-1.27v.22c0 .8-.28 1.22-.86 1.22-.59 0-.89-.36-.89-1.05 0-.25.02-.53.05-.89.03-.2.03-.61.03-1.31 0-.22-.03-.55-.06-1.03l-.05-1.02c0-.59.28-.89.8-.89.59 0 .92.39.95 1.14.08 2.08 1.05 3.13 2.97 3.13.67 0 1.22-.22 1.67-.63.41-.42.63-.92.63-1.56s-.19-1.14-.58-1.47c-.42-.33-1.11-.58-2.14-.78-1.36-.25-2.33-.58-2.94-1.02-.83-.59-1.25-1.53-1.25-2.78 0-1.2.39-2.2 1.17-3 .77-.81 1.75-1.19 2.91-1.19zm26.41 3.41l2.13 8.25 2.14-8.89c.06-.25.08-.39.08-.47 0-.25-.16-.36-.49-.36-.09 0-.14 0-.17.03-.11.02-.25.02-.39.02-.22 0-.42-.08-.58-.27-.17-.2-.25-.39-.25-.64 0-.61.3-.92.94-.92.25 0 .61.03 1.11.09l1.11.08c.25 0 .58-.03 1.06-.08l1-.09c.58 0 .89.31.89.92 0 .58-.31.89-.92.89-.03 0-.06 0-.14-.03h-.17l-.33-.06c-.28 0-.5.28-.67.86l-.33 1.14-2.33 8.05c-.81 2.73-1.58 4.64-2.39 5.75-.8 1.11-1.83 1.67-3.05 1.67-.86 0-1.59-.28-2.17-.86-.58-.59-.89-1.31-.89-2.17 0-.53.14-.97.42-1.33s.64-.56 1.05-.56c.37 0 .67.14.92.39.22.25.33.59.33 1 0 .5-.16.89-.52 1.14.22.31.52.44.91.44.64 0 1.25-.36 1.78-1.11s.78-1.61.78-2.55a2.2 2.2 0 0 0-.11-.69l-.28-.89-2.69-9.05c-.26-.78-.59-1.17-1.06-1.17h-.17a2.38 2.38 0 0 1-.41.05c-.2 0-.39-.08-.53-.27-.17-.2-.25-.42-.25-.67 0-.58.3-.89.89-.89.25 0 .61.06 1.08.14l1.11.14c.25 0 .64-.06 1.17-.14l1.11-.14c.58 0 .86.31.86.89 0 .64-.28.97-.81.97-.14 0-.25 0-.36-.03-.03-.02-.11-.02-.19-.02-.28 0-.42.14-.42.39 0 .13 0 .22.03.3l.17.75z"/><path d="M434.63 56.37c0 .16 0 .33-.03.5 1.08-1.03 2.11-1.53 3.13-1.53 1.34 0 2.39.61 3.2 1.86.8 1.25 1.19 2.94 1.19 5.08 0 2.19-.44 3.97-1.3 5.33s-2.03 2.03-3.45 2.03c-.97 0-1.88-.42-2.69-1.22v.99l.11 2.23c.06.25.22.38.53.38h.25c.19-.02.28-.05.3-.05.5 0 .75.33.75.97s-.27.94-.86.94c-.16 0-.47-.05-.91-.13-.45-.09-.81-.14-1.06-.14a5.71 5.71 0 0 0-1.22.14l-.81.13c-.58 0-.86-.3-.86-.94s.25-.97.75-.97c.06 0 .17.03.31.05h.25c.3 0 .47-.13.55-.38.06-.28.09-1.03.09-2.23v-9.35l-.11-2.22c-.09-.31-.25-.48-.56-.48h-.05c-.03.03-.06.03-.09.03h-.25c-.08.03-.16.03-.19.03-.47 0-.72-.3-.72-.89 0-.66.27-1 .83-1 .14 0 .36.03.61.09a4.2 4.2 0 0 0 .81.08c.13 0 .44-.06.86-.14.08-.03.16-.03.25-.03.25 0 .39.28.39.84zm2.69 11.38c.86 0 1.55-.5 2.05-1.47s.75-2.31.75-4c0-1.58-.25-2.8-.72-3.67-.47-.86-1.14-1.3-2-1.3s-1.53.44-2 1.36-.72 2.22-.72 3.91c0 1.64.22 2.89.69 3.81.48.91 1.11 1.36 1.95 1.36zm11.8 1.89c-1.53 0-2.72-.64-3.61-1.95-.89-1.27-1.33-3-1.33-5.19s.44-3.91 1.33-5.22c.89-1.3 2.08-1.94 3.61-1.94s2.72.64 3.61 1.94c.89 1.31 1.33 3.03 1.33 5.22s-.44 3.92-1.33 5.19c-.89 1.31-2.08 1.95-3.61 1.95zm0-12.44c-.92 0-1.64.47-2.17 1.44-.52.97-.8 2.28-.8 3.86s.28 2.86.8 3.83c.53.97 1.25 1.45 2.17 1.45.91 0 1.64-.48 2.19-1.45.53-.97.81-2.25.81-3.83s-.28-2.89-.81-3.86c-.55-.97-1.28-1.44-2.19-1.44zm12.21-1.86c.17 0 .42.03.78.08.17-1.69.97-2.52 2.39-2.52a2.27 2.27 0 0 1 1.72.74 2.57 2.57 0 0 1 .7 1.81c0 .97-.39 1.47-1.14 1.47-.31 0-.56-.11-.75-.31-.2-.19-.31-.44-.31-.74 0-.28.11-.59.36-.92-.14-.25-.3-.39-.5-.39-.25 0-.44.11-.61.36a1.34 1.34 0 0 0-.28.83c0 .14 0 .28.03.39.97.84 1.47 2.03 1.47 3.56 0 1.3-.36 2.38-1.11 3.25-.75.86-1.66 1.3-2.8 1.3-.75 0-1.56-.22-2.42-.69-.14-.09-.25-.12-.36-.12-.36 0-.55.34-.55.98 0 .8.61 1.22 1.8 1.22l2.5.11c.97.11 1.75.36 2.33.78 1.14.75 1.7 1.86 1.7 3.27 0 1.34-.48 2.42-1.45 3.22-.97.81-2.27 1.2-3.86 1.2-1.58 0-2.83-.36-3.8-1.11s-1.44-1.72-1.44-2.92c0-1.44.66-2.5 1.97-3.19-1.09-.58-1.64-1.44-1.64-2.58s.55-2 1.64-2.64c-.31-.72-.47-1.42-.47-2.11 0-1.25.38-2.31 1.16-3.11.75-.81 1.75-1.22 2.94-1.22zm-.19 1.83c-1.31 0-2 .83-2.05 2.47l-.03.17c0 .75.19 1.36.61 1.83.39.47.91.7 1.58.7.64 0 1.14-.23 1.53-.7.36-.47.55-1.08.55-1.86s-.19-1.42-.61-1.89a2.02 2.02 0 0 0-1.58-.72zm-.06 10.36c-1.02 0-1.86.22-2.44.63-.61.42-.92 1.01-.92 1.73 0 .75.31 1.36.89 1.8.59.42 1.36.64 2.39.64 1.06 0 1.89-.22 2.5-.64.58-.41.89-1.03.89-1.78 0-.72-.31-1.3-.89-1.75-.61-.41-1.42-.63-2.42-.63zm10.64-11.22v.36c.75-.89 1.64-1.33 2.64-1.33.97 0 1.77.33 2.38 1.03.61.69.92 1.61.92 2.69 0 .8-.17 1.47-.47 2-.34.53-.75.78-1.25.78-.39 0-.72-.14-.97-.39s-.39-.59-.39-.98c0-.74.41-1.16 1.22-1.27.03-.14.03-.28.03-.47 0-.45-.14-.84-.45-1.17a1.52 1.52 0 0 0-1.11-.47c-1.58 0-2.36 1.55-2.36 4.69v2.28l.11 2.94c.09.39.25.58.56.58.08 0 .25-.03.5-.05.14-.03.3-.06.53-.06.55 0 .83.31.83.92 0 .69-.31 1.02-.92 1.02-.19 0-.61-.05-1.22-.16l-1.16-.06c-.28 0-.67.03-1.14.11-.48.09-.81.11-1 .11-.59 0-.89-.3-.89-.94s.25-.94.78-.94a1.37 1.37 0 0 1 .3.02h.25c.31 0 .47-.13.56-.41.05-.25.08-1 .08-2.2v-4.88l-.11-2.22c-.08-.31-.28-.48-.58-.48h-.06c-.03.03-.03.03-.06.03h-.24c-.12.03-.17.03-.2.03-.5 0-.75-.3-.75-.89 0-.28.08-.53.25-.72s.36-.28.61-.28c.14 0 .39.03.7.09.3.05.55.08.72.08.16 0 .44-.06.86-.14.08-.03.16-.03.22-.03.17 0 .25.25.28.78zm16.32 13.33c-1.05 0-1.72-.56-2.02-1.67-.81 1.11-1.86 1.67-3.2 1.67-1.08 0-1.94-.39-2.63-1.14-.7-.75-1.06-1.72-1.06-2.92 0-1.52.47-2.58 1.42-3.22.66-.44 1.69-.75 3.08-.94.8-.11 1.33-.33 1.64-.64.3-.31.44-.81.44-1.53 0-1.5-.64-2.25-1.91-2.25-.34 0-.73.09-1.14.28-.48.22-.72.5-.72.81 0 .08.05.22.16.41.22.36.34.7.34 1 0 .81-.42 1.2-1.25 1.2-.98 0-1.45-.61-1.45-1.81a3.24 3.24 0 0 1 1.17-2.55c.75-.67 1.72-1 2.89-1a4.91 4.91 0 0 1 2.11.47c.69.36 1.19.89 1.44 1.55.19.56.3 1.5.3 2.81l.03 6.8c.03.53.17.81.47.81.42 0 .62-.67.62-1.97 0-.25 0-.42-.03-.53V65c0-.81.27-1.19.8-1.19.61 0 .92.52.92 1.58 0 1.61-.17 2.72-.53 3.33s-.97.92-1.89.92zm-2.36-4.5c.09-.42.11-1.25.14-2.5-.52.22-1.03.39-1.53.47l-1.24.22c-1.36.25-2.03 1-2.03 2.31 0 .67.19 1.19.58 1.61.36.42.86.61 1.47.61.64 0 1.22-.25 1.7-.75.47-.5.77-1.17.91-1.97zm8.58-8.77l-.02.5c1.08-1.03 2.11-1.53 3.13-1.53 1.33 0 2.39.61 3.2 1.86.8 1.25 1.19 2.94 1.19 5.08 0 2.19-.45 3.97-1.31 5.33s-2.02 2.03-3.44 2.03c-.97 0-1.89-.42-2.69-1.22v.99l.11 2.23c.05.25.22.38.53.38h.25c.19-.02.27-.05.3-.05.5 0 .75.33.75.97s-.28.94-.86.94c-.17 0-.47-.05-.92-.13-.44-.09-.8-.14-1.05-.14-.42 0-.81.05-1.22.14l-.81.13c-.58 0-.86-.3-.86-.94s.25-.97.75-.97c.06 0 .17.03.31.05h.25c.3 0 .47-.13.55-.38.06-.28.09-1.03.09-2.23v-9.35c0-1.17-.03-1.92-.12-2.22-.08-.31-.24-.48-.55-.48h-.06c-.02.03-.05.03-.08.03h-.25c-.08.03-.17.03-.19.03-.48 0-.73-.3-.73-.89 0-.66.28-1 .84-1 .14 0 .36.03.61.09.25.05.53.08.8.08.14 0 .45-.06.86-.14.09-.03.17-.03.25-.03.25 0 .39.28.39.84zm2.7 11.38c.86 0 1.55-.5 2.05-1.47s.75-2.31.75-4c0-1.58-.25-2.8-.72-3.67-.47-.86-1.14-1.3-2-1.3s-1.53.44-2 1.36-.72 2.22-.72 3.91c0 1.64.22 2.89.69 3.81.47.91 1.11 1.36 1.95 1.36zm10.07-16.3l-.05 5.47c.97-1.05 2.08-1.58 3.27-1.58 1.48 0 2.59.58 3.28 1.72.47.75.72 1.89.72 3.44v4.44c0 1.2.03 1.95.11 2.2.06.28.23.41.53.41h.25c.08-.02.2-.02.31-.02.5 0 .75.3.75.94s-.31.94-.89.94c-.22 0-.53-.02-.92-.11a8.76 8.76 0 0 0-1.44-.13c-.08 0-.39.02-.89.08l-.81.16c-.58 0-.86-.3-.86-.94s.25-.94.75-.94c.14 0 .23 0 .31.02h.25c.3 0 .47-.13.55-.41.06-.25.09-1 .09-2.2v-4.05c0-2.44-.81-3.66-2.39-3.66-1.19 0-1.97.52-2.39 1.61-.36.91-.53 1.94-.53 3.05v.39l.03 1.47v1.19c0 1.2.03 1.95.11 2.2.06.28.23.41.53.41h.25c.08-.02.17-.02.31-.02.5 0 .75.3.75.94s-.31.94-.89.94c-.14 0-.47-.05-.97-.16l-.95-.06c-.25 0-.58.03-1.05.11-.48.09-.84.11-1.09.11-.58 0-.88-.3-.88-.94s.24-.94.75-.94a1.28 1.28 0 0 1 .3.02h.25c.28 0 .44-.13.5-.38s.11-.98.14-2.23l.03-1.19v-6.8l-.03-.81-.03-1.22-.03-1.44c-.02-.64-.25-.95-.66-.95h-.17c-.08.03-.17.03-.28.03-.55 0-.83-.3-.83-.89 0-.25.08-.5.28-.69.16-.19.36-.28.61-.28.14 0 .36.03.64.09.27.08.5.11.64.11.27 0 .52-.03.75-.11.22-.06.41-.09.55-.09.31 0 .44.22.44.7v.05zm14 7.33l2.14 8.25 2.13-8.89.09-.47c0-.25-.17-.36-.5-.36-.09 0-.14 0-.17.03-.11.02-.25.02-.39.02a.74.74 0 0 1-.58-.27c-.17-.2-.25-.39-.25-.64 0-.61.3-.92.94-.92.25 0 .61.03 1.11.09l1.11.08c.25 0 .59-.03 1.06-.08l1-.09c.58 0 .89.31.89.92 0 .58-.31.89-.92.89-.03 0-.05 0-.14-.03h-.16l-.34-.06c-.27 0-.5.28-.66.86l-.34 1.14-2.33 8.05c-.8 2.73-1.58 4.64-2.39 5.75-.8 1.11-1.83 1.67-3.05 1.67-.86 0-1.58-.28-2.17-.86a2.98 2.98 0 0 1-.88-2.17c0-.53.13-.97.41-1.33s.64-.56 1.06-.56c.36 0 .66.14.91.39.22.25.34.59.34 1 0 .5-.17.89-.53 1.14.22.31.53.44.91.44.64 0 1.25-.36 1.78-1.11s.78-1.61.78-2.55a2.2 2.2 0 0 0-.11-.69l-.28-.89-2.69-9.05c-.25-.78-.59-1.17-1.06-1.17h-.16a2.6 2.6 0 0 1-.42.05c-.2 0-.39-.08-.53-.27-.17-.2-.25-.42-.25-.67 0-.58.31-.89.89-.89.25 0 .61.06 1.08.14l1.11.14c.25 0 .64-.06 1.17-.14l1.11-.14c.58 0 .86.31.86.89 0 .64-.28.97-.8.97-.14 0-.25 0-.37-.03-.02-.02-.11-.02-.19-.02-.28 0-.42.14-.42.39 0 .13 0 .22.03.3l.17.75zm-110.26-3.61l.03-.33v-2.2c0-.8.31-1.22.95-1.22.63 0 .94.42.94 1.22v2.23c0 .3.03.5.11.58.06.08.22.14.47.14l.86-.03.92-.05c.75 0 1.11.33 1.11.99 0 .7-.36 1.06-1.11 1.06-.19 0-.5-.03-.92-.11l-.94-.09c-.22 0-.36.06-.42.14-.05.12-.08.36-.08.73v5.58l.06 2.24c.13 1.03.52 1.53 1.16 1.53.84 0 1.25-.97 1.25-2.91v-.28c0-.61.03-1 .08-1.17.12-.41.39-.64.81-.64.64 0 .94.56.94 1.67a15.32 15.32 0 0 1-.11 1.78c-.22 2.36-1.25 3.55-3.11 3.55-1.44 0-2.36-.67-2.72-1.97-.16-.58-.25-1.56-.25-2.92v-6.6c0-.42-.11-.61-.33-.61-.03 0-.11.02-.31.05h-.13c-.09.03-.14.03-.17.03-.56 0-.83-.36-.83-1.06 0-.63.27-.97.83-.97a1.2 1.2 0 0 1 .3.03c.14.03.23.03.31.03.19 0 .28-.14.3-.42zm132.55-2.05c0-.22.09-.48.25-.73-.25-.27-.52-.41-.8-.41-.47 0-.89.25-1.2.72-.33.5-.5 1.14-.5 1.89 0 .5.03.78.11.86a.5.5 0 0 0 .34.14c.11 0 .28-.03.53-.06l.49-.05c.67 0 1.01.33 1.01 1.02 0 .64-.39.98-1.2.98-.17 0-.28 0-.36-.03l-.44-.06c-.31 0-.48.34-.5 1l-.03.61v6.11c0 1.14.03 1.83.11 2.08s.28.39.58.39h.25l.56-.05c.58 0 .86.3.86.91 0 .64-.31.97-.89.97-.14 0-.5-.05-1.05-.13-.34-.06-.84-.09-1.5-.09-.23 0-.56.03-.98.11-.41.09-.75.11-.94.11-.58 0-.86-.3-.86-.94s.25-.94.78-.94a1.37 1.37 0 0 1 .3.02h.25c.31 0 .47-.13.56-.41.05-.25.08-1 .08-2.2v-6.46c0-.67-.11-1-.36-1-.14 0-.22 0-.31.02-.08.03-.16.03-.27.03-.73 0-1.09-.33-1.09-1 0-.72.36-1.08 1.11-1.08a1.51 1.51 0 0 1 .34.03 1.47 1.47 0 0 0 .33.03c.25 0 .36-.14.36-.45 0-1.19.14-2.14.42-2.83.25-.58.64-1.08 1.19-1.44a3.12 3.12 0 0 1 1.83-.56c.81 0 1.53.25 2.11.75.59.5.89 1.11.89 1.8 0 .42-.11.78-.33 1.09-.25.3-.53.44-.89.44a1.03 1.03 0 0 1-.8-.36 1.1 1.1 0 0 1-.34-.83zm6.53 16.52c-1.53 0-2.72-.64-3.61-1.95-.89-1.27-1.34-3-1.34-5.19s.45-3.91 1.34-5.22c.89-1.3 2.08-1.94 3.61-1.94 1.52 0 2.72.64 3.61 1.94.89 1.31 1.33 3.03 1.33 5.22s-.44 3.92-1.33 5.19c-.89 1.31-2.09 1.95-3.61 1.95zm0-12.44c-.92 0-1.64.47-2.17 1.44s-.8 2.28-.8 3.86.27 2.86.8 3.83 1.25 1.45 2.17 1.45c.91 0 1.64-.48 2.19-1.45.53-.97.81-2.25.81-3.83s-.28-2.89-.81-3.86c-.55-.97-1.28-1.44-2.19-1.44zm10.32-.89v.36c.75-.89 1.64-1.33 2.64-1.33.97 0 1.78.33 2.39 1.03.61.69.92 1.61.92 2.69 0 .8-.17 1.47-.48 2-.33.53-.75.78-1.24.78-.39 0-.73-.14-.98-.39s-.39-.59-.39-.98c0-.74.42-1.16 1.23-1.27.02-.14.02-.28.02-.47 0-.45-.14-.84-.44-1.17-.31-.31-.69-.47-1.11-.47-1.58 0-2.36 1.55-2.36 4.69v2.28l.11 2.94c.08.39.25.58.56.58.08 0 .25-.03.5-.05a2.25 2.25 0 0 1 .52-.06c.56 0 .84.31.84.92 0 .69-.31 1.02-.92 1.02-.19 0-.61-.05-1.22-.16l-1.17-.06c-.28 0-.66.03-1.14.11-.47.09-.8.11-1 .11-.58 0-.88-.3-.88-.94s.25-.94.77-.94c.11 0 .23 0 .31.02h.25c.3 0 .47-.13.55-.41.06-.25.09-1 .09-2.2v-4.88l-.11-2.22c-.09-.31-.28-.48-.59-.48h-.05c-.03.03-.03.03-.06.03h-.25c-.11.03-.16.03-.19.03-.5 0-.75-.3-.75-.89 0-.28.08-.53.25-.72.16-.19.36-.28.61-.28.14 0 .39.03.69.09l.72.08c.17 0 .45-.06.87-.14.08-.03.16-.03.22-.03.16 0 .25.25.27.78zM577.78 59l1.58 7.86 1.69-9.86c.17-.97.61-1.47 1.36-1.47.42 0 .73.11.92.31.19.19.33.58.44 1.16l1.95 9.86 1.33-7.66.14-1.22c0-.42-.2-.62-.58-.62h-.06c-.08 0-.19 0-.39.03-.47 0-.72-.3-.72-.91 0-.64.25-.95.78-.95.25 0 .58.06 1.05.14l1.09.14c.24 0 .61-.06 1.05-.14l1-.14c.53 0 .78.31.78.92 0 .58-.34.89-1.03.89-.36 0-.61.19-.81.58-.19.39-.41 1.14-.63 2.28l-1.53 7.91c-.2 1.03-.7 1.53-1.47 1.53-.75 0-1.22-.59-1.47-1.78L582.41 59l-1.75 9.11c-.19 1.03-.66 1.53-1.38 1.53-.7 0-1.14-.5-1.39-1.53l-2.22-9.38-.28-.92c-.14-.31-.39-.47-.69-.47h-.09l-.39.02c-.19.03-.36-.08-.5-.3-.14-.19-.22-.42-.22-.61 0-.61.31-.92.89-.92.11 0 .42.06.94.14.28.08.61.11 1 .11.25 0 .64-.05 1.14-.14.47-.08.86-.11 1.11-.11.53 0 .81.31.81.89 0 .64-.28.94-.84.94h-.36c-.36 0-.55.2-.55.62 0 .22.05.55.14 1.02zm23.76 2.33c0 .7-.05 1.12-.14 1.25-.08.17-.33.25-.75.25h-5.52c-.44 0-.72.03-.83.12-.11.08-.17.3-.17.66 0 1.22.25 2.22.78 2.97.52.75 1.19 1.14 2.05 1.14.53 0 1.03-.17 1.45-.53.41-.36.72-.8.86-1.36l.25-.94c.14-.53.44-.78.97-.78.58 0 .89.34.89 1 0 1.2-.45 2.25-1.34 3.17-.91.91-1.94 1.36-3.13 1.36-1.48 0-2.64-.64-3.5-1.92-.86-1.25-1.31-2.97-1.31-5.11s.48-3.88 1.39-5.25c.92-1.36 2.14-2.02 3.61-2.02 1.31 0 2.39.55 3.22 1.66.81 1.14 1.22 2.59 1.22 4.33zm-7.27-.83c0 .34.25.5.72.5h3.5c.44 0 .72-.03.83-.11s.17-.25.17-.55c0-.89-.25-1.64-.72-2.23-.48-.58-1.09-.88-1.78-.88-1.08 0-1.89.61-2.36 1.83-.19.47-.3.86-.33 1.19-.03.09-.03.17-.03.25zm12.16-8.66l-.11 4.86c.78-.92 1.72-1.36 2.8-1.36 1.39 0 2.5.64 3.33 1.94.81 1.31 1.23 3.03 1.23 5.22 0 2.11-.45 3.83-1.31 5.14-.86 1.33-2 2-3.36 2-1.08 0-1.94-.5-2.64-1.48v.42c0 .7-.3 1.06-.91 1.06-.64 0-.95-.36-.95-1.09v-.69l.03-.78-.08-13.38c-.03-.53-.08-.83-.14-.97-.08-.14-.22-.2-.47-.2h-.2c-.44 0-.66-.27-.66-.83 0-.67.28-1 .83-1 .17 0 .33.03.5.09l.64.11c.05 0 .25-.03.58-.11a1.33 1.33 0 0 1 .45-.09c.3 0 .47.22.47.64v.22c-.03.11-.03.2-.03.28zm2.55 5.39c-1.74 0-2.63 1.72-2.63 5.13 0 3.58.86 5.36 2.55 5.36.86 0 1.53-.47 2.06-1.44.52-.97.77-2.22.77-3.78 0-1.61-.25-2.89-.72-3.86-.5-.94-1.17-1.41-2.03-1.41zM396.17 97.26l-.83.03-.83.11-.75.06-.5.02c-.31 0-.53-.08-.62-.25-.11-.16-.16-.41-.16-.72 0-.61.25-.91.78-.91l.44.02c.19.03.36.03.56.03.33 0 .58-.14.72-.39s.19-.72.19-1.36v-7.19c0-.33-.03-.61-.05-.8a1.01 1.01 0 0 0-.2-.48c-.08-.08-.22-.16-.41-.19-.2-.03-.45-.03-.75-.03-.25 0-.45 0-.59.03a.73.73 0 0 0-.36.19c-.08.11-.14.28-.17.48l-.05.8a1.72 1.72 0 0 0 .03.36l.02.5a2.97 2.97 0 0 0 .03.53v.36c0 .31-.08.56-.25.72-.16.17-.39.25-.64.25-.19 0-.38-.08-.55-.25-.19-.14-.28-.39-.28-.72l.03-.81c.03-.3.03-.58.03-.77 0-.53-.03-1-.09-1.36-.05-.36-.08-.67-.08-.95 0-.63.31-.94.89-.94.11 0 .22 0 .36.03l.64.08 1.19.08 2.03.03h.33l2.06-.03 1.19-.08.61-.08c.14-.03.25-.03.36-.03.59 0 .89.31.89.94 0 .28-.03.59-.08.95-.06.36-.09.83-.09 1.36l.03.77c.03.34.03.62.03.81 0 .33-.08.58-.25.72-.19.17-.39.25-.58.25-.25 0-.47-.08-.64-.25-.17-.16-.25-.41-.25-.72 0-.08 0-.19.03-.36l.02-.53c0-.16 0-.33.03-.5v-.36l-.03-.8c-.02-.2-.08-.37-.16-.48a.83.83 0 0 0-.36-.19c-.17-.03-.36-.03-.61-.03l-.75.03c-.2.03-.34.11-.42.19a1.01 1.01 0 0 0-.19.48 5.23 5.23 0 0 0-.06.8v7.19c0 .64.08 1.11.22 1.36s.36.39.7.39c.19 0 .38 0 .58-.03.19-.02.33-.02.42-.02.52 0 .77.3.77.91 0 .31-.05.56-.14.72-.11.17-.33.25-.63.25-.09 0-.23 0-.42-.02-.2-.03-.39-.03-.64-.06l-.75-.08-.75-.06h-.25z"/><use href="#C"/><path d="M324.87 93.01l.03 1.45c0 .36.03.66.08.86.03.19.11.33.2.41.08.09.22.11.39.11a2.02 2.02 0 0 0 .5-.05 1.22 1.22 0 0 1 .41-.06c.36 0 .64.09.84.28.19.2.27.47.27.78l-.02.44c-.03.2-.03.42-.06.67l-.08.64c-.03.19-.03.36-.03.44 0 .22.03.47.05.75a7.86 7.86 0 0 1 .03.84c0 .25-.08.47-.22.61-.17.13-.36.22-.61.22-.58 0-.86-.31-.86-.95 0-.16.03-.41.08-.74l.06-.73c0-.66-.09-1.11-.25-1.36-.2-.25-.64-.36-1.36-.36h-8.44c-.72 0-1.17.11-1.34.36-.19.25-.27.7-.27 1.36 0 .14.02.39.08.73l.06.74c0 .64-.28.95-.87.95-.24 0-.44-.09-.58-.22-.17-.14-.25-.36-.25-.61 0-.28.03-.56.06-.84l.02-.75-.02-.44c-.03-.2-.03-.42-.06-.64l-.08-.67c-.03-.19-.03-.36-.03-.44 0-.31.08-.58.28-.78.19-.19.47-.28.83-.28.2 0 .33.03.45.06.08.03.25.05.47.05a1.1 1.1 0 0 0 .91-.44c.23-.3.42-.58.56-.89.22-.41.42-.86.55-1.33.14-.47.25-1.05.34-1.72l.19-2.39.06-3.28c0-.13-.06-.25-.17-.27a1.52 1.52 0 0 0-.39-.06h-.3c-.11.03-.2.03-.25.03-.53 0-.78-.31-.78-.94 0-.64.28-.95.86-.95.03 0 .25.03.61.11.36.09.83.11 1.36.11h5.83c.53 0 1-.02 1.36-.11l.61-.11c.59 0 .86.31.86.95 0 .63-.25.94-.77.94-.06 0-.14 0-.25-.03h-.31c-.14 0-.25.03-.33.06-.09.05-.17.16-.2.33-.05.2-.08.44-.08.81-.03.36-.03.83-.03 1.41v4.94zm-2.47 2.5c.31 0 .47-.16.53-.5.05-.33.08-1 .08-2v-4.94l-.08-2c-.06-.33-.22-.5-.53-.5h-2.86c-.22 0-.33.14-.33.42l-.2 5.02c-.13 1.61-.47 3-.94 4.17 0 .14.06.25.14.28.08.02.17.05.25.05h3.94zm14.47-10.05h-.31c-.11.03-.19.03-.25.03-.53 0-.78-.31-.78-.94 0-.64.28-.95.87-.95a6.26 6.26 0 0 1 .61.11c.36.09.83.11 1.36.11l.63-.02.64-.09.53-.08c.14-.03.25-.03.28-.03.58 0 .86.31.86.95 0 .63-.25.94-.75.94-.08 0-.17 0-.25-.03H340a1.23 1.23 0 0 0-.36.06c-.08.05-.16.16-.19.33s-.06.42-.06.78l-.02 1.44v4.94l.02 1.45c0 .36.03.61.06.77.03.17.11.28.19.31.09.06.23.08.36.08.09 0 .2 0 .31-.02h.25c.5 0 .75.3.75.94s-.28.94-.86.94c-.03 0-.14 0-.28-.02-.14-.03-.33-.03-.53-.06l-.64-.11c-.25-.03-.44-.03-.63-.03-.53 0-1 .03-1.36.11-.37.09-.59.11-.61.11-.59 0-.87-.3-.87-.94s.25-.94.78-.94h.25c.11.02.22.02.31.02.14 0 .27-.02.36-.08.08-.03.14-.14.19-.33.03-.17.06-.42.09-.78v-1.42-4.24l-5.03 5.88c-.14.2-.22.36-.22.53 0 .3.16.44.53.44.08 0 .19 0 .3-.02h.25c.5 0 .75.3.75.94s-.28.94-.86.94c-.03 0-.14 0-.28-.02-.14-.03-.33-.03-.53-.06l-.63-.11c-.25-.03-.45-.03-.64-.03-.53 0-1 .03-1.36.11-.36.09-.59.11-.61.11-.59 0-.86-.3-.86-.94s.24-.94.77-.94h.25c.11.02.23.02.31.02.14 0 .28-.02.36-.08.08-.03.14-.14.19-.33.03-.17.06-.42.09-.78v-1.42-4.94-1.41l-.09-.81c-.05-.17-.11-.28-.19-.33a1.12 1.12 0 0 0-.36-.06h-.31c-.11.03-.19.03-.25.03-.53 0-.77-.31-.77-.94 0-.64.27-.95.86-.95.02 0 .25.03.61.11.36.09.83.11 1.36.11l.64-.02.63-.09.53-.08c.14-.03.25-.03.28-.03.58 0 .86.31.86.95 0 .63-.25.94-.75.94-.08 0-.17 0-.25-.03h-.3a1.24 1.24 0 0 0-.37.06c-.08.05-.16.16-.19.33s-.06.42-.06.78l-.02 1.44v4.3l5.05-5.91c.14-.19.22-.36.22-.53 0-.14-.05-.25-.14-.33-.08-.08-.22-.14-.41-.14zM352 91.9c0-.19-.06-.33-.17-.41-.11-.09-.3-.11-.61-.11h-4.02c-.2 0-.34.05-.42.19s-.14.39-.14.75v.69l.03 1.42c0 .36.03.61.08.78.03.19.11.3.19.33.09.06.2.08.34.08.08 0 .19 0 .3-.02h.25c.53 0 .78.3.78.94s-.28.94-.86.94a3.55 3.55 0 0 1-.61-.11c-.36-.08-.83-.11-1.36-.11l-.64.03-.64.11-.53.06c-.13.02-.25.02-.27.02-.59 0-.86-.3-.86-.94s.25-.94.75-.94h.27c.09.02.2.02.28.02.14 0 .28-.02.36-.08.09-.03.14-.14.2-.31l.08-.77v-1.45-4.94-1.41l-.08-.81c-.06-.17-.11-.28-.2-.33a1.12 1.12 0 0 0-.36-.06h-.3c-.12.03-.2.03-.25.03-.53 0-.78-.31-.78-.94 0-.64.28-.95.86-.95.03 0 .25.03.61.11.36.09.83.11 1.36.11l.64-.02.64-.09.53-.08c.13-.03.24-.03.27-.03.59 0 .86.31.86.95 0 .63-.25.94-.75.94-.08 0-.16 0-.25-.03h-.3a1.12 1.12 0 0 0-.36.06c-.09.05-.17.16-.2.33-.02.17-.05.42-.05.78-.03.36-.03.83-.03 1.44v.45c0 .47.06.77.19.91.11.14.37.2.78.2h3.64c.25 0 .41-.06.55-.14.11-.09.17-.34.2-.7v-.72-1.44l-.09-.78c-.05-.17-.11-.28-.19-.33a1.12 1.12 0 0 0-.36-.06h-.28c-.11.03-.19.03-.28.03-.5 0-.74-.31-.74-.94 0-.64.27-.95.86-.95a1.32 1.32 0 0 1 .27.03c.14.03.34.05.53.08l.64.09c.22.02.44.02.64.02.53 0 1-.02 1.36-.11l.61-.11c.58 0 .86.31.86.95 0 .63-.25.94-.78.94-.05 0-.14 0-.25-.03h-.3c-.14 0-.25.03-.34.06-.08.05-.16.16-.19.33-.06.2-.08.44-.08.81-.03.36-.03.83-.03 1.41v4.94l.03 1.45c0 .36.02.61.05.77.03.17.11.28.2.31.08.06.22.08.36.08.08 0 .19 0 .3-.02h.25c.5 0 .75.3.75.94s-.28.94-.86.94c-.03 0-.14 0-.28-.02-.14-.03-.33-.03-.52-.06l-.64-.11c-.25-.03-.45-.03-.64-.03-.53 0-1 .03-1.36.11a3.55 3.55 0 0 1-.61.11c-.59 0-.86-.3-.86-.94s.25-.94.77-.94h.25c.12.02.23.02.31.02.14 0 .28-.02.36-.08.08-.03.14-.14.19-.33.03-.17.06-.42.09-.78v-1.42-1.11zm14.38 5.81c-1.05 0-1.72-.56-2.03-1.67-.8 1.11-1.86 1.67-3.19 1.67a3.44 3.44 0 0 1-2.64-1.14c-.69-.75-1.05-1.72-1.05-2.92 0-1.52.47-2.58 1.41-3.22.67-.44 1.7-.75 3.09-.94.8-.11 1.33-.34 1.63-.64.31-.31.45-.81.45-1.53 0-1.5-.64-2.25-1.92-2.25-.33 0-.72.09-1.14.28-.47.22-.72.5-.72.81 0 .08.06.22.17.41.22.36.33.7.33 1 0 .81-.41 1.2-1.25 1.2-.97 0-1.44-.62-1.44-1.81 0-1.03.39-1.86 1.16-2.55.75-.67 1.73-1 2.89-1 .78 0 1.47.16 2.11.47.7.36 1.2.89 1.45 1.55.19.56.3 1.5.3 2.81l.03 6.8c.03.53.17.8.47.8.42 0 .61-.66.61-1.97 0-.25 0-.41-.03-.52v-.28c0-.81.28-1.2.81-1.2.61 0 .92.53.92 1.59 0 1.61-.17 2.72-.53 3.33s-.97.92-1.89.92zm-2.36-4.5c.08-.42.11-1.25.14-2.5-.53.22-1.03.39-1.53.47l-1.25.22c-1.36.25-2.02 1-2.02 2.31 0 .66.19 1.19.58 1.61.36.41.86.61 1.47.61.64 0 1.22-.25 1.69-.75.48-.5.78-1.17.92-1.97zm13.74 2.41c.14 0 .28-.02.37-.08.08-.03.13-.14.19-.31.03-.16.05-.41.08-.77v-1.45-.77c0-.42-.08-.73-.25-.92-.19-.17-.47-.25-.89-.25h-1.52c-1.2.11-1.78.89-1.78 2.33v1.39c0 .58-.06 1.08-.17 1.44-.11.39-.25.7-.44.89-.2.22-.39.39-.64.48-.25.08-.53.11-.78.11-.44 0-.83-.06-1.13-.2-.31-.14-.56-.39-.75-.72-.2-.33-.31-.78-.39-1.31-.09-.52-.14-1.22-.14-2.02 0-1.06.3-1.59.91-1.59.53 0 .81.39.81 1.2v.39c-.03.14-.03.28-.03.41 0 1.31.2 1.97.58 1.97.2 0 .34-.13.42-.44.08-.28.11-.61.11-1v-.91c0-.7.09-1.31.25-1.78a2.78 2.78 0 0 1 .72-1.11c-.69-.31-1.19-.78-1.44-1.36-.28-.59-.42-1.25-.42-2 0-1.22.36-2.17 1.06-2.81.69-.63 1.64-.97 2.89-.97l2.22.09 1.61.11a4.95 4.95 0 0 0 1.08-.11c.33-.06.69-.09 1.11-.09.28 0 .5.11.64.31.14.22.19.5.19.86 0 .19-.05.39-.13.58a.46.46 0 0 1-.45.28c-.14 0-.22 0-.28-.03h-.14c-.05 0-.11 0-.13-.03h-.25c-.12 0-.2.03-.28.06-.09.03-.14.14-.17.33-.05.2-.08.47-.11.84-.03.36-.03.88-.03 1.55v4.8l.03 1.42c0 .36.03.61.08.78.03.19.11.3.2.33.08.06.19.08.33.08.08 0 .2 0 .31-.02h.25c.52 0 .77.3.77.94s-.27.94-.86.94c-.02 0-.25-.02-.61-.11-.36-.08-.83-.11-1.36-.11l-.64.03-.63.11-.53.06c-.14.02-.25.02-.28.02-.58 0-.86-.3-.86-.94s.25-.94.75-.94h.28a1.23 1.23 0 0 0 .27.02zm.64-8.99c0-.31-.03-.53-.08-.72-.08-.2-.19-.34-.39-.45-.19-.11-.47-.19-.83-.25l-1.39-.05c-.83 0-1.39.19-1.67.55-.3.39-.44.92-.44 1.58 0 .64.19 1.17.58 1.53.36.39 1.06.58 2.06.58h1.11c.47 0 .75-.08.89-.27.11-.2.16-.59.16-1.17v-1.33zm33.21-1.17h-.31c-.11.03-.19.03-.25.03-.52 0-.77-.31-.77-.94 0-.64.27-.95.86-.95.02 0 .25.03.61.11.36.09.83.11 1.36.11l.64-.02.63-.09.53-.08c.14-.03.25-.03.28-.03.58 0 .86.31.86.95 0 .63-.25.94-.75.94-.08 0-.17 0-.25-.03h-.3a1.24 1.24 0 0 0-.37.06c-.08.05-.16.16-.19.33s-.06.42-.06.78l-.02 1.44v4.94l.02 1.45c0 .36.03.61.06.77.03.17.11.28.19.31.09.06.23.08.37.08.08 0 .19 0 .3-.02h.25c.5 0 .75.3.75.94s-.28.94-.86.94c-.03 0-.14 0-.28-.02-.14-.03-.33-.03-.53-.06l-.63-.11c-.25-.03-.45-.03-.64-.03-.53 0-1 .03-1.36.11-.36.09-.59.11-.61.11-.59 0-.86-.3-.86-.94s.25-.94.77-.94h.25c.11.02.23.02.31.02.14 0 .28-.02.36-.08.08-.03.14-.14.19-.33.03-.17.06-.42.09-.78v-1.42-4.24l-5.03 5.88c-.14.2-.22.36-.22.53 0 .3.17.44.53.44.08 0 .19 0 .3-.02h.25c.5 0 .75.3.75.94s-.28.94-.86.94c-.03 0-.14 0-.28-.02-.14-.03-.33-.03-.52-.06l-.64-.11c-.25-.03-.45-.03-.64-.03-.53 0-1 .03-1.36.11a3.55 3.55 0 0 1-.61.11c-.59 0-.86-.3-.86-.94s.25-.94.77-.94h.25c.11.02.23.02.31.02.14 0 .28-.02.36-.08.08-.03.14-.14.19-.33.03-.17.06-.42.09-.78v-1.42-4.94-1.41l-.09-.81c-.05-.17-.11-.28-.19-.33a1.12 1.12 0 0 0-.36-.06h-.31c-.11.03-.19.03-.25.03-.52 0-.77-.31-.77-.94 0-.64.27-.95.86-.95.03 0 .25.03.61.11.36.09.83.11 1.36.11l.64-.02.64-.09.52-.08c.14-.03.25-.03.28-.03.58 0 .86.31.86.95 0 .63-.25.94-.75.94-.08 0-.16 0-.25-.03h-.3a1.12 1.12 0 0 0-.36.06c-.09.05-.17.16-.2.33s-.05.42-.05.78c-.03.36-.03.83-.03 1.44v4.3l5.05-5.91c.14-.19.22-.36.22-.53 0-.14-.05-.25-.14-.33-.08-.08-.22-.14-.41-.14zm15.13 2.61l-.08-2c-.06-.33-.23-.5-.53-.5h-4.53c-.11.11-.16.34-.19.7s-.03.94-.03 1.8v4.94l.03 1.42c0 .36.03.61.08.78.03.19.11.3.2.33.08.06.19.08.33.08.08 0 .19 0 .31-.02h.25c.52 0 .77.3.77.94s-.27.94-.86.94a3.55 3.55 0 0 1-.61-.11c-.36-.08-.83-.11-1.36-.11l-.64.03-.64.11-.52.06a1.98 1.98 0 0 1-.28.02c-.59 0-.86-.3-.86-.94s.25-.94.75-.94h.27c.09.02.2.02.28.02.14 0 .28-.02.36-.08.09-.03.14-.14.2-.31.03-.16.05-.41.08-.77v-1.45-4.94-1.41l-.08-.81c-.06-.17-.11-.28-.2-.33a1.12 1.12 0 0 0-.36-.06h-.3c-.11.03-.2.03-.25.03-.53 0-.78-.31-.78-.94 0-.64.28-.95.86-.95.03 0 .25.03.61.11.36.09.83.11 1.36.11h7.36c.53 0 1-.02 1.36-.11l.61-.11c.58 0 .86.31.86.95 0 .63-.25.94-.78.94-.05 0-.14 0-.25-.03h-.3c-.14 0-.25.03-.34.06-.08.05-.16.16-.19.33-.05.2-.08.44-.08.81-.03.36-.03.83-.03 1.41v4.94l.03 1.45a5.81 5.81 0 0 0 .05.77c.03.17.11.28.2.31.08.06.22.08.36.08.08 0 .19 0 .3-.02h.25c.5 0 .75.3.75.94s-.27.94-.86.94c-.03 0-.14 0-.27-.02-.14-.03-.34-.03-.53-.06l-.64-.11c-.25-.03-.44-.03-.64-.03-.53 0-1 .03-1.36.11a3.55 3.55 0 0 1-.61.11c-.58 0-.86-.3-.86-.94s.25-.94.78-.94h.25c.11.02.22.02.3.02.14 0 .28-.02.36-.08.09-.03.14-.14.2-.33l.08-.78v-1.42-4.94zm10.52 9.64c-1.53 0-2.72-.64-3.61-1.95-.89-1.28-1.33-3-1.33-5.19s.44-3.91 1.33-5.22c.89-1.3 2.08-1.94 3.61-1.94s2.72.64 3.61 1.94c.89 1.31 1.33 3.03 1.33 5.22s-.44 3.91-1.33 5.19c-.89 1.31-2.08 1.95-3.61 1.95zm0-12.44c-.91 0-1.64.47-2.16 1.44-.53.97-.81 2.28-.81 3.86s.28 2.86.81 3.83c.52.97 1.25 1.44 2.16 1.44.92 0 1.64-.47 2.2-1.44.52-.97.8-2.25.8-3.83s-.28-2.89-.8-3.86c-.56-.97-1.28-1.44-2.2-1.44zm8.66 1.39c0-.84-.22-1.25-.69-1.25a.82.82 0 0 0-.28.05c-.08.03-.19.06-.3.06-.47 0-.7-.31-.7-.95a1.19 1.19 0 0 1 .23-.69c.14-.2.33-.28.61-.28.44 0 .94.03 1.47.11.53.09 1.22.14 2.08.14l1.53-.03 1.36-.08 1.03-.08c.27-.03.47-.03.58-.03.58 0 .89.31.89.94a5.8 5.8 0 0 1-.09.95c-.05.36-.08.83-.08 1.36l.03.77c.03.34.03.62.03.81 0 .33-.09.58-.25.72-.2.17-.39.25-.59.25-.25 0-.47-.08-.64-.25-.16-.16-.25-.41-.25-.72 0-.08 0-.19.03-.36 0-.17 0-.33.03-.53 0-.16 0-.33.03-.5v-.36a5.23 5.23 0 0 0-.06-.8.86.86 0 0 0-.22-.48c-.14-.08-.31-.16-.53-.19s-.53-.03-.91-.03l-1.23.03c-.33.03-.58.11-.74.19-.2.11-.31.28-.37.48-.08.19-.11.47-.11.8v7.19c0 .64.09 1.11.22 1.36.14.25.37.39.7.39.19 0 .39 0 .58-.03.2-.02.34-.02.42-.02.53 0 .78.3.78.91 0 .31-.06.56-.14.72-.11.17-.34.25-.64.25-.11 0-.28 0-.5-.02-.22-.03-.47-.03-.72-.06l-.86-.11c-.31-.03-.59-.03-.84-.03-.41 0-.77.03-1.11.11-.33.09-.66.11-.97.11-.5 0-.75-.3-.75-.94 0-.31.06-.56.2-.72a.53.53 0 0 1 .44-.22 2.19 2.19 0 0 1 .33.02c.14.03.25.03.36.03.2 0 .34-.11.45-.36s.16-.64.16-1.22v-7.41zm12.17-2.23c0 .17 0 .34-.03.5 1.08-1.02 2.11-1.52 3.14-1.52 1.33 0 2.38.61 3.19 1.86.8 1.25 1.19 2.94 1.19 5.08 0 2.19-.44 3.97-1.3 5.33s-2.03 2.03-3.45 2.03c-.97 0-1.88-.42-2.69-1.23v1l.11 2.23c.06.24.22.38.53.38h.25c.19-.02.28-.05.31-.05.49 0 .74.33.74.97s-.27.94-.86.94c-.16 0-.47-.05-.91-.14-.45-.08-.81-.13-1.06-.13-.41 0-.8.05-1.22.13l-.8.14c-.59 0-.86-.3-.86-.94s.25-.97.75-.97c.05 0 .16.03.3.05h.25a.51.51 0 0 0 .55-.38c.06-.28.09-1.03.09-2.23v-9.35l-.11-2.22c-.09-.31-.25-.48-.56-.48h-.05c-.03.03-.06.03-.09.03h-.25c-.08.03-.16.03-.19.03-.47 0-.72-.31-.72-.89 0-.66.28-1 .83-1 .14 0 .36.03.61.08.25.06.53.09.81.09.14 0 .44-.06.86-.14.08-.03.16-.03.25-.03.25 0 .39.28.39.83zm2.69 11.39c.86 0 1.55-.5 2.05-1.47.5-.98.75-2.31.75-4 0-1.58-.25-2.81-.72-3.67s-1.14-1.3-2-1.3-1.52.44-2 1.36c-.47.91-.72 2.22-.72 3.91 0 1.64.22 2.89.7 3.81.47.91 1.11 1.36 1.94 1.36zm15.66 1.89c-1.06 0-1.72-.56-2.03-1.67-.8 1.11-1.86 1.67-3.19 1.67-1.08 0-1.95-.39-2.64-1.14s-1.05-1.72-1.05-2.92c0-1.52.47-2.58 1.41-3.22.67-.44 1.69-.75 3.08-.94.81-.11 1.34-.34 1.64-.64.31-.31.45-.81.45-1.53 0-1.5-.64-2.25-1.92-2.25-.33 0-.72.09-1.14.28-.47.22-.72.5-.72.81 0 .08.06.22.17.41.22.36.33.7.33 1 0 .81-.42 1.2-1.25 1.2-.97 0-1.44-.62-1.44-1.81a3.23 3.23 0 0 1 1.16-2.55c.75-.67 1.72-1 2.89-1 .78 0 1.47.16 2.11.47.69.36 1.19.89 1.44 1.55.2.56.31 1.5.31 2.81l.03 6.8c.02.53.16.8.47.8.42 0 .61-.66.61-1.97 0-.25 0-.41-.03-.52v-.28c0-.81.28-1.2.81-1.2.61 0 .91.53.91 1.59 0 1.61-.16 2.72-.52 3.33s-.98.92-1.89.92zm-2.36-4.5c.08-.42.11-1.25.14-2.5-.53.22-1.03.39-1.53.47l-1.25.22c-1.36.25-2.03 1-2.03 2.31 0 .66.2 1.19.59 1.61.36.41.86.61 1.47.61.64 0 1.22-.25 1.69-.75s.78-1.17.92-1.97zm17.79 2.61c.89 0 1.59-.47 2.09-1.45.47-.97.72-2.3.72-4.02 0-1.58-.25-2.81-.72-3.67s-1.14-1.3-2-1.3c-.89 0-1.56.44-2.03 1.36-.47.91-.69 2.22-.69 3.91 0 1.64.22 2.89.69 3.81.47.91 1.11 1.36 1.94 1.36zm-7.13-10.44c-.83 0-1.5.44-2 1.36-.5.91-.75 2.11-.75 3.61v.22c0 1.64.25 2.89.72 3.78.48.91 1.11 1.36 1.97 1.36.87 0 1.53-.45 2-1.34.47-.88.73-2.13.73-3.74 0-1.89-.23-3.25-.7-4.06-.47-.8-1.14-1.19-1.97-1.19zm.03-1.97c.97 0 1.86.41 2.61 1.22v-1.64l-.03-1.25c-.03-.3-.08-.55-.14-.72s-.14-.28-.22-.33a.56.56 0 0 0-.33-.09h-.2c-.08.03-.17.03-.25.03-.53 0-.8-.3-.8-.89 0-.25.08-.5.27-.69a.75.75 0 0 1 .61-.28c.14 0 .37.03.67.08.28.09.5.11.64.11.22 0 .44-.02.67-.11.19-.05.44-.08.69-.08.31 0 .44.19.44.58v.7l-.02.8c-.03.36-.03.7-.03.95v.72 2.19c.53-.47 1.03-.83 1.5-1.03.47-.19.97-.27 1.44-.27.67 0 1.28.16 1.81.47.52.33 1 .8 1.38 1.39.39.61.7 1.33.89 2.19.2.86.31 1.83.31 2.89 0 2.19-.45 3.97-1.31 5.33s-2 2.03-3.44 2.03c-.97 0-1.86-.39-2.66-1.2v.08h-.03v.89l.08 2.2c.08.27.25.41.56.41h.25c.08-.02.16-.02.22-.02.03-.03.05-.03.08-.03.5 0 .75.33.75.97s-.28.94-.86.94c-.08 0-.22 0-.36-.02-.14-.03-.33-.09-.56-.12l-.58-.08c-.19-.03-.33-.05-.47-.05a6.24 6.24 0 0 0-1.22.13l-.81.14c-.58 0-.86-.3-.86-.94s.25-.97.75-.97c.03 0 .11.03.31.05h.25c.3 0 .47-.14.52-.41.09-.23.12-.95.12-2.2v-.89h-.03v-.16c0-.06 0-.14.03-.22-.89 1-1.84 1.5-2.86 1.5-1.36 0-2.48-.64-3.34-1.95-.86-1.3-1.27-2.97-1.27-5.02 0-2.14.44-3.92 1.33-5.28.92-1.36 2.08-2.05 3.5-2.05zm22.24 2.05h-.31a.87.87 0 0 1-.25.03c-.53 0-.78-.31-.78-.94 0-.64.28-.95.87-.95a6.26 6.26 0 0 1 .61.11c.36.09.83.11 1.36.11l.63-.02.64-.09.53-.08c.14-.03.25-.03.28-.03.58 0 .86.31.86.95 0 .63-.25.94-.75.94-.08 0-.17 0-.25-.03h-.31a1.23 1.23 0 0 0-.36.06c-.08.05-.16.16-.19.33s-.06.42-.06.78l-.02 1.44v4.94l.02 1.45c0 .36.03.61.06.77.03.17.11.28.19.31.09.06.23.08.36.08.09 0 .2 0 .31-.02h.25c.5 0 .75.3.75.94s-.28.94-.86.94c-.03 0-.14 0-.28-.02-.14-.03-.33-.03-.53-.06l-.64-.11c-.25-.03-.44-.03-.63-.03-.53 0-1 .03-1.36.11-.37.09-.59.11-.61.11-.59 0-.87-.3-.87-.94s.25-.94.78-.94h.25c.11.02.22.02.31.02.14 0 .27-.02.36-.08.08-.03.14-.14.19-.33.03-.17.06-.42.09-.78v-1.42-4.24l-5.03 5.88c-.14.2-.22.36-.22.53 0 .3.16.44.53.44.08 0 .19 0 .3-.02h.25c.5 0 .75.3.75.94s-.28.94-.86.94c-.03 0-.14 0-.28-.02-.14-.03-.33-.03-.53-.06l-.63-.11c-.25-.03-.45-.03-.64-.03-.53 0-1 .03-1.36.11-.36.09-.59.11-.61.11-.59 0-.86-.3-.86-.94s.24-.94.77-.94h.25c.11.02.23.02.31.02.14 0 .28-.02.36-.08.08-.03.14-.14.19-.33.03-.17.06-.42.09-.78v-1.42-4.94-1.41l-.09-.81c-.05-.17-.11-.28-.19-.33a1.12 1.12 0 0 0-.36-.06h-.31c-.11.03-.19.03-.25.03-.53 0-.77-.31-.77-.94 0-.64.27-.95.86-.95.02 0 .25.03.61.11.36.09.83.11 1.36.11l.64-.02.63-.09.53-.08c.14-.03.25-.03.28-.03.58 0 .86.31.86.95 0 .63-.25.94-.75.94-.08 0-.17 0-.25-.03h-.3a1.24 1.24 0 0 0-.37.06c-.08.05-.16.16-.19.33s-.06.42-.06.78l-.02 1.44v4.3l5.05-5.91c.14-.19.22-.36.22-.53 0-.14-.05-.25-.14-.33-.08-.08-.22-.14-.41-.14zm15.71-.42c-.36 0-.58.26-.69.75l-.2 1.17-.16 1.11a7.7 7.7 0 0 1-.34 1.06c-.14.36-.36.69-.66 1 .61.19 1.08.52 1.44 1.02.36.53.53 1.31.53 2.34v.91c0 .39.05.72.14 1 .08.31.19.44.39.44.38 0 .58-.66.58-1.97v-.41c-.03-.14-.03-.25-.03-.39 0-.81.28-1.2.81-1.2.61 0 .91.53.91 1.59 0 .8-.03 1.5-.11 2.02-.08.53-.22.98-.42 1.31-.19.33-.44.58-.74.72-.31.14-.7.2-1.14.2-.25 0-.5-.03-.75-.11-.25-.09-.48-.26-.67-.48-.19-.19-.33-.5-.44-.89-.11-.36-.17-.86-.17-1.44V93.4c0-.75-.14-1.3-.44-1.66-.31-.36-.75-.56-1.34-.61-.61.25-1.41.41-2.44.52v1.36l.03 1.45a5.81 5.81 0 0 0 .05.77c.03.17.11.28.2.31.08.06.22.08.36.08.08 0 .19 0 .3-.02h.25c.5 0 .75.3.75.94s-.27.94-.86.94c-.03 0-.14 0-.27-.02-.14-.03-.34-.03-.53-.06l-.64-.11c-.25-.03-.45-.03-.64-.03-.53 0-1 .03-1.36.11a3.55 3.55 0 0 1-.61.11c-.58 0-.86-.3-.86-.94s.25-.94.78-.94h.25a1.67 1.67 0 0 0 .3.02c.14 0 .28-.02.36-.08.09-.03.14-.14.2-.33l.08-.78v-1.42-4.94-1.41l-.08-.81c-.06-.17-.11-.28-.2-.33a1.12 1.12 0 0 0-.36-.06h-.3c-.12.03-.2.03-.25.03-.53 0-.78-.31-.78-.94 0-.64.28-.95.86-.95.03 0 .25.03.61.11.36.09.83.11 1.36.11l.64-.02.64-.09.53-.08c.13-.03.24-.03.27-.03.59 0 .86.31.86.95 0 .63-.25.94-.75.94-.08 0-.16 0-.25-.03h-.3a1.12 1.12 0 0 0-.36.06c-.09.05-.17.16-.2.33-.02.17-.05.42-.05.78-.03.36-.03.83-.03 1.44v2.08c.58-.05 1.03-.13 1.39-.22.36-.08.64-.19.86-.33s.42-.31.55-.5c.14-.2.25-.42.36-.72.23-.53.37-1.09.39-1.61.03-.53.11-1 .23-1.45.13-.58.38-1.08.75-1.44.36-.36.83-.53 1.47-.53.97 0 1.66.28 2.08.83.42.56.61 1.25.61 2.06 0 .47-.11.83-.31 1.11-.22.28-.55.42-.97.42-.41 0-.72-.12-.97-.34-.25-.19-.36-.52-.36-.94 0-.28.03-.53.08-.72.06-.2.11-.34.17-.42-.08-.19-.19-.31-.39-.31zm13.25 12.67c-1.06 0-1.73-.56-2.03-1.67-.81 1.11-1.86 1.67-3.19 1.67-1.09 0-1.95-.39-2.64-1.14-.7-.75-1.06-1.72-1.06-2.92 0-1.52.47-2.58 1.42-3.22.67-.44 1.69-.75 3.08-.94.81-.11 1.33-.34 1.64-.64.3-.31.44-.81.44-1.53 0-1.5-.64-2.25-1.91-2.25-.34 0-.72.09-1.14.28-.47.22-.72.5-.72.81 0 .08.05.22.16.41.23.36.34.7.34 1 0 .81-.42 1.2-1.25 1.2-.97 0-1.45-.62-1.45-1.81a3.24 3.24 0 0 1 1.17-2.55c.75-.67 1.72-1 2.89-1 .77 0 1.47.16 2.11.47.69.36 1.19.89 1.44 1.55.2.56.31 1.5.31 2.81l.02 6.8c.03.53.17.8.48.8.41 0 .61-.66.61-1.97 0-.25 0-.41-.03-.52v-.28c0-.81.28-1.2.81-1.2.61 0 .91.53.91 1.59 0 1.61-.17 2.72-.53 3.33s-.97.92-1.88.92zm-2.37-4.5c.09-.42.12-1.25.14-2.5-.52.22-1.02.39-1.52.47l-1.25.22c-1.36.25-2.03 1-2.03 2.31 0 .66.2 1.19.58 1.61.37.41.86.61 1.48.61a2.28 2.28 0 0 0 1.69-.75c.47-.5.78-1.17.91-1.97zm24.05-.2l.03 1.45c0 .36.02.66.08.86.03.19.11.33.19.41.09.09.23.11.39.11.23 0 .39-.02.5-.05a1.34 1.34 0 0 1 .42-.06c.36 0 .64.09.83.28.2.2.28.47.28.78 0 .08 0 .25-.03.44-.03.2-.03.42-.05.67l-.09.64c-.02.19-.02.36-.02.44 0 .22.02.47.05.75a7.86 7.86 0 0 1 .03.84c0 .25-.08.47-.22.61-.17.13-.36.22-.61.22-.59 0-.86-.31-.86-.95a4.33 4.33 0 0 1 .08-.74l.05-.73c0-.66-.08-1.11-.25-1.36-.19-.25-.63-.36-1.36-.36h-8.44c-.72 0-1.16.11-1.33.36-.19.25-.28.7-.28 1.36 0 .14.03.39.09.73l.05.74c0 .64-.28.95-.86.95-.25 0-.44-.09-.58-.22-.17-.14-.25-.36-.25-.61 0-.28.03-.56.05-.84.03-.28.03-.53.03-.75 0-.08 0-.25-.03-.44l-.05-.64-.08-.67c-.03-.19-.03-.36-.03-.44 0-.31.08-.58.28-.78.19-.19.47-.28.83-.28.19 0 .33.03.44.06.09.03.25.05.47.05.37 0 .67-.13.92-.44.22-.3.42-.58.56-.89.22-.41.41-.86.55-1.33s.25-1.05.33-1.72c.09-.67.17-1.47.2-2.39l.05-3.28c0-.13-.05-.25-.16-.27a1.52 1.52 0 0 0-.39-.06h-.31c-.11.03-.19.03-.25.03-.52 0-.77-.31-.77-.94 0-.64.27-.95.86-.95.02 0 .25.03.61.11.36.09.83.11 1.36.11h5.83c.53 0 1-.02 1.36-.11l.61-.11c.58 0 .86.31.86.95 0 .63-.25.94-.78.94-.05 0-.14 0-.25-.03h-.3c-.14 0-.25.03-.34.06-.08.05-.16.16-.19.33-.06.2-.08.44-.08.81-.03.36-.03.83-.03 1.41v4.94zm-2.47 2.5c.3 0 .47-.16.53-.5.05-.33.08-1 .08-2v-4.94l-.08-2c-.06-.33-.23-.5-.53-.5h-2.86c-.22 0-.34.14-.34.42l-.19 5.02c-.14 1.61-.47 3-.94 4.17 0 .14.05.25.14.28.08.02.16.05.25.05h3.94zm17.18-7.44l-.08-2c-.05-.33-.22-.5-.53-.5h-2.86c-.22 0-.33.14-.33.42l-.14 4.36c-.08 1.41-.3 2.69-.61 3.8-.33 1.14-.8 2.03-1.44 2.72-.64.7-1.53 1.03-2.61 1.03-.81 0-1.5-.22-2.03-.67-.55-.41-.83-1.05-.83-1.86 0-.52.14-.91.39-1.16s.58-.36.94-.36c.31 0 .56.08.75.27.19.2.28.5.28.92 0 .17-.03.31-.09.39l-.22.36c.14.22.42.33.83.33.31 0 .62-.16.92-.5.28-.3.53-.69.75-1.11.22-.41.42-.86.56-1.33s.25-1.05.33-1.72l.19-2.39.06-3.28c0-.13-.06-.25-.17-.27a1.52 1.52 0 0 0-.39-.06h-.3c-.11.03-.2.03-.25.03-.53 0-.78-.31-.78-.94 0-.64.28-.95.86-.95.03 0 .25.03.61.11.36.09.84.11 1.36.11h5.83c.53 0 1-.02 1.36-.11l.61-.11c.59 0 .87.31.87.95 0 .63-.25.94-.78.94-.06 0-.14 0-.25-.03h-.31c-.14 0-.25.03-.33.06-.08.05-.17.16-.19.33-.06.2-.09.44-.09.81-.03.36-.03.83-.03 1.41v4.94l.03 1.45c0 .36.03.61.06.77.03.17.11.28.19.31.08.06.22.08.36.08.09 0 .2 0 .31-.02h.25c.5 0 .75.3.75.94s-.28.94-.86.94c-.03 0-.14 0-.28-.02-.14-.03-.33-.03-.53-.06l-.64-.11c-.25-.03-.44-.03-.64-.03-.52 0-.99.03-1.36.11a3.55 3.55 0 0 1-.61.11c-.58 0-.86-.3-.86-.94s.25-.94.78-.94h.25c.11.02.22.02.31.02.13 0 .27-.02.36-.08.08-.03.14-.14.19-.33.03-.17.06-.42.08-.78v-1.42-4.94zm13.47 7.55c.14 0 .28-.02.36-.08.08-.03.14-.14.2-.31l.08-.77v-1.45-.77c0-.42-.08-.73-.25-.92-.2-.17-.47-.25-.89-.25h-1.53c-1.19.11-1.77.89-1.77 2.33v1.39c0 .58-.06 1.08-.17 1.44-.11.39-.25.7-.44.89-.2.22-.39.39-.64.48-.25.08-.53.11-.78.11-.44 0-.83-.06-1.14-.2-.3-.14-.55-.39-.75-.72-.19-.33-.3-.78-.39-1.31-.08-.52-.14-1.22-.14-2.02 0-1.06.31-1.59.92-1.59.53 0 .81.39.81 1.2v.39c-.03.14-.03.28-.03.41 0 1.31.19 1.97.58 1.97.19 0 .33-.13.42-.44.08-.28.11-.61.11-1v-.91c0-.7.08-1.31.25-1.78.16-.47.41-.83.72-1.11-.69-.31-1.19-.78-1.44-1.36-.28-.59-.42-1.25-.42-2 0-1.22.36-2.17 1.06-2.81.69-.63 1.63-.97 2.88-.97l2.22.09 1.61.11a5.04 5.04 0 0 0 1.09-.11c.33-.06.69-.09 1.11-.09.27 0 .5.11.64.31.13.22.19.5.19.86a1.54 1.54 0 0 1-.14.58c-.08.2-.25.28-.44.28-.14 0-.23 0-.28-.03h-.14c-.05 0-.11 0-.14-.03h-.25c-.11 0-.19.03-.28.06-.08.03-.13.14-.16.33-.06.2-.09.47-.11.84-.03.36-.03.88-.03 1.55v4.8l.03 1.42c0 .36.02.61.08.78.03.19.11.3.19.33.09.06.2.08.34.08.08 0 .19 0 .3-.02h.25c.53 0 .78.3.78.94s-.28.94-.86.94a3.55 3.55 0 0 1-.61-.11c-.36-.08-.83-.11-1.36-.11l-.64.03-.64.11-.53.06c-.14.02-.25.02-.27.02-.59 0-.86-.3-.86-.94s.24-.94.75-.94h.27c.09.02.2.02.28.02zm.64-8.99c0-.31-.03-.53-.08-.72-.09-.2-.2-.34-.39-.45-.2-.11-.48-.19-.84-.25l-1.38-.05c-.84 0-1.39.19-1.67.55-.31.39-.44.92-.44 1.58 0 .64.19 1.17.58 1.53.36.39 1.05.58 2.05.58h1.11c.48 0 .75-.08.89-.27.11-.2.17-.59.17-1.17v-1.33zm23.07.16c0 1.39-.72 2.39-2.14 2.97.95.37 1.64.81 2.08 1.37.45.55.67 1.27.67 2.19 0 1.28-.39 2.28-1.14 3.03-.75.74-1.97 1.13-3.63 1.13-.7 0-1.36-.02-1.98-.08-.61-.08-1.22-.11-1.8-.11-.39 0-.75.03-1.08.11a5.59 5.59 0 0 1-.97.08c-.53 0-.81-.3-.81-.91 0-.31.06-.56.17-.73.11-.16.3-.24.58-.24h.3c.06.02.12.02.17.02a.69.69 0 0 0 .45-.14c.08-.08.16-.22.22-.44l.08-.89v-1.41-4.53l-.03-1.55-.08-.84c-.06-.19-.11-.3-.19-.33-.09-.03-.17-.06-.28-.06h-.25c-.06.03-.11.03-.14.03h-.14c-.05.03-.14.03-.28.03-.19 0-.36-.08-.44-.28a1.54 1.54 0 0 1-.14-.58c0-.36.08-.64.22-.86a.7.7 0 0 1 .61-.31c.42 0 .78.03 1.14.09.33.08.7.11 1.06.11.39 0 .91-.03 1.61-.11l2.22-.09c1.25 0 2.22.28 2.91.86.7.59 1.03 1.42 1.03 2.47zm-6.97 7.2c0 .36.03.63.11.86.06.22.2.38.39.52.2.14.45.23.78.25.3.06.75.09 1.28.09 1.08 0 1.8-.23 2.22-.64.41-.42.61-1.03.61-1.86 0-.81-.2-1.39-.59-1.81-.38-.41-1.08-.61-2.11-.61h-1.55c-.42 0-.69.09-.86.25-.2.2-.28.5-.28.92v2.03zm0-6.31c0 .59.06.97.2 1.17.11.19.38.28.86.28h1.11c1 0 1.69-.17 2.08-.53.36-.33.55-.83.55-1.53 0-.64-.13-1.11-.41-1.44-.31-.31-.86-.47-1.7-.47l-1.38.05c-.36.06-.61.14-.81.25-.19.11-.33.25-.39.45-.08.19-.11.41-.11.72v1.05z"/><use href="#C" x="309.6"/><path d="M623.23 90.57l.19-4.83c.11-1.22.31-2.19.56-2.94.25-.73.61-1.25 1.05-1.59.42-.33.95-.58 1.59-.77.22-.09.47-.14.77-.23l.89-.25.81-.22.61-.19c.3-.14.53-.28.64-.47.11-.2.16-.42.16-.73 0-.16 0-.3-.03-.38-.02-.09-.02-.2-.02-.37 0-.25.11-.47.3-.61.2-.14.42-.19.72-.19.37 0 .64.11.78.3a1.53 1.53 0 0 1 .22.81c0 .53-.02.97-.08 1.33-.08.36-.17.67-.3.92-.14.25-.34.47-.53.61-.2.17-.45.3-.72.42l-.89.3a14.01 14.01 0 0 1-1.2.36l-1.13.34c-.37.11-.64.22-.84.3-.41.2-.72.42-.97.7-.25.27-.42.58-.55.88-.14.34-.23.67-.25 1l-.06 1c.22-.33.44-.64.67-.89a4.94 4.94 0 0 1 .72-.66c.25-.17.55-.31.86-.42.3-.08.69-.14 1.11-.14.78 0 1.47.17 2.08.53.59.36 1.08.83 1.5 1.44s.72 1.34.92 2.2a12.71 12.71 0 0 1 .3 2.77c0 1-.11 1.92-.33 2.75-.25.83-.58 1.56-1 2.17s-.94 1.08-1.53 1.41c-.61.37-1.3.53-2.05.53-1.47 0-2.67-.61-3.58-1.8-.92-1.2-1.39-3-1.39-5.39zm4.94-4.75c-.92 0-1.64.47-2.17 1.39-.52.92-.8 2.14-.8 3.64s.28 2.69.8 3.61c.53.91 1.25 1.38 2.17 1.38s1.64-.47 2.19-1.38c.53-.92.81-2.11.81-3.61s-.28-2.72-.81-3.64c-.55-.92-1.27-1.39-2.19-1.39zm15.8 11.89c-1.06 0-1.72-.56-2.03-1.67-.8 1.11-1.86 1.67-3.19 1.67-1.08 0-1.95-.39-2.64-1.14s-1.05-1.72-1.05-2.92c0-1.52.47-2.58 1.41-3.22.67-.44 1.7-.75 3.08-.94.81-.11 1.34-.34 1.64-.64.31-.31.45-.81.45-1.53 0-1.5-.64-2.25-1.92-2.25-.33 0-.72.09-1.14.28-.47.22-.72.5-.72.81 0 .08.06.22.17.41.22.36.33.7.33 1 0 .81-.42 1.2-1.25 1.2-.97 0-1.44-.62-1.44-1.81a3.23 3.23 0 0 1 1.16-2.55c.75-.67 1.72-1 2.89-1 .78 0 1.47.16 2.11.47.69.36 1.19.89 1.44 1.55.2.56.31 1.5.31 2.81l.03 6.8c.02.53.16.8.47.8.42 0 .61-.66.61-1.97 0-.25 0-.41-.03-.52v-.28c0-.81.28-1.2.81-1.2.61 0 .91.53.91 1.59 0 1.61-.16 2.72-.52 3.33s-.98.92-1.89.92zm-2.36-4.5c.08-.42.11-1.25.14-2.5-.53.22-1.03.39-1.53.47l-1.25.22c-1.36.25-2.03 1-2.03 2.31 0 .66.2 1.19.59 1.61.36.41.86.61 1.47.61.64 0 1.22-.25 1.69-.75s.78-1.17.92-1.97z"/></g><defs ><path id="B" d="M311.57 61.33c0 .7-.05 1.12-.14 1.25-.08.17-.33.25-.75.25h-5.52c-.44 0-.72.03-.83.12-.11.08-.17.3-.17.66 0 1.22.25 2.22.78 2.97s1.19 1.14 2.05 1.14c.53 0 1.03-.17 1.45-.53.41-.36.72-.8.86-1.36l.25-.94c.14-.53.44-.78.97-.78.58 0 .89.34.89 1 0 1.2-.45 2.25-1.34 3.17-.91.91-1.94 1.36-3.13 1.36-1.47 0-2.64-.64-3.5-1.92-.86-1.25-1.31-2.97-1.31-5.11s.48-3.88 1.39-5.25c.92-1.36 2.14-2.02 3.61-2.02 1.31 0 2.39.55 3.22 1.66.81 1.14 1.22 2.59 1.22 4.33zm-7.27-.83c0 .34.25.5.72.5h3.5c.44 0 .72-.03.83-.11s.17-.25.17-.55c0-.89-.25-1.64-.72-2.23-.47-.58-1.09-.88-1.78-.88-1.08 0-1.89.61-2.36 1.83-.19.47-.3.86-.33 1.19-.03.09-.03.17-.03.25z"/><path id="C" d="M311.57 89.4c0 .7-.05 1.11-.14 1.25-.08.17-.33.25-.75.25h-5.52c-.44 0-.72.03-.83.11-.11.09-.17.31-.17.67 0 1.22.25 2.22.78 2.97s1.19 1.14 2.05 1.14c.53 0 1.03-.17 1.45-.53.41-.36.72-.8.86-1.36l.25-.94c.14-.53.44-.78.97-.78.58 0 .89.33.89 1 0 1.19-.45 2.25-1.34 3.17-.91.91-1.94 1.36-3.13 1.36-1.47 0-2.64-.64-3.5-1.92-.86-1.25-1.31-2.97-1.31-5.11s.48-3.89 1.39-5.25c.92-1.36 2.14-2.02 3.61-2.02 1.31 0 2.39.55 3.22 1.66.81 1.14 1.22 2.58 1.22 4.33zm-7.27-.83c0 .33.25.5.72.5h3.5c.44 0 .72-.03.83-.11s.17-.25.17-.56c0-.88-.25-1.63-.72-2.22-.47-.58-1.09-.88-1.78-.88-1.08 0-1.89.61-2.36 1.83-.19.47-.3.86-.33 1.19-.03.08-.03.17-.03.25z"/></defs></svg>